<svg version="1.1" baseProfile="full" width="450" height="500" xmlns="http://www.w3.org/2000/svg"> <rect width="100%" height="100%" fill="red" />
	<circle cx="45" cy="40" r="30" fill="green"/>
	<circle cx="105" cy="40" r="30" fill="green"/>
	<circle cx="165" cy="40" r="30" fill="green"/>
	<circle cx="225" cy="40" r="30" fill="green"/>
	<circle cx="285" cy="40" r="30" fill="green"/>
	<circle cx="345" cy="40" r="30" fill="green"/>
	<circle cx="405" cy="40" r="30" fill="green"/>
	<circle cx="45" cy="100" r="30" fill="green"/>
	<circle cx="105" cy="100" r="30" fill="green"/>
	<circle cx="165" cy="100" r="30" fill="green"/>
	<circle cx="225" cy="100" r="30" fill="green"/>
	<circle cx="285" cy="100" r="30" fill="green"/>
	<circle cx="345" cy="100" r="30" fill="green"/>
	<circle cx="405" cy="100" r="30" fill="green"/>
	<circle cx="45" cy="160" r="30" fill="green"/>
	<circle cx="105" cy="160" r="30" fill="green"/>
	<circle cx="165" cy="160" r="30" fill="green"/>
	<circle cx="225" cy="160" r="30" fill="green"/>
	<circle cx="285" cy="160" r="30" fill="green"/>
	<circle cx="345" cy="160" r="30" fill="green"/>
	<circle cx="405" cy="160" r="30" fill="green"/>
	<circle cx="45" cy="220" r="30" fill="green"/>
	<circle cx="105" cy="220" r="30" fill="green"/>
	<circle cx="165" cy="220" r="30" fill="green"/>
	<circle cx="225" cy="220" r="30" fill="green"/>
	<circle cx="285" cy="220" r="30" fill="green"/>
	<circle cx="345" cy="220" r="30" fill="green"/>
	<circle cx="405" cy="220" r="30" fill="green"/>
	<circle cx="45" cy="280" r="30" fill="green"/>
	<circle cx="105" cy="280" r="30" fill="green"/>
	<circle cx="165" cy="280" r="30" fill="green"/>
	<circle cx="225" cy="280" r="30" fill="green"/>
	<circle cx="285" cy="280" r="30" fill="green"/>
	<circle cx="345" cy="280" r="30" fill="green"/>
	<circle cx="405" cy="280" r="30" fill="green"/>
	<circle cx="45" cy="340" r="30" fill="green"/>
	<circle cx="105" cy="340" r="30" fill="green"/>
	<circle cx="165" cy="340" r="30" fill="green"/>
	<circle cx="225" cy="340" r="30" fill="green"/>
	<circle cx="285" cy="340" r="30" fill="green"/>
	<circle cx="345" cy="340" r="30" fill="green"/>
	<circle cx="405" cy="340" r="30" fill="green"/>
	<circle cx="45" cy="400" r="30" fill="green"/>
	<circle cx="105" cy="400" r="30" fill="green"/>
	<circle cx="165" cy="400" r="30" fill="green"/>
	<circle cx="225" cy="400" r="30" fill="green"/>
	<circle cx="285" cy="400" r="30" fill="green"/>
	<circle cx="345" cy="400" r="30" fill="green"/>
	<circle cx="405" cy="400" r="30" fill="green"/>
	<circle cx="45" cy="460" r="30" fill="green"/>
	<circle cx="105" cy="460" r="30" fill="green"/>
	<circle cx="165" cy="460" r="30" fill="green"/>
	<circle cx="225" cy="460" r="30" fill="green"/>
	<circle cx="285" cy="460" r="30" fill="green"/>
	<circle cx="345" cy="460" r="30" fill="green"/>
	<circle cx="405" cy="460" r="30" fill="green"/>

</svg>