<svg version="1.1" baseProfile="full" width="500" height="400" xmlns="http://www.w3.org/2000/svg"> <rect width="100%" height="100%" fill="red" />
<rect x="0" y="0" width="30" height="40" fill="green" />
<rect x="30" y="0" width="30" height="40" fill="yellow" />
<rect x="60" y="0" width="30" height="40" fill="pink" />
<rect x="90" y="0" width="30" height="40" fill="green" />
<rect x="120" y="0" width="30" height="40" fill="yellow" />
<rect x="150" y="0" width="30" height="40" fill="pink" />
<rect x="180" y="0" width="30" height="40" fill="green" />
<rect x="210" y="0" width="30" height="40" fill="yellow" />
<rect x="240" y="0" width="30" height="40" fill="pink" />
<rect x="270" y="0" width="30" height="40" fill="green" />
<rect x="300" y="0" width="30" height="40" fill="yellow" />
<rect x="330" y="0" width="30" height="40" fill="pink" />
<rect x="360" y="0" width="30" height="40" fill="green" />
<rect x="390" y="0" width="30" height="40" fill="yellow" />
<rect x="420" y="0" width="30" height="40" fill="pink" />
<rect x="450" y="0" width="30" height="40" fill="green" />
<rect x="0" y="40" width="30" height="40" fill="yellow" />
<rect x="30" y="40" width="30" height="40" fill="pink" />
<rect x="60" y="40" width="30" height="40" fill="green" />
<rect x="90" y="40" width="30" height="40" fill="yellow" />
<rect x="120" y="40" width="30" height="40" fill="pink" />
<rect x="150" y="40" width="30" height="40" fill="green" />
<rect x="180" y="40" width="30" height="40" fill="yellow" />
<rect x="210" y="40" width="30" height="40" fill="pink" />
<rect x="240" y="40" width="30" height="40" fill="green" />
<rect x="270" y="40" width="30" height="40" fill="yellow" />
<rect x="300" y="40" width="30" height="40" fill="pink" />
<rect x="330" y="40" width="30" height="40" fill="green" />
<rect x="360" y="40" width="30" height="40" fill="yellow" />
<rect x="390" y="40" width="30" height="40" fill="pink" />
<rect x="420" y="40" width="30" height="40" fill="green" />
<rect x="450" y="40" width="30" height="40" fill="yellow" />
<rect x="0" y="80" width="30" height="40" fill="pink" />
<rect x="30" y="80" width="30" height="40" fill="green" />
<rect x="60" y="80" width="30" height="40" fill="yellow" />
<rect x="90" y="80" width="30" height="40" fill="pink" />
<rect x="120" y="80" width="30" height="40" fill="green" />
<rect x="150" y="80" width="30" height="40" fill="yellow" />
<rect x="180" y="80" width="30" height="40" fill="pink" />
<rect x="210" y="80" width="30" height="40" fill="green" />
<rect x="240" y="80" width="30" height="40" fill="yellow" />
<rect x="270" y="80" width="30" height="40" fill="pink" />
<rect x="300" y="80" width="30" height="40" fill="green" />
<rect x="330" y="80" width="30" height="40" fill="yellow" />
<rect x="360" y="80" width="30" height="40" fill="pink" />
<rect x="390" y="80" width="30" height="40" fill="green" />
<rect x="420" y="80" width="30" height="40" fill="yellow" />
<rect x="450" y="80" width="30" height="40" fill="pink" />
<rect x="0" y="120" width="30" height="40" fill="green" />
<rect x="30" y="120" width="30" height="40" fill="yellow" />
<rect x="60" y="120" width="30" height="40" fill="pink" />
<rect x="90" y="120" width="30" height="40" fill="green" />
<rect x="120" y="120" width="30" height="40" fill="yellow" />
<rect x="150" y="120" width="30" height="40" fill="pink" />
<rect x="180" y="120" width="30" height="40" fill="green" />
<rect x="210" y="120" width="30" height="40" fill="yellow" />
<rect x="240" y="120" width="30" height="40" fill="pink" />
<rect x="270" y="120" width="30" height="40" fill="green" />
<rect x="300" y="120" width="30" height="40" fill="yellow" />
<rect x="330" y="120" width="30" height="40" fill="pink" />
<rect x="360" y="120" width="30" height="40" fill="green" />
<rect x="390" y="120" width="30" height="40" fill="yellow" />
<rect x="420" y="120" width="30" height="40" fill="pink" />
<rect x="450" y="120" width="30" height="40" fill="green" />
<rect x="0" y="160" width="30" height="40" fill="yellow" />
<rect x="30" y="160" width="30" height="40" fill="pink" />
<rect x="60" y="160" width="30" height="40" fill="green" />
<rect x="90" y="160" width="30" height="40" fill="yellow" />
<rect x="120" y="160" width="30" height="40" fill="pink" />
<rect x="150" y="160" width="30" height="40" fill="green" />
<rect x="180" y="160" width="30" height="40" fill="yellow" />
<rect x="210" y="160" width="30" height="40" fill="pink" />
<rect x="240" y="160" width="30" height="40" fill="green" />
<rect x="270" y="160" width="30" height="40" fill="yellow" />
<rect x="300" y="160" width="30" height="40" fill="pink" />
<rect x="330" y="160" width="30" height="40" fill="green" />
<rect x="360" y="160" width="30" height="40" fill="yellow" />
<rect x="390" y="160" width="30" height="40" fill="pink" />
<rect x="420" y="160" width="30" height="40" fill="green" />
<rect x="450" y="160" width="30" height="40" fill="yellow" />
<rect x="0" y="200" width="30" height="40" fill="pink" />
<rect x="30" y="200" width="30" height="40" fill="green" />
<rect x="60" y="200" width="30" height="40" fill="yellow" />
<rect x="90" y="200" width="30" height="40" fill="pink" />
<rect x="120" y="200" width="30" height="40" fill="green" />
<rect x="150" y="200" width="30" height="40" fill="yellow" />
<rect x="180" y="200" width="30" height="40" fill="pink" />
<rect x="210" y="200" width="30" height="40" fill="green" />
<rect x="240" y="200" width="30" height="40" fill="yellow" />
<rect x="270" y="200" width="30" height="40" fill="pink" />
<rect x="300" y="200" width="30" height="40" fill="green" />
<rect x="330" y="200" width="30" height="40" fill="yellow" />
<rect x="360" y="200" width="30" height="40" fill="pink" />
<rect x="390" y="200" width="30" height="40" fill="green" />
<rect x="420" y="200" width="30" height="40" fill="yellow" />
<rect x="450" y="200" width="30" height="40" fill="pink" />
<rect x="0" y="240" width="30" height="40" fill="green" />
<rect x="30" y="240" width="30" height="40" fill="yellow" />
<rect x="60" y="240" width="30" height="40" fill="pink" />
<rect x="90" y="240" width="30" height="40" fill="green" />
<rect x="120" y="240" width="30" height="40" fill="yellow" />
<rect x="150" y="240" width="30" height="40" fill="pink" />
<rect x="180" y="240" width="30" height="40" fill="green" />
<rect x="210" y="240" width="30" height="40" fill="yellow" />
<rect x="240" y="240" width="30" height="40" fill="pink" />
<rect x="270" y="240" width="30" height="40" fill="green" />
<rect x="300" y="240" width="30" height="40" fill="yellow" />
<rect x="330" y="240" width="30" height="40" fill="pink" />
<rect x="360" y="240" width="30" height="40" fill="green" />
<rect x="390" y="240" width="30" height="40" fill="yellow" />
<rect x="420" y="240" width="30" height="40" fill="pink" />
<rect x="450" y="240" width="30" height="40" fill="green" />
<rect x="0" y="280" width="30" height="40" fill="yellow" />
<rect x="30" y="280" width="30" height="40" fill="pink" />
<rect x="60" y="280" width="30" height="40" fill="green" />
<rect x="90" y="280" width="30" height="40" fill="yellow" />
<rect x="120" y="280" width="30" height="40" fill="pink" />
<rect x="150" y="280" width="30" height="40" fill="green" />
<rect x="180" y="280" width="30" height="40" fill="yellow" />
<rect x="210" y="280" width="30" height="40" fill="pink" />
<rect x="240" y="280" width="30" height="40" fill="green" />
<rect x="270" y="280" width="30" height="40" fill="yellow" />
<rect x="300" y="280" width="30" height="40" fill="pink" />
<rect x="330" y="280" width="30" height="40" fill="green" />
<rect x="360" y="280" width="30" height="40" fill="yellow" />
<rect x="390" y="280" width="30" height="40" fill="pink" />
<rect x="420" y="280" width="30" height="40" fill="green" />
<rect x="450" y="280" width="30" height="40" fill="yellow" />
<rect x="0" y="320" width="30" height="40" fill="pink" />
<rect x="30" y="320" width="30" height="40" fill="green" />
<rect x="60" y="320" width="30" height="40" fill="yellow" />
<rect x="90" y="320" width="30" height="40" fill="pink" />
<rect x="120" y="320" width="30" height="40" fill="green" />
<rect x="150" y="320" width="30" height="40" fill="yellow" />
<rect x="180" y="320" width="30" height="40" fill="pink" />
<rect x="210" y="320" width="30" height="40" fill="green" />
<rect x="240" y="320" width="30" height="40" fill="yellow" />
<rect x="270" y="320" width="30" height="40" fill="pink" />
<rect x="300" y="320" width="30" height="40" fill="green" />
<rect x="330" y="320" width="30" height="40" fill="yellow" />
<rect x="360" y="320" width="30" height="40" fill="pink" />
<rect x="390" y="320" width="30" height="40" fill="green" />
<rect x="420" y="320" width="30" height="40" fill="yellow" />
<rect x="450" y="320" width="30" height="40" fill="pink" />
<rect x="0" y="360" width="30" height="40" fill="green" />
<rect x="30" y="360" width="30" height="40" fill="yellow" />
<rect x="60" y="360" width="30" height="40" fill="pink" />
<rect x="90" y="360" width="30" height="40" fill="green" />
<rect x="120" y="360" width="30" height="40" fill="yellow" />
<rect x="150" y="360" width="30" height="40" fill="pink" />
<rect x="180" y="360" width="30" height="40" fill="green" />
<rect x="210" y="360" width="30" height="40" fill="yellow" />
<rect x="240" y="360" width="30" height="40" fill="pink" />
<rect x="270" y="360" width="30" height="40" fill="green" />
<rect x="300" y="360" width="30" height="40" fill="yellow" />
<rect x="330" y="360" width="30" height="40" fill="pink" />
<rect x="360" y="360" width="30" height="40" fill="green" />
<rect x="390" y="360" width="30" height="40" fill="yellow" />
<rect x="420" y="360" width="30" height="40" fill="pink" />
<rect x="450" y="360" width="30" height="40" fill="green" />

</svg>