<svg xmlns="http://www.w3.org/2000/svg"> <polygon points="250 0 0 433.013 500 433.013 " fill="red"/>
	<polygon points="10 433.013 50 433.013 30 398.372" fill="green"/>
	<polygon points="30 398.372 70 398.372 50 433.013" fill="yellow"/>
	<polygon points="50 433.013 90 433.013 70 398.372" fill="green"/>
	<polygon points="70 398.372 110 398.372 90 433.013" fill="yellow"/>
	<polygon points="90 433.013 130 433.013 110 398.372" fill="green"/>
	<polygon points="110 398.372 150 398.372 130 433.013" fill="yellow"/>
	<polygon points="130 433.013 170 433.013 150 398.372" fill="green"/>
	<polygon points="150 398.372 190 398.372 170 433.013" fill="yellow"/>
	<polygon points="170 433.013 210 433.013 190 398.372" fill="green"/>
	<polygon points="190 398.372 230 398.372 210 433.013" fill="yellow"/>
	<polygon points="210 433.013 250 433.013 230 398.372" fill="green"/>
	<polygon points="230 398.372 270 398.372 250 433.013" fill="yellow"/>
	<polygon points="250 433.013 290 433.013 270 398.372" fill="green"/>
	<polygon points="270 398.372 310 398.372 290 433.013" fill="yellow"/>
	<polygon points="290 433.013 330 433.013 310 398.372" fill="green"/>
	<polygon points="310 398.372 350 398.372 330 433.013" fill="yellow"/>
	<polygon points="330 433.013 370 433.013 350 398.372" fill="green"/>
	<polygon points="350 398.372 390 398.372 370 433.013" fill="yellow"/>
	<polygon points="370 433.013 410 433.013 390 398.372" fill="green"/>
	<polygon points="390 398.372 430 398.372 410 433.013" fill="yellow"/>
	<polygon points="410 433.013 450 433.013 430 398.372" fill="green"/>
	<polygon points="430 398.372 470 398.372 450 433.013" fill="yellow"/>
	<polygon points="450 433.013 490 433.013 470 398.372" fill="green"/>
	<polygon points="30 398.372 70 398.372 50 363.731" fill="green"/>
	<polygon points="50 363.731 90 363.731 70 398.372" fill="yellow"/>
	<polygon points="70 398.372 110 398.372 90 363.731" fill="green"/>
	<polygon points="90 363.731 130 363.731 110 398.372" fill="yellow"/>
	<polygon points="110 398.372 150 398.372 130 363.731" fill="green"/>
	<polygon points="130 363.731 170 363.731 150 398.372" fill="yellow"/>
	<polygon points="150 398.372 190 398.372 170 363.731" fill="green"/>
	<polygon points="170 363.731 210 363.731 190 398.372" fill="yellow"/>
	<polygon points="190 398.372 230 398.372 210 363.731" fill="green"/>
	<polygon points="210 363.731 250 363.731 230 398.372" fill="yellow"/>
	<polygon points="230 398.372 270 398.372 250 363.731" fill="green"/>
	<polygon points="250 363.731 290 363.731 270 398.372" fill="yellow"/>
	<polygon points="270 398.372 310 398.372 290 363.731" fill="green"/>
	<polygon points="290 363.731 330 363.731 310 398.372" fill="yellow"/>
	<polygon points="310 398.372 350 398.372 330 363.731" fill="green"/>
	<polygon points="330 363.731 370 363.731 350 398.372" fill="yellow"/>
	<polygon points="350 398.372 390 398.372 370 363.731" fill="green"/>
	<polygon points="370 363.731 410 363.731 390 398.372" fill="yellow"/>
	<polygon points="390 398.372 430 398.372 410 363.731" fill="green"/>
	<polygon points="410 363.731 450 363.731 430 398.372" fill="yellow"/>
	<polygon points="430 398.372 470 398.372 450 363.731" fill="green"/>
	<polygon points="50 363.731 90 363.731 70 329.09" fill="green"/>
	<polygon points="70 329.09 110 329.09 90 363.731" fill="yellow"/>
	<polygon points="90 363.731 130 363.731 110 329.09" fill="green"/>
	<polygon points="110 329.09 150 329.09 130 363.731" fill="yellow"/>
	<polygon points="130 363.731 170 363.731 150 329.09" fill="green"/>
	<polygon points="150 329.09 190 329.09 170 363.731" fill="yellow"/>
	<polygon points="170 363.731 210 363.731 190 329.09" fill="green"/>
	<polygon points="190 329.09 230 329.09 210 363.731" fill="yellow"/>
	<polygon points="210 363.731 250 363.731 230 329.09" fill="green"/>
	<polygon points="230 329.09 270 329.09 250 363.731" fill="yellow"/>
	<polygon points="250 363.731 290 363.731 270 329.09" fill="green"/>
	<polygon points="270 329.09 310 329.09 290 363.731" fill="yellow"/>
	<polygon points="290 363.731 330 363.731 310 329.09" fill="green"/>
	<polygon points="310 329.09 350 329.09 330 363.731" fill="yellow"/>
	<polygon points="330 363.731 370 363.731 350 329.09" fill="green"/>
	<polygon points="350 329.09 390 329.09 370 363.731" fill="yellow"/>
	<polygon points="370 363.731 410 363.731 390 329.09" fill="green"/>
	<polygon points="390 329.09 430 329.09 410 363.731" fill="yellow"/>
	<polygon points="410 363.731 450 363.731 430 329.09" fill="green"/>
	<polygon points="70 329.09 110 329.09 90 294.449" fill="green"/>
	<polygon points="90 294.449 130 294.449 110 329.09" fill="yellow"/>
	<polygon points="110 329.09 150 329.09 130 294.449" fill="green"/>
	<polygon points="130 294.449 170 294.449 150 329.09" fill="yellow"/>
	<polygon points="150 329.09 190 329.09 170 294.449" fill="green"/>
	<polygon points="170 294.449 210 294.449 190 329.09" fill="yellow"/>
	<polygon points="190 329.09 230 329.09 210 294.449" fill="green"/>
	<polygon points="210 294.449 250 294.449 230 329.09" fill="yellow"/>
	<polygon points="230 329.09 270 329.09 250 294.449" fill="green"/>
	<polygon points="250 294.449 290 294.449 270 329.09" fill="yellow"/>
	<polygon points="270 329.09 310 329.09 290 294.449" fill="green"/>
	<polygon points="290 294.449 330 294.449 310 329.09" fill="yellow"/>
	<polygon points="310 329.09 350 329.09 330 294.449" fill="green"/>
	<polygon points="330 294.449 370 294.449 350 329.09" fill="yellow"/>
	<polygon points="350 329.09 390 329.09 370 294.449" fill="green"/>
	<polygon points="370 294.449 410 294.449 390 329.09" fill="yellow"/>
	<polygon points="390 329.09 430 329.09 410 294.449" fill="green"/>
	<polygon points="90 294.449 130 294.449 110 259.808" fill="green"/>
	<polygon points="110 259.808 150 259.808 130 294.449" fill="yellow"/>
	<polygon points="130 294.449 170 294.449 150 259.808" fill="green"/>
	<polygon points="150 259.808 190 259.808 170 294.449" fill="yellow"/>
	<polygon points="170 294.449 210 294.449 190 259.808" fill="green"/>
	<polygon points="190 259.808 230 259.808 210 294.449" fill="yellow"/>
	<polygon points="210 294.449 250 294.449 230 259.808" fill="green"/>
	<polygon points="230 259.808 270 259.808 250 294.449" fill="yellow"/>
	<polygon points="250 294.449 290 294.449 270 259.808" fill="green"/>
	<polygon points="270 259.808 310 259.808 290 294.449" fill="yellow"/>
	<polygon points="290 294.449 330 294.449 310 259.808" fill="green"/>
	<polygon points="310 259.808 350 259.808 330 294.449" fill="yellow"/>
	<polygon points="330 294.449 370 294.449 350 259.808" fill="green"/>
	<polygon points="350 259.808 390 259.808 370 294.449" fill="yellow"/>
	<polygon points="370 294.449 410 294.449 390 259.808" fill="green"/>
	<polygon points="110 259.808 150 259.808 130 225.167" fill="green"/>
	<polygon points="130 225.167 170 225.167 150 259.808" fill="yellow"/>
	<polygon points="150 259.808 190 259.808 170 225.167" fill="green"/>
	<polygon points="170 225.167 210 225.167 190 259.808" fill="yellow"/>
	<polygon points="190 259.808 230 259.808 210 225.167" fill="green"/>
	<polygon points="210 225.167 250 225.167 230 259.808" fill="yellow"/>
	<polygon points="230 259.808 270 259.808 250 225.167" fill="green"/>
	<polygon points="250 225.167 290 225.167 270 259.808" fill="yellow"/>
	<polygon points="270 259.808 310 259.808 290 225.167" fill="green"/>
	<polygon points="290 225.167 330 225.167 310 259.808" fill="yellow"/>
	<polygon points="310 259.808 350 259.808 330 225.167" fill="green"/>
	<polygon points="330 225.167 370 225.167 350 259.808" fill="yellow"/>
	<polygon points="350 259.808 390 259.808 370 225.167" fill="green"/>
	<polygon points="130 225.167 170 225.167 150 190.526" fill="green"/>
	<polygon points="150 190.526 190 190.526 170 225.167" fill="yellow"/>
	<polygon points="170 225.167 210 225.167 190 190.526" fill="green"/>
	<polygon points="190 190.526 230 190.526 210 225.167" fill="yellow"/>
	<polygon points="210 225.167 250 225.167 230 190.526" fill="green"/>
	<polygon points="230 190.526 270 190.526 250 225.167" fill="yellow"/>
	<polygon points="250 225.167 290 225.167 270 190.526" fill="green"/>
	<polygon points="270 190.526 310 190.526 290 225.167" fill="yellow"/>
	<polygon points="290 225.167 330 225.167 310 190.526" fill="green"/>
	<polygon points="310 190.526 350 190.526 330 225.167" fill="yellow"/>
	<polygon points="330 225.167 370 225.167 350 190.526" fill="green"/>
	<polygon points="150 190.526 190 190.526 170 155.885" fill="green"/>
	<polygon points="170 155.885 210 155.885 190 190.526" fill="yellow"/>
	<polygon points="190 190.526 230 190.526 210 155.885" fill="green"/>
	<polygon points="210 155.885 250 155.885 230 190.526" fill="yellow"/>
	<polygon points="230 190.526 270 190.526 250 155.885" fill="green"/>
	<polygon points="250 155.885 290 155.885 270 190.526" fill="yellow"/>
	<polygon points="270 190.526 310 190.526 290 155.885" fill="green"/>
	<polygon points="290 155.885 330 155.885 310 190.526" fill="yellow"/>
	<polygon points="310 190.526 350 190.526 330 155.885" fill="green"/>
	<polygon points="170 155.885 210 155.885 190 121.244" fill="green"/>
	<polygon points="190 121.244 230 121.244 210 155.885" fill="yellow"/>
	<polygon points="210 155.885 250 155.885 230 121.244" fill="green"/>
	<polygon points="230 121.244 270 121.244 250 155.885" fill="yellow"/>
	<polygon points="250 155.885 290 155.885 270 121.244" fill="green"/>
	<polygon points="270 121.244 310 121.244 290 155.885" fill="yellow"/>
	<polygon points="290 155.885 330 155.885 310 121.244" fill="green"/>
	<polygon points="190 121.244 230 121.244 210 86.6025" fill="green"/>
	<polygon points="210 86.6025 250 86.6025 230 121.244" fill="yellow"/>
	<polygon points="230 121.244 270 121.244 250 86.6025" fill="green"/>
	<polygon points="250 86.6025 290 86.6025 270 121.244" fill="yellow"/>
	<polygon points="270 121.244 310 121.244 290 86.6025" fill="green"/>
	<polygon points="210 86.6025 250 86.6025 230 51.9615" fill="green"/>
	<polygon points="230 51.9615 270 51.9615 250 86.6025" fill="yellow"/>
	<polygon points="250 86.6025 290 86.6025 270 51.9615" fill="green"/>
	<polygon points="230 51.9615 270 51.9615 250 17.3205" fill="green"/>

</svg>