<svg xmlns="http://www.w3.org/2000/svg"> <circle cx="350" cy="350" r="350" fill="red"/>
	<polygon points="313 698 373 698 343 646.038" fill="green"/>
	<polygon points="403 646.038 373 698 343 646.038" fill="blue"/>
	<polygon points="164 646.038 224 646.038 194 594.077" fill="green"/>
	<polygon points="254 594.077 224 646.038 194 594.077" fill="blue"/>
	<polygon points="224 646.038 284 646.038 254 594.077" fill="green"/>
	<polygon points="314 594.077 284 646.038 254 594.077" fill="blue"/>
	<polygon points="284 646.038 344 646.038 314 594.077" fill="green"/>
	<polygon points="374 594.077 344 646.038 314 594.077" fill="blue"/>
	<polygon points="344 646.038 404 646.038 374 594.077" fill="green"/>
	<polygon points="434 594.077 404 646.038 374 594.077" fill="blue"/>
	<polygon points="404 646.038 464 646.038 434 594.077" fill="green"/>
	<polygon points="494 594.077 464 646.038 434 594.077" fill="blue"/>
	<polygon points="464 646.038 524 646.038 494 594.077" fill="green"/>
	<polygon points="554 594.077 524 646.038 494 594.077" fill="blue"/>
	<polygon points="100 594.077 160 594.077 130 542.115" fill="green"/>
	<polygon points="190 542.115 160 594.077 130 542.115" fill="blue"/>
	<polygon points="160 594.077 220 594.077 190 542.115" fill="green"/>
	<polygon points="250 542.115 220 594.077 190 542.115" fill="blue"/>
	<polygon points="220 594.077 280 594.077 250 542.115" fill="green"/>
	<polygon points="310 542.115 280 594.077 250 542.115" fill="blue"/>
	<polygon points="280 594.077 340 594.077 310 542.115" fill="green"/>
	<polygon points="370 542.115 340 594.077 310 542.115" fill="blue"/>
	<polygon points="340 594.077 400 594.077 370 542.115" fill="green"/>
	<polygon points="430 542.115 400 594.077 370 542.115" fill="blue"/>
	<polygon points="400 594.077 460 594.077 430 542.115" fill="green"/>
	<polygon points="490 542.115 460 594.077 430 542.115" fill="blue"/>
	<polygon points="460 594.077 520 594.077 490 542.115" fill="green"/>
	<polygon points="550 542.115 520 594.077 490 542.115" fill="blue"/>
	<polygon points="520 594.077 580 594.077 550 542.115" fill="green"/>
	<polygon points="610 542.115 580 594.077 550 542.115" fill="blue"/>
	<polygon points="58 542.115 118 542.115 88 490.154" fill="green"/>
	<polygon points="148 490.154 118 542.115 88 490.154" fill="blue"/>
	<polygon points="118 542.115 178 542.115 148 490.154" fill="green"/>
	<polygon points="208 490.154 178 542.115 148 490.154" fill="blue"/>
	<polygon points="178 542.115 238 542.115 208 490.154" fill="green"/>
	<polygon points="268 490.154 238 542.115 208 490.154" fill="blue"/>
	<polygon points="238 542.115 298 542.115 268 490.154" fill="green"/>
	<polygon points="328 490.154 298 542.115 268 490.154" fill="blue"/>
	<polygon points="298 542.115 358 542.115 328 490.154" fill="green"/>
	<polygon points="388 490.154 358 542.115 328 490.154" fill="blue"/>
	<polygon points="358 542.115 418 542.115 388 490.154" fill="green"/>
	<polygon points="448 490.154 418 542.115 388 490.154" fill="blue"/>
	<polygon points="418 542.115 478 542.115 448 490.154" fill="green"/>
	<polygon points="508 490.154 478 542.115 448 490.154" fill="blue"/>
	<polygon points="478 542.115 538 542.115 508 490.154" fill="green"/>
	<polygon points="568 490.154 538 542.115 508 490.154" fill="blue"/>
	<polygon points="538 542.115 598 542.115 568 490.154" fill="green"/>
	<polygon points="628 490.154 598 542.115 568 490.154" fill="blue"/>
	<polygon points="30 490.154 90 490.154 60 438.192" fill="green"/>
	<polygon points="120 438.192 90 490.154 60 438.192" fill="blue"/>
	<polygon points="90 490.154 150 490.154 120 438.192" fill="green"/>
	<polygon points="180 438.192 150 490.154 120 438.192" fill="blue"/>
	<polygon points="150 490.154 210 490.154 180 438.192" fill="green"/>
	<polygon points="240 438.192 210 490.154 180 438.192" fill="blue"/>
	<polygon points="210 490.154 270 490.154 240 438.192" fill="green"/>
	<polygon points="300 438.192 270 490.154 240 438.192" fill="blue"/>
	<polygon points="270 490.154 330 490.154 300 438.192" fill="green"/>
	<polygon points="360 438.192 330 490.154 300 438.192" fill="blue"/>
	<polygon points="330 490.154 390 490.154 360 438.192" fill="green"/>
	<polygon points="420 438.192 390 490.154 360 438.192" fill="blue"/>
	<polygon points="390 490.154 450 490.154 420 438.192" fill="green"/>
	<polygon points="480 438.192 450 490.154 420 438.192" fill="blue"/>
	<polygon points="450 490.154 510 490.154 480 438.192" fill="green"/>
	<polygon points="540 438.192 510 490.154 480 438.192" fill="blue"/>
	<polygon points="510 490.154 570 490.154 540 438.192" fill="green"/>
	<polygon points="600 438.192 570 490.154 540 438.192" fill="blue"/>
	<polygon points="570 490.154 630 490.154 600 438.192" fill="green"/>
	<polygon points="660 438.192 630 490.154 600 438.192" fill="blue"/>
	<polygon points="12 438.192 72 438.192 42 386.231" fill="green"/>
	<polygon points="102 386.231 72 438.192 42 386.231" fill="blue"/>
	<polygon points="72 438.192 132 438.192 102 386.231" fill="green"/>
	<polygon points="162 386.231 132 438.192 102 386.231" fill="blue"/>
	<polygon points="132 438.192 192 438.192 162 386.231" fill="green"/>
	<polygon points="222 386.231 192 438.192 162 386.231" fill="blue"/>
	<polygon points="192 438.192 252 438.192 222 386.231" fill="green"/>
	<polygon points="282 386.231 252 438.192 222 386.231" fill="blue"/>
	<polygon points="252 438.192 312 438.192 282 386.231" fill="green"/>
	<polygon points="342 386.231 312 438.192 282 386.231" fill="blue"/>
	<polygon points="312 438.192 372 438.192 342 386.231" fill="green"/>
	<polygon points="402 386.231 372 438.192 342 386.231" fill="blue"/>
	<polygon points="372 438.192 432 438.192 402 386.231" fill="green"/>
	<polygon points="462 386.231 432 438.192 402 386.231" fill="blue"/>
	<polygon points="432 438.192 492 438.192 462 386.231" fill="green"/>
	<polygon points="522 386.231 492 438.192 462 386.231" fill="blue"/>
	<polygon points="492 438.192 552 438.192 522 386.231" fill="green"/>
	<polygon points="582 386.231 552 438.192 522 386.231" fill="blue"/>
	<polygon points="552 438.192 612 438.192 582 386.231" fill="green"/>
	<polygon points="642 386.231 612 438.192 582 386.231" fill="blue"/>
	<polygon points="612 438.192 672 438.192 642 386.231" fill="green"/>
	<polygon points="2 386.231 62 386.231 32 334.269" fill="green"/>
	<polygon points="92 334.269 62 386.231 32 334.269" fill="blue"/>
	<polygon points="62 386.231 122 386.231 92 334.269" fill="green"/>
	<polygon points="152 334.269 122 386.231 92 334.269" fill="blue"/>
	<polygon points="122 386.231 182 386.231 152 334.269" fill="green"/>
	<polygon points="212 334.269 182 386.231 152 334.269" fill="blue"/>
	<polygon points="182 386.231 242 386.231 212 334.269" fill="green"/>
	<polygon points="272 334.269 242 386.231 212 334.269" fill="blue"/>
	<polygon points="242 386.231 302 386.231 272 334.269" fill="green"/>
	<polygon points="332 334.269 302 386.231 272 334.269" fill="blue"/>
	<polygon points="302 386.231 362 386.231 332 334.269" fill="green"/>
	<polygon points="392 334.269 362 386.231 332 334.269" fill="blue"/>
	<polygon points="362 386.231 422 386.231 392 334.269" fill="green"/>
	<polygon points="452 334.269 422 386.231 392 334.269" fill="blue"/>
	<polygon points="422 386.231 482 386.231 452 334.269" fill="green"/>
	<polygon points="512 334.269 482 386.231 452 334.269" fill="blue"/>
	<polygon points="482 386.231 542 386.231 512 334.269" fill="green"/>
	<polygon points="572 334.269 542 386.231 512 334.269" fill="blue"/>
	<polygon points="542 386.231 602 386.231 572 334.269" fill="green"/>
	<polygon points="632 334.269 602 386.231 572 334.269" fill="blue"/>
	<polygon points="602 386.231 662 386.231 632 334.269" fill="green"/>
	<polygon points="692 334.269 662 386.231 632 334.269" fill="blue"/>
	<polygon points="1 334.269 61 334.269 31 282.308" fill="green"/>
	<polygon points="91 282.308 61 334.269 31 282.308" fill="blue"/>
	<polygon points="61 334.269 121 334.269 91 282.308" fill="green"/>
	<polygon points="151 282.308 121 334.269 91 282.308" fill="blue"/>
	<polygon points="121 334.269 181 334.269 151 282.308" fill="green"/>
	<polygon points="211 282.308 181 334.269 151 282.308" fill="blue"/>
	<polygon points="181 334.269 241 334.269 211 282.308" fill="green"/>
	<polygon points="271 282.308 241 334.269 211 282.308" fill="blue"/>
	<polygon points="241 334.269 301 334.269 271 282.308" fill="green"/>
	<polygon points="331 282.308 301 334.269 271 282.308" fill="blue"/>
	<polygon points="301 334.269 361 334.269 331 282.308" fill="green"/>
	<polygon points="391 282.308 361 334.269 331 282.308" fill="blue"/>
	<polygon points="361 334.269 421 334.269 391 282.308" fill="green"/>
	<polygon points="451 282.308 421 334.269 391 282.308" fill="blue"/>
	<polygon points="421 334.269 481 334.269 451 282.308" fill="green"/>
	<polygon points="511 282.308 481 334.269 451 282.308" fill="blue"/>
	<polygon points="481 334.269 541 334.269 511 282.308" fill="green"/>
	<polygon points="571 282.308 541 334.269 511 282.308" fill="blue"/>
	<polygon points="541 334.269 601 334.269 571 282.308" fill="green"/>
	<polygon points="631 282.308 601 334.269 571 282.308" fill="blue"/>
	<polygon points="601 334.269 661 334.269 631 282.308" fill="green"/>
	<polygon points="691 282.308 661 334.269 631 282.308" fill="blue"/>
	<polygon points="7 282.308 67 282.308 37 230.346" fill="green"/>
	<polygon points="97 230.346 67 282.308 37 230.346" fill="blue"/>
	<polygon points="67 282.308 127 282.308 97 230.346" fill="green"/>
	<polygon points="157 230.346 127 282.308 97 230.346" fill="blue"/>
	<polygon points="127 282.308 187 282.308 157 230.346" fill="green"/>
	<polygon points="217 230.346 187 282.308 157 230.346" fill="blue"/>
	<polygon points="187 282.308 247 282.308 217 230.346" fill="green"/>
	<polygon points="277 230.346 247 282.308 217 230.346" fill="blue"/>
	<polygon points="247 282.308 307 282.308 277 230.346" fill="green"/>
	<polygon points="337 230.346 307 282.308 277 230.346" fill="blue"/>
	<polygon points="307 282.308 367 282.308 337 230.346" fill="green"/>
	<polygon points="397 230.346 367 282.308 337 230.346" fill="blue"/>
	<polygon points="367 282.308 427 282.308 397 230.346" fill="green"/>
	<polygon points="457 230.346 427 282.308 397 230.346" fill="blue"/>
	<polygon points="427 282.308 487 282.308 457 230.346" fill="green"/>
	<polygon points="517 230.346 487 282.308 457 230.346" fill="blue"/>
	<polygon points="487 282.308 547 282.308 517 230.346" fill="green"/>
	<polygon points="577 230.346 547 282.308 517 230.346" fill="blue"/>
	<polygon points="547 282.308 607 282.308 577 230.346" fill="green"/>
	<polygon points="637 230.346 607 282.308 577 230.346" fill="blue"/>
	<polygon points="607 282.308 667 282.308 637 230.346" fill="green"/>
	<polygon points="22 230.346 82 230.346 52 178.385" fill="green"/>
	<polygon points="112 178.385 82 230.346 52 178.385" fill="blue"/>
	<polygon points="82 230.346 142 230.346 112 178.385" fill="green"/>
	<polygon points="172 178.385 142 230.346 112 178.385" fill="blue"/>
	<polygon points="142 230.346 202 230.346 172 178.385" fill="green"/>
	<polygon points="232 178.385 202 230.346 172 178.385" fill="blue"/>
	<polygon points="202 230.346 262 230.346 232 178.385" fill="green"/>
	<polygon points="292 178.385 262 230.346 232 178.385" fill="blue"/>
	<polygon points="262 230.346 322 230.346 292 178.385" fill="green"/>
	<polygon points="352 178.385 322 230.346 292 178.385" fill="blue"/>
	<polygon points="322 230.346 382 230.346 352 178.385" fill="green"/>
	<polygon points="412 178.385 382 230.346 352 178.385" fill="blue"/>
	<polygon points="382 230.346 442 230.346 412 178.385" fill="green"/>
	<polygon points="472 178.385 442 230.346 412 178.385" fill="blue"/>
	<polygon points="442 230.346 502 230.346 472 178.385" fill="green"/>
	<polygon points="532 178.385 502 230.346 472 178.385" fill="blue"/>
	<polygon points="502 230.346 562 230.346 532 178.385" fill="green"/>
	<polygon points="592 178.385 562 230.346 532 178.385" fill="blue"/>
	<polygon points="562 230.346 622 230.346 592 178.385" fill="green"/>
	<polygon points="652 178.385 622 230.346 592 178.385" fill="blue"/>
	<polygon points="51 178.385 111 178.385 81 126.423" fill="green"/>
	<polygon points="141 126.423 111 178.385 81 126.423" fill="blue"/>
	<polygon points="111 178.385 171 178.385 141 126.423" fill="green"/>
	<polygon points="201 126.423 171 178.385 141 126.423" fill="blue"/>
	<polygon points="171 178.385 231 178.385 201 126.423" fill="green"/>
	<polygon points="261 126.423 231 178.385 201 126.423" fill="blue"/>
	<polygon points="231 178.385 291 178.385 261 126.423" fill="green"/>
	<polygon points="321 126.423 291 178.385 261 126.423" fill="blue"/>
	<polygon points="291 178.385 351 178.385 321 126.423" fill="green"/>
	<polygon points="381 126.423 351 178.385 321 126.423" fill="blue"/>
	<polygon points="351 178.385 411 178.385 381 126.423" fill="green"/>
	<polygon points="441 126.423 411 178.385 381 126.423" fill="blue"/>
	<polygon points="411 178.385 471 178.385 441 126.423" fill="green"/>
	<polygon points="501 126.423 471 178.385 441 126.423" fill="blue"/>
	<polygon points="471 178.385 531 178.385 501 126.423" fill="green"/>
	<polygon points="561 126.423 531 178.385 501 126.423" fill="blue"/>
	<polygon points="531 178.385 591 178.385 561 126.423" fill="green"/>
	<polygon points="105 126.423 165 126.423 135 74.4617" fill="green"/>
	<polygon points="195 74.4617 165 126.423 135 74.4617" fill="blue"/>
	<polygon points="165 126.423 225 126.423 195 74.4617" fill="green"/>
	<polygon points="255 74.4617 225 126.423 195 74.4617" fill="blue"/>
	<polygon points="225 126.423 285 126.423 255 74.4617" fill="green"/>
	<polygon points="315 74.4617 285 126.423 255 74.4617" fill="blue"/>
	<polygon points="285 126.423 345 126.423 315 74.4617" fill="green"/>
	<polygon points="375 74.4617 345 126.423 315 74.4617" fill="blue"/>
	<polygon points="345 126.423 405 126.423 375 74.4617" fill="green"/>
	<polygon points="435 74.4617 405 126.423 375 74.4617" fill="blue"/>
	<polygon points="405 126.423 465 126.423 435 74.4617" fill="green"/>
	<polygon points="495 74.4617 465 126.423 435 74.4617" fill="blue"/>
	<polygon points="465 126.423 525 126.423 495 74.4617" fill="green"/>
	<polygon points="555 74.4617 525 126.423 495 74.4617" fill="blue"/>
	<polygon points="525 126.423 585 126.423 555 74.4617" fill="green"/>
	<polygon points="197 74.4617 257 74.4617 227 22.5002" fill="green"/>
	<polygon points="287 22.5002 257 74.4617 227 22.5002" fill="blue"/>
	<polygon points="257 74.4617 317 74.4617 287 22.5002" fill="green"/>
	<polygon points="347 22.5002 317 74.4617 287 22.5002" fill="blue"/>
	<polygon points="317 74.4617 377 74.4617 347 22.5002" fill="green"/>
	<polygon points="407 22.5002 377 74.4617 347 22.5002" fill="blue"/>
	<polygon points="377 74.4617 437 74.4617 407 22.5002" fill="green"/>
	<polygon points="467 22.5002 437 74.4617 407 22.5002" fill="blue"/>
	<polygon points="437 74.4617 497 74.4617 467 22.5002" fill="green"/>

</svg>