<svg xmlns="http://www.w3.org/2000/svg"> 
<circle cx="400" cy="400" r="350" fill="red"/>

<polygon points="363 748 423 748 393 696.038" fill="green"/>

<polygon points="453 696.038 423 748 393 696.038" fill="blue"/>

<polygon points="214 696.038 274 696.038 244 644.077" fill="green"/>

<polygon points="304 644.077 274 696.038 244 644.077" fill="blue"/>

<polygon points="274 696.038 334 696.038 304 644.077" fill="green"/>

<polygon points="364 644.077 334 696.038 304 644.077" fill="blue"/>

<polygon points="334 696.038 394 696.038 364 644.077" fill="green"/>

<polygon points="424 644.077 394 696.038 364 644.077" fill="blue"/>

<polygon points="394 696.038 454 696.038 424 644.077" fill="green"/>

<polygon points="484 644.077 454 696.038 424 644.077" fill="blue"/>

<polygon points="454 696.038 514 696.038 484 644.077" fill="green"/>

<polygon points="544 644.077 514 696.038 484 644.077" fill="blue"/>

<polygon points="514 696.038 574 696.038 544 644.077" fill="green"/>

<polygon points="604 644.077 574 696.038 544 644.077" fill="blue"/>

<polygon points="150 644.077 210 644.077 180 592.115" fill="green"/>

<polygon points="240 592.115 210 644.077 180 592.115" fill="blue"/>

<polygon points="210 644.077 270 644.077 240 592.115" fill="green"/>

<polygon points="300 592.115 270 644.077 240 592.115" fill="blue"/>

<polygon points="270 644.077 330 644.077 300 592.115" fill="green"/>

<polygon points="360 592.115 330 644.077 300 592.115" fill="blue"/>

<polygon points="330 644.077 390 644.077 360 592.115" fill="green"/>

<polygon points="420 592.115 390 644.077 360 592.115" fill="blue"/>

<polygon points="390 644.077 450 644.077 420 592.115" fill="green"/>

<polygon points="480 592.115 450 644.077 420 592.115" fill="blue"/>

<polygon points="450 644.077 510 644.077 480 592.115" fill="green"/>

<polygon points="540 592.115 510 644.077 480 592.115" fill="blue"/>

<polygon points="510 644.077 570 644.077 540 592.115" fill="green"/>

<polygon points="600 592.115 570 644.077 540 592.115" fill="blue"/>

<polygon points="570 644.077 630 644.077 600 592.115" fill="green"/>

<polygon points="660 592.115 630 644.077 600 592.115" fill="blue"/>

<polygon points="108 592.115 168 592.115 138 540.154" fill="green"/>

<polygon points="198 540.154 168 592.115 138 540.154" fill="blue"/>

<polygon points="168 592.115 228 592.115 198 540.154" fill="green"/>

<polygon points="258 540.154 228 592.115 198 540.154" fill="blue"/>

<polygon points="228 592.115 288 592.115 258 540.154" fill="green"/>

<polygon points="318 540.154 288 592.115 258 540.154" fill="blue"/>

<polygon points="288 592.115 348 592.115 318 540.154" fill="green"/>

<polygon points="378 540.154 348 592.115 318 540.154" fill="blue"/>

<polygon points="348 592.115 408 592.115 378 540.154" fill="green"/>

<polygon points="438 540.154 408 592.115 378 540.154" fill="blue"/>

<polygon points="408 592.115 468 592.115 438 540.154" fill="green"/>

<polygon points="498 540.154 468 592.115 438 540.154" fill="blue"/>

<polygon points="468 592.115 528 592.115 498 540.154" fill="green"/>

<polygon points="558 540.154 528 592.115 498 540.154" fill="blue"/>

<polygon points="528 592.115 588 592.115 558 540.154" fill="green"/>

<polygon points="618 540.154 588 592.115 558 540.154" fill="blue"/>

<polygon points="588 592.115 648 592.115 618 540.154" fill="green"/>

<polygon points="678 540.154 648 592.115 618 540.154" fill="blue"/>

<polygon points="80 540.154 140 540.154 110 488.192" fill="green"/>

<polygon points="170 488.192 140 540.154 110 488.192" fill="blue"/>

<polygon points="140 540.154 200 540.154 170 488.192" fill="green"/>

<polygon points="230 488.192 200 540.154 170 488.192" fill="blue"/>

<polygon points="200 540.154 260 540.154 230 488.192" fill="green"/>

<polygon points="290 488.192 260 540.154 230 488.192" fill="blue"/>

<polygon points="260 540.154 320 540.154 290 488.192" fill="green"/>

<polygon points="350 488.192 320 540.154 290 488.192" fill="blue"/>

<polygon points="320 540.154 380 540.154 350 488.192" fill="green"/>

<polygon points="410 488.192 380 540.154 350 488.192" fill="blue"/>

<polygon points="380 540.154 440 540.154 410 488.192" fill="green"/>

<polygon points="470 488.192 440 540.154 410 488.192" fill="blue"/>

<polygon points="440 540.154 500 540.154 470 488.192" fill="green"/>

<polygon points="530 488.192 500 540.154 470 488.192" fill="blue"/>

<polygon points="500 540.154 560 540.154 530 488.192" fill="green"/>

<polygon points="590 488.192 560 540.154 530 488.192" fill="blue"/>

<polygon points="560 540.154 620 540.154 590 488.192" fill="green"/>

<polygon points="650 488.192 620 540.154 590 488.192" fill="blue"/>

<polygon points="620 540.154 680 540.154 650 488.192" fill="green"/>

<polygon points="710 488.192 680 540.154 650 488.192" fill="blue"/>

<polygon points="62 488.192 122 488.192 92 436.231" fill="green"/>

<polygon points="152 436.231 122 488.192 92 436.231" fill="blue"/>

<polygon points="122 488.192 182 488.192 152 436.231" fill="green"/>

<polygon points="212 436.231 182 488.192 152 436.231" fill="blue"/>

<polygon points="182 488.192 242 488.192 212 436.231" fill="green"/>

<polygon points="272 436.231 242 488.192 212 436.231" fill="blue"/>

<polygon points="242 488.192 302 488.192 272 436.231" fill="green"/>

<polygon points="332 436.231 302 488.192 272 436.231" fill="blue"/>

<polygon points="302 488.192 362 488.192 332 436.231" fill="green"/>

<polygon points="392 436.231 362 488.192 332 436.231" fill="blue"/>

<polygon points="362 488.192 422 488.192 392 436.231" fill="green"/>

<polygon points="452 436.231 422 488.192 392 436.231" fill="blue"/>

<polygon points="422 488.192 482 488.192 452 436.231" fill="green"/>

<polygon points="512 436.231 482 488.192 452 436.231" fill="blue"/>

<polygon points="482 488.192 542 488.192 512 436.231" fill="green"/>

<polygon points="572 436.231 542 488.192 512 436.231" fill="blue"/>

<polygon points="542 488.192 602 488.192 572 436.231" fill="green"/>

<polygon points="632 436.231 602 488.192 572 436.231" fill="blue"/>

<polygon points="602 488.192 662 488.192 632 436.231" fill="green"/>

<polygon points="692 436.231 662 488.192 632 436.231" fill="blue"/>

<polygon points="662 488.192 722 488.192 692 436.231" fill="green"/>

<polygon points="52 436.231 112 436.231 82 384.269" fill="green"/>

<polygon points="142 384.269 112 436.231 82 384.269" fill="blue"/>

<polygon points="112 436.231 172 436.231 142 384.269" fill="green"/>

<polygon points="202 384.269 172 436.231 142 384.269" fill="blue"/>

<polygon points="172 436.231 232 436.231 202 384.269" fill="green"/>

<polygon points="262 384.269 232 436.231 202 384.269" fill="blue"/>

<polygon points="232 436.231 292 436.231 262 384.269" fill="green"/>

<polygon points="322 384.269 292 436.231 262 384.269" fill="blue"/>

<polygon points="292 436.231 352 436.231 322 384.269" fill="green"/>

<polygon points="382 384.269 352 436.231 322 384.269" fill="blue"/>

<polygon points="352 436.231 412 436.231 382 384.269" fill="green"/>

<polygon points="442 384.269 412 436.231 382 384.269" fill="blue"/>

<polygon points="412 436.231 472 436.231 442 384.269" fill="green"/>

<polygon points="502 384.269 472 436.231 442 384.269" fill="blue"/>

<polygon points="472 436.231 532 436.231 502 384.269" fill="green"/>

<polygon points="562 384.269 532 436.231 502 384.269" fill="blue"/>

<polygon points="532 436.231 592 436.231 562 384.269" fill="green"/>

<polygon points="622 384.269 592 436.231 562 384.269" fill="blue"/>

<polygon points="592 436.231 652 436.231 622 384.269" fill="green"/>

<polygon points="682 384.269 652 436.231 622 384.269" fill="blue"/>

<polygon points="652 436.231 712 436.231 682 384.269" fill="green"/>

<polygon points="742 384.269 712 436.231 682 384.269" fill="blue"/>

<polygon points="51 384.269 111 384.269 81 332.308" fill="green"/>

<polygon points="141 332.308 111 384.269 81 332.308" fill="blue"/>

<polygon points="111 384.269 171 384.269 141 332.308" fill="green"/>

<polygon points="201 332.308 171 384.269 141 332.308" fill="blue"/>

<polygon points="171 384.269 231 384.269 201 332.308" fill="green"/>

<polygon points="261 332.308 231 384.269 201 332.308" fill="blue"/>

<polygon points="231 384.269 291 384.269 261 332.308" fill="green"/>

<polygon points="321 332.308 291 384.269 261 332.308" fill="blue"/>

<polygon points="291 384.269 351 384.269 321 332.308" fill="green"/>

<polygon points="381 332.308 351 384.269 321 332.308" fill="blue"/>

<polygon points="351 384.269 411 384.269 381 332.308" fill="green"/>

<polygon points="441 332.308 411 384.269 381 332.308" fill="blue"/>

<polygon points="411 384.269 471 384.269 441 332.308" fill="green"/>

<polygon points="501 332.308 471 384.269 441 332.308" fill="blue"/>

<polygon points="471 384.269 531 384.269 501 332.308" fill="green"/>

<polygon points="561 332.308 531 384.269 501 332.308" fill="blue"/>

<polygon points="531 384.269 591 384.269 561 332.308" fill="green"/>

<polygon points="621 332.308 591 384.269 561 332.308" fill="blue"/>

<polygon points="591 384.269 651 384.269 621 332.308" fill="green"/>

<polygon points="681 332.308 651 384.269 621 332.308" fill="blue"/>

<polygon points="651 384.269 711 384.269 681 332.308" fill="green"/>

<polygon points="741 332.308 711 384.269 681 332.308" fill="blue"/>

<polygon points="57 332.308 117 332.308 87 280.346" fill="green"/>

<polygon points="147 280.346 117 332.308 87 280.346" fill="blue"/>

<polygon points="117 332.308 177 332.308 147 280.346" fill="green"/>

<polygon points="207 280.346 177 332.308 147 280.346" fill="blue"/>

<polygon points="177 332.308 237 332.308 207 280.346" fill="green"/>

<polygon points="267 280.346 237 332.308 207 280.346" fill="blue"/>

<polygon points="237 332.308 297 332.308 267 280.346" fill="green"/>

<polygon points="327 280.346 297 332.308 267 280.346" fill="blue"/>

<polygon points="297 332.308 357 332.308 327 280.346" fill="green"/>

<polygon points="387 280.346 357 332.308 327 280.346" fill="blue"/>

<polygon points="357 332.308 417 332.308 387 280.346" fill="green"/>

<polygon points="447 280.346 417 332.308 387 280.346" fill="blue"/>

<polygon points="417 332.308 477 332.308 447 280.346" fill="green"/>

<polygon points="507 280.346 477 332.308 447 280.346" fill="blue"/>

<polygon points="477 332.308 537 332.308 507 280.346" fill="green"/>

<polygon points="567 280.346 537 332.308 507 280.346" fill="blue"/>

<polygon points="537 332.308 597 332.308 567 280.346" fill="green"/>

<polygon points="627 280.346 597 332.308 567 280.346" fill="blue"/>

<polygon points="597 332.308 657 332.308 627 280.346" fill="green"/>

<polygon points="687 280.346 657 332.308 627 280.346" fill="blue"/>

<polygon points="657 332.308 717 332.308 687 280.346" fill="green"/>

<polygon points="72 280.346 132 280.346 102 228.385" fill="green"/>

<polygon points="162 228.385 132 280.346 102 228.385" fill="blue"/>

<polygon points="132 280.346 192 280.346 162 228.385" fill="green"/>

<polygon points="222 228.385 192 280.346 162 228.385" fill="blue"/>

<polygon points="192 280.346 252 280.346 222 228.385" fill="green"/>

<polygon points="282 228.385 252 280.346 222 228.385" fill="blue"/>

<polygon points="252 280.346 312 280.346 282 228.385" fill="green"/>

<polygon points="342 228.385 312 280.346 282 228.385" fill="blue"/>

<polygon points="312 280.346 372 280.346 342 228.385" fill="green"/>

<polygon points="402 228.385 372 280.346 342 228.385" fill="blue"/>

<polygon points="372 280.346 432 280.346 402 228.385" fill="green"/>

<polygon points="462 228.385 432 280.346 402 228.385" fill="blue"/>

<polygon points="432 280.346 492 280.346 462 228.385" fill="green"/>

<polygon points="522 228.385 492 280.346 462 228.385" fill="blue"/>

<polygon points="492 280.346 552 280.346 522 228.385" fill="green"/>

<polygon points="582 228.385 552 280.346 522 228.385" fill="blue"/>

<polygon points="552 280.346 612 280.346 582 228.385" fill="green"/>

<polygon points="642 228.385 612 280.346 582 228.385" fill="blue"/>

<polygon points="612 280.346 672 280.346 642 228.385" fill="green"/>

<polygon points="702 228.385 672 280.346 642 228.385" fill="blue"/>

<polygon points="101 228.385 161 228.385 131 176.423" fill="green"/>

<polygon points="191 176.423 161 228.385 131 176.423" fill="blue"/>

<polygon points="161 228.385 221 228.385 191 176.423" fill="green"/>

<polygon points="251 176.423 221 228.385 191 176.423" fill="blue"/>

<polygon points="221 228.385 281 228.385 251 176.423" fill="green"/>

<polygon points="311 176.423 281 228.385 251 176.423" fill="blue"/>

<polygon points="281 228.385 341 228.385 311 176.423" fill="green"/>

<polygon points="371 176.423 341 228.385 311 176.423" fill="blue"/>

<polygon points="341 228.385 401 228.385 371 176.423" fill="green"/>

<polygon points="431 176.423 401 228.385 371 176.423" fill="blue"/>

<polygon points="401 228.385 461 228.385 431 176.423" fill="green"/>

<polygon points="491 176.423 461 228.385 431 176.423" fill="blue"/>

<polygon points="461 228.385 521 228.385 491 176.423" fill="green"/>

<polygon points="551 176.423 521 228.385 491 176.423" fill="blue"/>

<polygon points="521 228.385 581 228.385 551 176.423" fill="green"/>

<polygon points="611 176.423 581 228.385 551 176.423" fill="blue"/>

<polygon points="581 228.385 641 228.385 611 176.423" fill="green"/>

<polygon points="155 176.423 215 176.423 185 124.462" fill="green"/>

<polygon points="245 124.462 215 176.423 185 124.462" fill="blue"/>

<polygon points="215 176.423 275 176.423 245 124.462" fill="green"/>

<polygon points="305 124.462 275 176.423 245 124.462" fill="blue"/>

<polygon points="275 176.423 335 176.423 305 124.462" fill="green"/>

<polygon points="365 124.462 335 176.423 305 124.462" fill="blue"/>

<polygon points="335 176.423 395 176.423 365 124.462" fill="green"/>

<polygon points="425 124.462 395 176.423 365 124.462" fill="blue"/>

<polygon points="395 176.423 455 176.423 425 124.462" fill="green"/>

<polygon points="485 124.462 455 176.423 425 124.462" fill="blue"/>

<polygon points="455 176.423 515 176.423 485 124.462" fill="green"/>

<polygon points="545 124.462 515 176.423 485 124.462" fill="blue"/>

<polygon points="515 176.423 575 176.423 545 124.462" fill="green"/>

<polygon points="605 124.462 575 176.423 545 124.462" fill="blue"/>

<polygon points="575 176.423 635 176.423 605 124.462" fill="green"/>

<polygon points="247 124.462 307 124.462 277 72.5002" fill="green"/>

<polygon points="337 72.5002 307 124.462 277 72.5002" fill="blue"/>

<polygon points="307 124.462 367 124.462 337 72.5002" fill="green"/>

<polygon points="397 72.5002 367 124.462 337 72.5002" fill="blue"/>

<polygon points="367 124.462 427 124.462 397 72.5002" fill="green"/>

<polygon points="457 72.5002 427 124.462 397 72.5002" fill="blue"/>

<polygon points="427 124.462 487 124.462 457 72.5002" fill="green"/>

<polygon points="517 72.5002 487 124.462 457 72.5002" fill="blue"/>

<polygon points="487 124.462 547 124.462 517 72.5002" fill="green"/>

 </svg>