<svg xmlns="http://www.w3.org/2000/svg"> 
	<polygon points=" 600 300  599.408 318.837  597.634 337.6  594.686 356.214  590.575 374.607  585.317 392.705  578.933 410.437  571.448 427.734  562.892 444.526  553.298 460.748  542.705 476.336  531.154 491.227  518.691 505.364  505.364 518.691  491.227 531.154  476.336 542.705  460.748 553.298  444.526 562.892  427.734 571.448  410.437 578.933  392.705 585.317  374.607 590.575  356.214 594.686  337.6 597.634  318.837 599.408  300 600  281.163 599.408  262.4 597.634  243.786 594.686  225.393 590.575  207.295 585.317  189.563 578.933  172.266 571.448  155.474 562.892  139.252 553.298  123.664 542.705  108.773 531.154  94.6359 518.691  81.3094 505.364  68.846 491.227  57.2949 476.336  46.7016 460.748  37.108 444.526  28.5519 427.734  21.0671 410.437  14.683 392.705  9.42505 374.607  5.31382 356.214  2.36559 337.6  0.591982 318.837  0 300  0.591981 281.163  2.36559 262.4  5.31382 243.786  9.42505 225.393  14.683 207.295  21.0671 189.563  28.5519 172.266  37.108 155.474  46.7016 139.252  57.2949 123.664  68.846 108.773  81.3094 94.6359  94.6359 81.3094  108.773 68.846  123.664 57.2949  139.252 46.7016  155.474 37.108  172.266 28.5519  189.563 21.0671  207.295 14.683  225.393 9.42505  243.786 5.31383  262.4 2.36559  281.163 0.591982  300 0  318.837 0.591981  337.6 2.36559  356.214 5.31382  374.607 9.42505  392.705 14.683  410.437 21.0671  427.734 28.5519  444.526 37.108  460.748 46.7016  476.336 57.2949  491.227 68.846  505.364 81.3094  518.691 94.6359  531.154 108.773  542.705 123.664  553.298 139.252  562.892 155.474  571.448 172.266  578.933 189.563  585.317 207.295  590.575 225.393  594.686 243.786  597.634 262.4  599.408 281.163 " fill="blue" stroke="red" stroke-width="0.1" />
 </svg>