<svg xmlns="http://www.w3.org/2000/svg"> 
	<polygon points=" 740 395  739.319 416.663  737.28 438.24  733.889 459.647  729.161 480.798  723.114 501.611  715.773 522.003  707.165 541.894  697.326 561.205  686.293 579.86  674.111 597.786  660.827 614.911  646.494 631.169  631.169 646.494  614.911 660.827  597.786 674.111  579.86 686.293  561.205 697.326  541.894 707.165  522.003 715.773  501.611 723.114  480.798 729.161  459.647 733.889  438.24 737.28  416.663 739.319  395 740  373.337 739.319  351.76 737.28  330.353 733.889  309.202 729.161  288.389 723.114  267.997 715.773  248.106 707.165  228.795 697.326  210.14 686.293  192.214 674.111  175.089 660.827  158.831 646.494  143.506 631.169  129.173 614.911  115.889 597.786  103.707 579.86  92.6742 561.205  82.8347 541.894  74.2271 522.003  66.8855 501.611  60.8388 480.798  56.1109 459.647  52.7204 438.24  50.6808 416.663  50 395  50.6808 373.337  52.7204 351.76  56.1109 330.353  60.8388 309.202  66.8855 288.389  74.2271 267.997  82.8347 248.106  92.6742 228.795  103.707 210.14  115.889 192.214  129.173 175.089  143.506 158.831  158.831 143.506  175.089 129.173  192.214 115.889  210.14 103.707  228.795 92.6742  248.106 82.8347  267.997 74.2271  288.389 66.8855  309.202 60.8388  330.353 56.1109  351.76 52.7204  373.337 50.6808  395 50  416.663 50.6808  438.24 52.7204  459.647 56.1109  480.798 60.8388  501.611 66.8855  522.003 74.2271  541.894 82.8347  561.205 92.6742  579.86 103.707  597.786 115.889  614.911 129.173  631.169 143.506  646.494 158.831  660.827 175.089  674.111 192.214  686.293 210.14  697.326 228.795  707.165 248.106  715.773 267.997  723.114 288.389  729.161 309.202  733.889 330.353  737.28 351.76  739.319 373.337 " fill="red" stroke="red" stroke-width="0.1" />
 </svg>