<svg xmlns="http://www.w3.org/2000/svg"> 
<polygon points="300 0 0 519.615 600 519.615" fill="red"/>

<circle cx="44" cy="499.615" r="20" fill="green"/>

<circle cx="85" cy="499.615" r="20" fill="green"/>

<circle cx="126" cy="499.615" r="20" fill="green"/>

<circle cx="167" cy="499.615" r="20" fill="green"/>

<circle cx="208" cy="499.615" r="20" fill="green"/>

<circle cx="249" cy="499.615" r="20" fill="green"/>

<circle cx="290" cy="499.615" r="20" fill="green"/>

<circle cx="331" cy="499.615" r="20" fill="green"/>

<circle cx="372" cy="499.615" r="20" fill="green"/>

<circle cx="413" cy="499.615" r="20" fill="green"/>

<circle cx="454" cy="499.615" r="20" fill="green"/>

<circle cx="495" cy="499.615" r="20" fill="green"/>

<circle cx="536" cy="499.615" r="20" fill="green"/>

<circle cx="67" cy="459.615" r="20" fill="green"/>

<circle cx="108" cy="459.615" r="20" fill="green"/>

<circle cx="149" cy="459.615" r="20" fill="green"/>

<circle cx="190" cy="459.615" r="20" fill="green"/>

<circle cx="231" cy="459.615" r="20" fill="green"/>

<circle cx="272" cy="459.615" r="20" fill="green"/>

<circle cx="313" cy="459.615" r="20" fill="green"/>

<circle cx="354" cy="459.615" r="20" fill="green"/>

<circle cx="395" cy="459.615" r="20" fill="green"/>

<circle cx="436" cy="459.615" r="20" fill="green"/>

<circle cx="477" cy="459.615" r="20" fill="green"/>

<circle cx="518" cy="459.615" r="20" fill="green"/>

<circle cx="90" cy="419.615" r="20" fill="green"/>

<circle cx="131" cy="419.615" r="20" fill="green"/>

<circle cx="172" cy="419.615" r="20" fill="green"/>

<circle cx="213" cy="419.615" r="20" fill="green"/>

<circle cx="254" cy="419.615" r="20" fill="green"/>

<circle cx="295" cy="419.615" r="20" fill="green"/>

<circle cx="336" cy="419.615" r="20" fill="green"/>

<circle cx="377" cy="419.615" r="20" fill="green"/>

<circle cx="418" cy="419.615" r="20" fill="green"/>

<circle cx="459" cy="419.615" r="20" fill="green"/>

<circle cx="500" cy="419.615" r="20" fill="green"/>

<circle cx="113" cy="379.615" r="20" fill="green"/>

<circle cx="154" cy="379.615" r="20" fill="green"/>

<circle cx="195" cy="379.615" r="20" fill="green"/>

<circle cx="236" cy="379.615" r="20" fill="green"/>

<circle cx="277" cy="379.615" r="20" fill="green"/>

<circle cx="318" cy="379.615" r="20" fill="green"/>

<circle cx="359" cy="379.615" r="20" fill="green"/>

<circle cx="400" cy="379.615" r="20" fill="green"/>

<circle cx="441" cy="379.615" r="20" fill="green"/>

<circle cx="482" cy="379.615" r="20" fill="green"/>

<circle cx="136" cy="339.615" r="20" fill="green"/>

<circle cx="177" cy="339.615" r="20" fill="green"/>

<circle cx="218" cy="339.615" r="20" fill="green"/>

<circle cx="259" cy="339.615" r="20" fill="green"/>

<circle cx="300" cy="339.615" r="20" fill="green"/>

<circle cx="341" cy="339.615" r="20" fill="green"/>

<circle cx="382" cy="339.615" r="20" fill="green"/>

<circle cx="423" cy="339.615" r="20" fill="green"/>

<circle cx="464" cy="339.615" r="20" fill="green"/>

<circle cx="159" cy="299.615" r="20" fill="green"/>

<circle cx="200" cy="299.615" r="20" fill="green"/>

<circle cx="241" cy="299.615" r="20" fill="green"/>

<circle cx="282" cy="299.615" r="20" fill="green"/>

<circle cx="323" cy="299.615" r="20" fill="green"/>

<circle cx="364" cy="299.615" r="20" fill="green"/>

<circle cx="405" cy="299.615" r="20" fill="green"/>

<circle cx="182" cy="259.615" r="20" fill="green"/>

<circle cx="223" cy="259.615" r="20" fill="green"/>

<circle cx="264" cy="259.615" r="20" fill="green"/>

<circle cx="305" cy="259.615" r="20" fill="green"/>

<circle cx="346" cy="259.615" r="20" fill="green"/>

<circle cx="387" cy="259.615" r="20" fill="green"/>

<circle cx="205" cy="219.615" r="20" fill="green"/>

<circle cx="246" cy="219.615" r="20" fill="green"/>

<circle cx="287" cy="219.615" r="20" fill="green"/>

<circle cx="328" cy="219.615" r="20" fill="green"/>

<circle cx="369" cy="219.615" r="20" fill="green"/>

<circle cx="228" cy="179.615" r="20" fill="green"/>

<circle cx="269" cy="179.615" r="20" fill="green"/>

<circle cx="310" cy="179.615" r="20" fill="green"/>

<circle cx="351" cy="179.615" r="20" fill="green"/>

<circle cx="251" cy="139.615" r="20" fill="green"/>

<circle cx="292" cy="139.615" r="20" fill="green"/>

<circle cx="333" cy="139.615" r="20" fill="green"/>

<circle cx="275" cy="99.6152" r="20" fill="green"/>

<circle cx="316" cy="99.6152" r="20" fill="green"/>

<circle cx="298" cy="59.6152" r="20" fill="green"/>

 </svg>