<svg xmlns="http://www.w3.org/2000/svg"> 
<polygon points="250 0 0 433.013 500 433.013" fill="red"/>

<polygon points="0 433.013 20 433.013 10 415.692" fill="green"/>

<polygon points="10 415.692 30 415.692 20 433.013" fill="yellow"/>

<polygon points="20 433.013 40 433.013 30 415.692" fill="green"/>

<polygon points="30 415.692 50 415.692 40 433.013" fill="yellow"/>

<polygon points="40 433.013 60 433.013 50 415.692" fill="green"/>

<polygon points="50 415.692 70 415.692 60 433.013" fill="yellow"/>

<polygon points="60 433.013 80 433.013 70 415.692" fill="green"/>

<polygon points="70 415.692 90 415.692 80 433.013" fill="yellow"/>

<polygon points="80 433.013 100 433.013 90 415.692" fill="green"/>

<polygon points="90 415.692 110 415.692 100 433.013" fill="yellow"/>

<polygon points="100 433.013 120 433.013 110 415.692" fill="green"/>

<polygon points="110 415.692 130 415.692 120 433.013" fill="yellow"/>

<polygon points="120 433.013 140 433.013 130 415.692" fill="green"/>

<polygon points="130 415.692 150 415.692 140 433.013" fill="yellow"/>

<polygon points="140 433.013 160 433.013 150 415.692" fill="green"/>

<polygon points="150 415.692 170 415.692 160 433.013" fill="yellow"/>

<polygon points="160 433.013 180 433.013 170 415.692" fill="green"/>

<polygon points="170 415.692 190 415.692 180 433.013" fill="yellow"/>

<polygon points="180 433.013 200 433.013 190 415.692" fill="green"/>

<polygon points="190 415.692 210 415.692 200 433.013" fill="yellow"/>

<polygon points="200 433.013 220 433.013 210 415.692" fill="green"/>

<polygon points="210 415.692 230 415.692 220 433.013" fill="yellow"/>

<polygon points="220 433.013 240 433.013 230 415.692" fill="green"/>

<polygon points="230 415.692 250 415.692 240 433.013" fill="yellow"/>

<polygon points="240 433.013 260 433.013 250 415.692" fill="green"/>

<polygon points="250 415.692 270 415.692 260 433.013" fill="yellow"/>

<polygon points="260 433.013 280 433.013 270 415.692" fill="green"/>

<polygon points="270 415.692 290 415.692 280 433.013" fill="yellow"/>

<polygon points="280 433.013 300 433.013 290 415.692" fill="green"/>

<polygon points="290 415.692 310 415.692 300 433.013" fill="yellow"/>

<polygon points="300 433.013 320 433.013 310 415.692" fill="green"/>

<polygon points="310 415.692 330 415.692 320 433.013" fill="yellow"/>

<polygon points="320 433.013 340 433.013 330 415.692" fill="green"/>

<polygon points="330 415.692 350 415.692 340 433.013" fill="yellow"/>

<polygon points="340 433.013 360 433.013 350 415.692" fill="green"/>

<polygon points="350 415.692 370 415.692 360 433.013" fill="yellow"/>

<polygon points="360 433.013 380 433.013 370 415.692" fill="green"/>

<polygon points="370 415.692 390 415.692 380 433.013" fill="yellow"/>

<polygon points="380 433.013 400 433.013 390 415.692" fill="green"/>

<polygon points="390 415.692 410 415.692 400 433.013" fill="yellow"/>

<polygon points="400 433.013 420 433.013 410 415.692" fill="green"/>

<polygon points="410 415.692 430 415.692 420 433.013" fill="yellow"/>

<polygon points="420 433.013 440 433.013 430 415.692" fill="green"/>

<polygon points="430 415.692 450 415.692 440 433.013" fill="yellow"/>

<polygon points="440 433.013 460 433.013 450 415.692" fill="green"/>

<polygon points="450 415.692 470 415.692 460 433.013" fill="yellow"/>

<polygon points="460 433.013 480 433.013 470 415.692" fill="green"/>

<polygon points="470 415.692 490 415.692 480 433.013" fill="yellow"/>

<polygon points="480 433.013 500 433.013 490 415.692" fill="green"/>

<polygon points="10 415.692 30 415.692 20 398.372" fill="green"/>

<polygon points="20 398.372 40 398.372 30 415.692" fill="yellow"/>

<polygon points="30 415.692 50 415.692 40 398.372" fill="green"/>

<polygon points="40 398.372 60 398.372 50 415.692" fill="yellow"/>

<polygon points="50 415.692 70 415.692 60 398.372" fill="green"/>

<polygon points="60 398.372 80 398.372 70 415.692" fill="yellow"/>

<polygon points="70 415.692 90 415.692 80 398.372" fill="green"/>

<polygon points="80 398.372 100 398.372 90 415.692" fill="yellow"/>

<polygon points="90 415.692 110 415.692 100 398.372" fill="green"/>

<polygon points="100 398.372 120 398.372 110 415.692" fill="yellow"/>

<polygon points="110 415.692 130 415.692 120 398.372" fill="green"/>

<polygon points="120 398.372 140 398.372 130 415.692" fill="yellow"/>

<polygon points="130 415.692 150 415.692 140 398.372" fill="green"/>

<polygon points="140 398.372 160 398.372 150 415.692" fill="yellow"/>

<polygon points="150 415.692 170 415.692 160 398.372" fill="green"/>

<polygon points="160 398.372 180 398.372 170 415.692" fill="yellow"/>

<polygon points="170 415.692 190 415.692 180 398.372" fill="green"/>

<polygon points="180 398.372 200 398.372 190 415.692" fill="yellow"/>

<polygon points="190 415.692 210 415.692 200 398.372" fill="green"/>

<polygon points="200 398.372 220 398.372 210 415.692" fill="yellow"/>

<polygon points="210 415.692 230 415.692 220 398.372" fill="green"/>

<polygon points="220 398.372 240 398.372 230 415.692" fill="yellow"/>

<polygon points="230 415.692 250 415.692 240 398.372" fill="green"/>

<polygon points="240 398.372 260 398.372 250 415.692" fill="yellow"/>

<polygon points="250 415.692 270 415.692 260 398.372" fill="green"/>

<polygon points="260 398.372 280 398.372 270 415.692" fill="yellow"/>

<polygon points="270 415.692 290 415.692 280 398.372" fill="green"/>

<polygon points="280 398.372 300 398.372 290 415.692" fill="yellow"/>

<polygon points="290 415.692 310 415.692 300 398.372" fill="green"/>

<polygon points="300 398.372 320 398.372 310 415.692" fill="yellow"/>

<polygon points="310 415.692 330 415.692 320 398.372" fill="green"/>

<polygon points="320 398.372 340 398.372 330 415.692" fill="yellow"/>

<polygon points="330 415.692 350 415.692 340 398.372" fill="green"/>

<polygon points="340 398.372 360 398.372 350 415.692" fill="yellow"/>

<polygon points="350 415.692 370 415.692 360 398.372" fill="green"/>

<polygon points="360 398.372 380 398.372 370 415.692" fill="yellow"/>

<polygon points="370 415.692 390 415.692 380 398.372" fill="green"/>

<polygon points="380 398.372 400 398.372 390 415.692" fill="yellow"/>

<polygon points="390 415.692 410 415.692 400 398.372" fill="green"/>

<polygon points="400 398.372 420 398.372 410 415.692" fill="yellow"/>

<polygon points="410 415.692 430 415.692 420 398.372" fill="green"/>

<polygon points="420 398.372 440 398.372 430 415.692" fill="yellow"/>

<polygon points="430 415.692 450 415.692 440 398.372" fill="green"/>

<polygon points="440 398.372 460 398.372 450 415.692" fill="yellow"/>

<polygon points="450 415.692 470 415.692 460 398.372" fill="green"/>

<polygon points="460 398.372 480 398.372 470 415.692" fill="yellow"/>

<polygon points="470 415.692 490 415.692 480 398.372" fill="green"/>

<polygon points="20 398.372 40 398.372 30 381.051" fill="green"/>

<polygon points="30 381.051 50 381.051 40 398.372" fill="yellow"/>

<polygon points="40 398.372 60 398.372 50 381.051" fill="green"/>

<polygon points="50 381.051 70 381.051 60 398.372" fill="yellow"/>

<polygon points="60 398.372 80 398.372 70 381.051" fill="green"/>

<polygon points="70 381.051 90 381.051 80 398.372" fill="yellow"/>

<polygon points="80 398.372 100 398.372 90 381.051" fill="green"/>

<polygon points="90 381.051 110 381.051 100 398.372" fill="yellow"/>

<polygon points="100 398.372 120 398.372 110 381.051" fill="green"/>

<polygon points="110 381.051 130 381.051 120 398.372" fill="yellow"/>

<polygon points="120 398.372 140 398.372 130 381.051" fill="green"/>

<polygon points="130 381.051 150 381.051 140 398.372" fill="yellow"/>

<polygon points="140 398.372 160 398.372 150 381.051" fill="green"/>

<polygon points="150 381.051 170 381.051 160 398.372" fill="yellow"/>

<polygon points="160 398.372 180 398.372 170 381.051" fill="green"/>

<polygon points="170 381.051 190 381.051 180 398.372" fill="yellow"/>

<polygon points="180 398.372 200 398.372 190 381.051" fill="green"/>

<polygon points="190 381.051 210 381.051 200 398.372" fill="yellow"/>

<polygon points="200 398.372 220 398.372 210 381.051" fill="green"/>

<polygon points="210 381.051 230 381.051 220 398.372" fill="yellow"/>

<polygon points="220 398.372 240 398.372 230 381.051" fill="green"/>

<polygon points="230 381.051 250 381.051 240 398.372" fill="yellow"/>

<polygon points="240 398.372 260 398.372 250 381.051" fill="green"/>

<polygon points="250 381.051 270 381.051 260 398.372" fill="yellow"/>

<polygon points="260 398.372 280 398.372 270 381.051" fill="green"/>

<polygon points="270 381.051 290 381.051 280 398.372" fill="yellow"/>

<polygon points="280 398.372 300 398.372 290 381.051" fill="green"/>

<polygon points="290 381.051 310 381.051 300 398.372" fill="yellow"/>

<polygon points="300 398.372 320 398.372 310 381.051" fill="green"/>

<polygon points="310 381.051 330 381.051 320 398.372" fill="yellow"/>

<polygon points="320 398.372 340 398.372 330 381.051" fill="green"/>

<polygon points="330 381.051 350 381.051 340 398.372" fill="yellow"/>

<polygon points="340 398.372 360 398.372 350 381.051" fill="green"/>

<polygon points="350 381.051 370 381.051 360 398.372" fill="yellow"/>

<polygon points="360 398.372 380 398.372 370 381.051" fill="green"/>

<polygon points="370 381.051 390 381.051 380 398.372" fill="yellow"/>

<polygon points="380 398.372 400 398.372 390 381.051" fill="green"/>

<polygon points="390 381.051 410 381.051 400 398.372" fill="yellow"/>

<polygon points="400 398.372 420 398.372 410 381.051" fill="green"/>

<polygon points="410 381.051 430 381.051 420 398.372" fill="yellow"/>

<polygon points="420 398.372 440 398.372 430 381.051" fill="green"/>

<polygon points="430 381.051 450 381.051 440 398.372" fill="yellow"/>

<polygon points="440 398.372 460 398.372 450 381.051" fill="green"/>

<polygon points="450 381.051 470 381.051 460 398.372" fill="yellow"/>

<polygon points="460 398.372 480 398.372 470 381.051" fill="green"/>

<polygon points="30 381.051 50 381.051 40 363.731" fill="green"/>

<polygon points="40 363.731 60 363.731 50 381.051" fill="yellow"/>

<polygon points="50 381.051 70 381.051 60 363.731" fill="green"/>

<polygon points="60 363.731 80 363.731 70 381.051" fill="yellow"/>

<polygon points="70 381.051 90 381.051 80 363.731" fill="green"/>

<polygon points="80 363.731 100 363.731 90 381.051" fill="yellow"/>

<polygon points="90 381.051 110 381.051 100 363.731" fill="green"/>

<polygon points="100 363.731 120 363.731 110 381.051" fill="yellow"/>

<polygon points="110 381.051 130 381.051 120 363.731" fill="green"/>

<polygon points="120 363.731 140 363.731 130 381.051" fill="yellow"/>

<polygon points="130 381.051 150 381.051 140 363.731" fill="green"/>

<polygon points="140 363.731 160 363.731 150 381.051" fill="yellow"/>

<polygon points="150 381.051 170 381.051 160 363.731" fill="green"/>

<polygon points="160 363.731 180 363.731 170 381.051" fill="yellow"/>

<polygon points="170 381.051 190 381.051 180 363.731" fill="green"/>

<polygon points="180 363.731 200 363.731 190 381.051" fill="yellow"/>

<polygon points="190 381.051 210 381.051 200 363.731" fill="green"/>

<polygon points="200 363.731 220 363.731 210 381.051" fill="yellow"/>

<polygon points="210 381.051 230 381.051 220 363.731" fill="green"/>

<polygon points="220 363.731 240 363.731 230 381.051" fill="yellow"/>

<polygon points="230 381.051 250 381.051 240 363.731" fill="green"/>

<polygon points="240 363.731 260 363.731 250 381.051" fill="yellow"/>

<polygon points="250 381.051 270 381.051 260 363.731" fill="green"/>

<polygon points="260 363.731 280 363.731 270 381.051" fill="yellow"/>

<polygon points="270 381.051 290 381.051 280 363.731" fill="green"/>

<polygon points="280 363.731 300 363.731 290 381.051" fill="yellow"/>

<polygon points="290 381.051 310 381.051 300 363.731" fill="green"/>

<polygon points="300 363.731 320 363.731 310 381.051" fill="yellow"/>

<polygon points="310 381.051 330 381.051 320 363.731" fill="green"/>

<polygon points="320 363.731 340 363.731 330 381.051" fill="yellow"/>

<polygon points="330 381.051 350 381.051 340 363.731" fill="green"/>

<polygon points="340 363.731 360 363.731 350 381.051" fill="yellow"/>

<polygon points="350 381.051 370 381.051 360 363.731" fill="green"/>

<polygon points="360 363.731 380 363.731 370 381.051" fill="yellow"/>

<polygon points="370 381.051 390 381.051 380 363.731" fill="green"/>

<polygon points="380 363.731 400 363.731 390 381.051" fill="yellow"/>

<polygon points="390 381.051 410 381.051 400 363.731" fill="green"/>

<polygon points="400 363.731 420 363.731 410 381.051" fill="yellow"/>

<polygon points="410 381.051 430 381.051 420 363.731" fill="green"/>

<polygon points="420 363.731 440 363.731 430 381.051" fill="yellow"/>

<polygon points="430 381.051 450 381.051 440 363.731" fill="green"/>

<polygon points="440 363.731 460 363.731 450 381.051" fill="yellow"/>

<polygon points="450 381.051 470 381.051 460 363.731" fill="green"/>

<polygon points="40 363.731 60 363.731 50 346.41" fill="green"/>

<polygon points="50 346.41 70 346.41 60 363.731" fill="yellow"/>

<polygon points="60 363.731 80 363.731 70 346.41" fill="green"/>

<polygon points="70 346.41 90 346.41 80 363.731" fill="yellow"/>

<polygon points="80 363.731 100 363.731 90 346.41" fill="green"/>

<polygon points="90 346.41 110 346.41 100 363.731" fill="yellow"/>

<polygon points="100 363.731 120 363.731 110 346.41" fill="green"/>

<polygon points="110 346.41 130 346.41 120 363.731" fill="yellow"/>

<polygon points="120 363.731 140 363.731 130 346.41" fill="green"/>

<polygon points="130 346.41 150 346.41 140 363.731" fill="yellow"/>

<polygon points="140 363.731 160 363.731 150 346.41" fill="green"/>

<polygon points="150 346.41 170 346.41 160 363.731" fill="yellow"/>

<polygon points="160 363.731 180 363.731 170 346.41" fill="green"/>

<polygon points="170 346.41 190 346.41 180 363.731" fill="yellow"/>

<polygon points="180 363.731 200 363.731 190 346.41" fill="green"/>

<polygon points="190 346.41 210 346.41 200 363.731" fill="yellow"/>

<polygon points="200 363.731 220 363.731 210 346.41" fill="green"/>

<polygon points="210 346.41 230 346.41 220 363.731" fill="yellow"/>

<polygon points="220 363.731 240 363.731 230 346.41" fill="green"/>

<polygon points="230 346.41 250 346.41 240 363.731" fill="yellow"/>

<polygon points="240 363.731 260 363.731 250 346.41" fill="green"/>

<polygon points="250 346.41 270 346.41 260 363.731" fill="yellow"/>

<polygon points="260 363.731 280 363.731 270 346.41" fill="green"/>

<polygon points="270 346.41 290 346.41 280 363.731" fill="yellow"/>

<polygon points="280 363.731 300 363.731 290 346.41" fill="green"/>

<polygon points="290 346.41 310 346.41 300 363.731" fill="yellow"/>

<polygon points="300 363.731 320 363.731 310 346.41" fill="green"/>

<polygon points="310 346.41 330 346.41 320 363.731" fill="yellow"/>

<polygon points="320 363.731 340 363.731 330 346.41" fill="green"/>

<polygon points="330 346.41 350 346.41 340 363.731" fill="yellow"/>

<polygon points="340 363.731 360 363.731 350 346.41" fill="green"/>

<polygon points="350 346.41 370 346.41 360 363.731" fill="yellow"/>

<polygon points="360 363.731 380 363.731 370 346.41" fill="green"/>

<polygon points="370 346.41 390 346.41 380 363.731" fill="yellow"/>

<polygon points="380 363.731 400 363.731 390 346.41" fill="green"/>

<polygon points="390 346.41 410 346.41 400 363.731" fill="yellow"/>

<polygon points="400 363.731 420 363.731 410 346.41" fill="green"/>

<polygon points="410 346.41 430 346.41 420 363.731" fill="yellow"/>

<polygon points="420 363.731 440 363.731 430 346.41" fill="green"/>

<polygon points="430 346.41 450 346.41 440 363.731" fill="yellow"/>

<polygon points="440 363.731 460 363.731 450 346.41" fill="green"/>

<polygon points="50 346.41 70 346.41 60 329.09" fill="green"/>

<polygon points="60 329.09 80 329.09 70 346.41" fill="yellow"/>

<polygon points="70 346.41 90 346.41 80 329.09" fill="green"/>

<polygon points="80 329.09 100 329.09 90 346.41" fill="yellow"/>

<polygon points="90 346.41 110 346.41 100 329.09" fill="green"/>

<polygon points="100 329.09 120 329.09 110 346.41" fill="yellow"/>

<polygon points="110 346.41 130 346.41 120 329.09" fill="green"/>

<polygon points="120 329.09 140 329.09 130 346.41" fill="yellow"/>

<polygon points="130 346.41 150 346.41 140 329.09" fill="green"/>

<polygon points="140 329.09 160 329.09 150 346.41" fill="yellow"/>

<polygon points="150 346.41 170 346.41 160 329.09" fill="green"/>

<polygon points="160 329.09 180 329.09 170 346.41" fill="yellow"/>

<polygon points="170 346.41 190 346.41 180 329.09" fill="green"/>

<polygon points="180 329.09 200 329.09 190 346.41" fill="yellow"/>

<polygon points="190 346.41 210 346.41 200 329.09" fill="green"/>

<polygon points="200 329.09 220 329.09 210 346.41" fill="yellow"/>

<polygon points="210 346.41 230 346.41 220 329.09" fill="green"/>

<polygon points="220 329.09 240 329.09 230 346.41" fill="yellow"/>

<polygon points="230 346.41 250 346.41 240 329.09" fill="green"/>

<polygon points="240 329.09 260 329.09 250 346.41" fill="yellow"/>

<polygon points="250 346.41 270 346.41 260 329.09" fill="green"/>

<polygon points="260 329.09 280 329.09 270 346.41" fill="yellow"/>

<polygon points="270 346.41 290 346.41 280 329.09" fill="green"/>

<polygon points="280 329.09 300 329.09 290 346.41" fill="yellow"/>

<polygon points="290 346.41 310 346.41 300 329.09" fill="green"/>

<polygon points="300 329.09 320 329.09 310 346.41" fill="yellow"/>

<polygon points="310 346.41 330 346.41 320 329.09" fill="green"/>

<polygon points="320 329.09 340 329.09 330 346.41" fill="yellow"/>

<polygon points="330 346.41 350 346.41 340 329.09" fill="green"/>

<polygon points="340 329.09 360 329.09 350 346.41" fill="yellow"/>

<polygon points="350 346.41 370 346.41 360 329.09" fill="green"/>

<polygon points="360 329.09 380 329.09 370 346.41" fill="yellow"/>

<polygon points="370 346.41 390 346.41 380 329.09" fill="green"/>

<polygon points="380 329.09 400 329.09 390 346.41" fill="yellow"/>

<polygon points="390 346.41 410 346.41 400 329.09" fill="green"/>

<polygon points="400 329.09 420 329.09 410 346.41" fill="yellow"/>

<polygon points="410 346.41 430 346.41 420 329.09" fill="green"/>

<polygon points="420 329.09 440 329.09 430 346.41" fill="yellow"/>

<polygon points="430 346.41 450 346.41 440 329.09" fill="green"/>

<polygon points="60 329.09 80 329.09 70 311.769" fill="green"/>

<polygon points="70 311.769 90 311.769 80 329.09" fill="yellow"/>

<polygon points="80 329.09 100 329.09 90 311.769" fill="green"/>

<polygon points="90 311.769 110 311.769 100 329.09" fill="yellow"/>

<polygon points="100 329.09 120 329.09 110 311.769" fill="green"/>

<polygon points="110 311.769 130 311.769 120 329.09" fill="yellow"/>

<polygon points="120 329.09 140 329.09 130 311.769" fill="green"/>

<polygon points="130 311.769 150 311.769 140 329.09" fill="yellow"/>

<polygon points="140 329.09 160 329.09 150 311.769" fill="green"/>

<polygon points="150 311.769 170 311.769 160 329.09" fill="yellow"/>

<polygon points="160 329.09 180 329.09 170 311.769" fill="green"/>

<polygon points="170 311.769 190 311.769 180 329.09" fill="yellow"/>

<polygon points="180 329.09 200 329.09 190 311.769" fill="green"/>

<polygon points="190 311.769 210 311.769 200 329.09" fill="yellow"/>

<polygon points="200 329.09 220 329.09 210 311.769" fill="green"/>

<polygon points="210 311.769 230 311.769 220 329.09" fill="yellow"/>

<polygon points="220 329.09 240 329.09 230 311.769" fill="green"/>

<polygon points="230 311.769 250 311.769 240 329.09" fill="yellow"/>

<polygon points="240 329.09 260 329.09 250 311.769" fill="green"/>

<polygon points="250 311.769 270 311.769 260 329.09" fill="yellow"/>

<polygon points="260 329.09 280 329.09 270 311.769" fill="green"/>

<polygon points="270 311.769 290 311.769 280 329.09" fill="yellow"/>

<polygon points="280 329.09 300 329.09 290 311.769" fill="green"/>

<polygon points="290 311.769 310 311.769 300 329.09" fill="yellow"/>

<polygon points="300 329.09 320 329.09 310 311.769" fill="green"/>

<polygon points="310 311.769 330 311.769 320 329.09" fill="yellow"/>

<polygon points="320 329.09 340 329.09 330 311.769" fill="green"/>

<polygon points="330 311.769 350 311.769 340 329.09" fill="yellow"/>

<polygon points="340 329.09 360 329.09 350 311.769" fill="green"/>

<polygon points="350 311.769 370 311.769 360 329.09" fill="yellow"/>

<polygon points="360 329.09 380 329.09 370 311.769" fill="green"/>

<polygon points="370 311.769 390 311.769 380 329.09" fill="yellow"/>

<polygon points="380 329.09 400 329.09 390 311.769" fill="green"/>

<polygon points="390 311.769 410 311.769 400 329.09" fill="yellow"/>

<polygon points="400 329.09 420 329.09 410 311.769" fill="green"/>

<polygon points="410 311.769 430 311.769 420 329.09" fill="yellow"/>

<polygon points="420 329.09 440 329.09 430 311.769" fill="green"/>

<polygon points="70 311.769 90 311.769 80 294.449" fill="green"/>

<polygon points="80 294.449 100 294.449 90 311.769" fill="yellow"/>

<polygon points="90 311.769 110 311.769 100 294.449" fill="green"/>

<polygon points="100 294.449 120 294.449 110 311.769" fill="yellow"/>

<polygon points="110 311.769 130 311.769 120 294.449" fill="green"/>

<polygon points="120 294.449 140 294.449 130 311.769" fill="yellow"/>

<polygon points="130 311.769 150 311.769 140 294.449" fill="green"/>

<polygon points="140 294.449 160 294.449 150 311.769" fill="yellow"/>

<polygon points="150 311.769 170 311.769 160 294.449" fill="green"/>

<polygon points="160 294.449 180 294.449 170 311.769" fill="yellow"/>

<polygon points="170 311.769 190 311.769 180 294.449" fill="green"/>

<polygon points="180 294.449 200 294.449 190 311.769" fill="yellow"/>

<polygon points="190 311.769 210 311.769 200 294.449" fill="green"/>

<polygon points="200 294.449 220 294.449 210 311.769" fill="yellow"/>

<polygon points="210 311.769 230 311.769 220 294.449" fill="green"/>

<polygon points="220 294.449 240 294.449 230 311.769" fill="yellow"/>

<polygon points="230 311.769 250 311.769 240 294.449" fill="green"/>

<polygon points="240 294.449 260 294.449 250 311.769" fill="yellow"/>

<polygon points="250 311.769 270 311.769 260 294.449" fill="green"/>

<polygon points="260 294.449 280 294.449 270 311.769" fill="yellow"/>

<polygon points="270 311.769 290 311.769 280 294.449" fill="green"/>

<polygon points="280 294.449 300 294.449 290 311.769" fill="yellow"/>

<polygon points="290 311.769 310 311.769 300 294.449" fill="green"/>

<polygon points="300 294.449 320 294.449 310 311.769" fill="yellow"/>

<polygon points="310 311.769 330 311.769 320 294.449" fill="green"/>

<polygon points="320 294.449 340 294.449 330 311.769" fill="yellow"/>

<polygon points="330 311.769 350 311.769 340 294.449" fill="green"/>

<polygon points="340 294.449 360 294.449 350 311.769" fill="yellow"/>

<polygon points="350 311.769 370 311.769 360 294.449" fill="green"/>

<polygon points="360 294.449 380 294.449 370 311.769" fill="yellow"/>

<polygon points="370 311.769 390 311.769 380 294.449" fill="green"/>

<polygon points="380 294.449 400 294.449 390 311.769" fill="yellow"/>

<polygon points="390 311.769 410 311.769 400 294.449" fill="green"/>

<polygon points="400 294.449 420 294.449 410 311.769" fill="yellow"/>

<polygon points="410 311.769 430 311.769 420 294.449" fill="green"/>

<polygon points="80 294.449 100 294.449 90 277.128" fill="green"/>

<polygon points="90 277.128 110 277.128 100 294.449" fill="yellow"/>

<polygon points="100 294.449 120 294.449 110 277.128" fill="green"/>

<polygon points="110 277.128 130 277.128 120 294.449" fill="yellow"/>

<polygon points="120 294.449 140 294.449 130 277.128" fill="green"/>

<polygon points="130 277.128 150 277.128 140 294.449" fill="yellow"/>

<polygon points="140 294.449 160 294.449 150 277.128" fill="green"/>

<polygon points="150 277.128 170 277.128 160 294.449" fill="yellow"/>

<polygon points="160 294.449 180 294.449 170 277.128" fill="green"/>

<polygon points="170 277.128 190 277.128 180 294.449" fill="yellow"/>

<polygon points="180 294.449 200 294.449 190 277.128" fill="green"/>

<polygon points="190 277.128 210 277.128 200 294.449" fill="yellow"/>

<polygon points="200 294.449 220 294.449 210 277.128" fill="green"/>

<polygon points="210 277.128 230 277.128 220 294.449" fill="yellow"/>

<polygon points="220 294.449 240 294.449 230 277.128" fill="green"/>

<polygon points="230 277.128 250 277.128 240 294.449" fill="yellow"/>

<polygon points="240 294.449 260 294.449 250 277.128" fill="green"/>

<polygon points="250 277.128 270 277.128 260 294.449" fill="yellow"/>

<polygon points="260 294.449 280 294.449 270 277.128" fill="green"/>

<polygon points="270 277.128 290 277.128 280 294.449" fill="yellow"/>

<polygon points="280 294.449 300 294.449 290 277.128" fill="green"/>

<polygon points="290 277.128 310 277.128 300 294.449" fill="yellow"/>

<polygon points="300 294.449 320 294.449 310 277.128" fill="green"/>

<polygon points="310 277.128 330 277.128 320 294.449" fill="yellow"/>

<polygon points="320 294.449 340 294.449 330 277.128" fill="green"/>

<polygon points="330 277.128 350 277.128 340 294.449" fill="yellow"/>

<polygon points="340 294.449 360 294.449 350 277.128" fill="green"/>

<polygon points="350 277.128 370 277.128 360 294.449" fill="yellow"/>

<polygon points="360 294.449 380 294.449 370 277.128" fill="green"/>

<polygon points="370 277.128 390 277.128 380 294.449" fill="yellow"/>

<polygon points="380 294.449 400 294.449 390 277.128" fill="green"/>

<polygon points="390 277.128 410 277.128 400 294.449" fill="yellow"/>

<polygon points="400 294.449 420 294.449 410 277.128" fill="green"/>

<polygon points="90 277.128 110 277.128 100 259.808" fill="green"/>

<polygon points="100 259.808 120 259.808 110 277.128" fill="yellow"/>

<polygon points="110 277.128 130 277.128 120 259.808" fill="green"/>

<polygon points="120 259.808 140 259.808 130 277.128" fill="yellow"/>

<polygon points="130 277.128 150 277.128 140 259.808" fill="green"/>

<polygon points="140 259.808 160 259.808 150 277.128" fill="yellow"/>

<polygon points="150 277.128 170 277.128 160 259.808" fill="green"/>

<polygon points="160 259.808 180 259.808 170 277.128" fill="yellow"/>

<polygon points="170 277.128 190 277.128 180 259.808" fill="green"/>

<polygon points="180 259.808 200 259.808 190 277.128" fill="yellow"/>

<polygon points="190 277.128 210 277.128 200 259.808" fill="green"/>

<polygon points="200 259.808 220 259.808 210 277.128" fill="yellow"/>

<polygon points="210 277.128 230 277.128 220 259.808" fill="green"/>

<polygon points="220 259.808 240 259.808 230 277.128" fill="yellow"/>

<polygon points="230 277.128 250 277.128 240 259.808" fill="green"/>

<polygon points="240 259.808 260 259.808 250 277.128" fill="yellow"/>

<polygon points="250 277.128 270 277.128 260 259.808" fill="green"/>

<polygon points="260 259.808 280 259.808 270 277.128" fill="yellow"/>

<polygon points="270 277.128 290 277.128 280 259.808" fill="green"/>

<polygon points="280 259.808 300 259.808 290 277.128" fill="yellow"/>

<polygon points="290 277.128 310 277.128 300 259.808" fill="green"/>

<polygon points="300 259.808 320 259.808 310 277.128" fill="yellow"/>

<polygon points="310 277.128 330 277.128 320 259.808" fill="green"/>

<polygon points="320 259.808 340 259.808 330 277.128" fill="yellow"/>

<polygon points="330 277.128 350 277.128 340 259.808" fill="green"/>

<polygon points="340 259.808 360 259.808 350 277.128" fill="yellow"/>

<polygon points="350 277.128 370 277.128 360 259.808" fill="green"/>

<polygon points="360 259.808 380 259.808 370 277.128" fill="yellow"/>

<polygon points="370 277.128 390 277.128 380 259.808" fill="green"/>

<polygon points="380 259.808 400 259.808 390 277.128" fill="yellow"/>

<polygon points="390 277.128 410 277.128 400 259.808" fill="green"/>

<polygon points="100 259.808 120 259.808 110 242.487" fill="green"/>

<polygon points="110 242.487 130 242.487 120 259.808" fill="yellow"/>

<polygon points="120 259.808 140 259.808 130 242.487" fill="green"/>

<polygon points="130 242.487 150 242.487 140 259.808" fill="yellow"/>

<polygon points="140 259.808 160 259.808 150 242.487" fill="green"/>

<polygon points="150 242.487 170 242.487 160 259.808" fill="yellow"/>

<polygon points="160 259.808 180 259.808 170 242.487" fill="green"/>

<polygon points="170 242.487 190 242.487 180 259.808" fill="yellow"/>

<polygon points="180 259.808 200 259.808 190 242.487" fill="green"/>

<polygon points="190 242.487 210 242.487 200 259.808" fill="yellow"/>

<polygon points="200 259.808 220 259.808 210 242.487" fill="green"/>

<polygon points="210 242.487 230 242.487 220 259.808" fill="yellow"/>

<polygon points="220 259.808 240 259.808 230 242.487" fill="green"/>

<polygon points="230 242.487 250 242.487 240 259.808" fill="yellow"/>

<polygon points="240 259.808 260 259.808 250 242.487" fill="green"/>

<polygon points="250 242.487 270 242.487 260 259.808" fill="yellow"/>

<polygon points="260 259.808 280 259.808 270 242.487" fill="green"/>

<polygon points="270 242.487 290 242.487 280 259.808" fill="yellow"/>

<polygon points="280 259.808 300 259.808 290 242.487" fill="green"/>

<polygon points="290 242.487 310 242.487 300 259.808" fill="yellow"/>

<polygon points="300 259.808 320 259.808 310 242.487" fill="green"/>

<polygon points="310 242.487 330 242.487 320 259.808" fill="yellow"/>

<polygon points="320 259.808 340 259.808 330 242.487" fill="green"/>

<polygon points="330 242.487 350 242.487 340 259.808" fill="yellow"/>

<polygon points="340 259.808 360 259.808 350 242.487" fill="green"/>

<polygon points="350 242.487 370 242.487 360 259.808" fill="yellow"/>

<polygon points="360 259.808 380 259.808 370 242.487" fill="green"/>

<polygon points="370 242.487 390 242.487 380 259.808" fill="yellow"/>

<polygon points="380 259.808 400 259.808 390 242.487" fill="green"/>

<polygon points="110 242.487 130 242.487 120 225.167" fill="green"/>

<polygon points="120 225.167 140 225.167 130 242.487" fill="yellow"/>

<polygon points="130 242.487 150 242.487 140 225.167" fill="green"/>

<polygon points="140 225.167 160 225.167 150 242.487" fill="yellow"/>

<polygon points="150 242.487 170 242.487 160 225.167" fill="green"/>

<polygon points="160 225.167 180 225.167 170 242.487" fill="yellow"/>

<polygon points="170 242.487 190 242.487 180 225.167" fill="green"/>

<polygon points="180 225.167 200 225.167 190 242.487" fill="yellow"/>

<polygon points="190 242.487 210 242.487 200 225.167" fill="green"/>

<polygon points="200 225.167 220 225.167 210 242.487" fill="yellow"/>

<polygon points="210 242.487 230 242.487 220 225.167" fill="green"/>

<polygon points="220 225.167 240 225.167 230 242.487" fill="yellow"/>

<polygon points="230 242.487 250 242.487 240 225.167" fill="green"/>

<polygon points="240 225.167 260 225.167 250 242.487" fill="yellow"/>

<polygon points="250 242.487 270 242.487 260 225.167" fill="green"/>

<polygon points="260 225.167 280 225.167 270 242.487" fill="yellow"/>

<polygon points="270 242.487 290 242.487 280 225.167" fill="green"/>

<polygon points="280 225.167 300 225.167 290 242.487" fill="yellow"/>

<polygon points="290 242.487 310 242.487 300 225.167" fill="green"/>

<polygon points="300 225.167 320 225.167 310 242.487" fill="yellow"/>

<polygon points="310 242.487 330 242.487 320 225.167" fill="green"/>

<polygon points="320 225.167 340 225.167 330 242.487" fill="yellow"/>

<polygon points="330 242.487 350 242.487 340 225.167" fill="green"/>

<polygon points="340 225.167 360 225.167 350 242.487" fill="yellow"/>

<polygon points="350 242.487 370 242.487 360 225.167" fill="green"/>

<polygon points="360 225.167 380 225.167 370 242.487" fill="yellow"/>

<polygon points="370 242.487 390 242.487 380 225.167" fill="green"/>

<polygon points="120 225.167 140 225.167 130 207.846" fill="green"/>

<polygon points="130 207.846 150 207.846 140 225.167" fill="yellow"/>

<polygon points="140 225.167 160 225.167 150 207.846" fill="green"/>

<polygon points="150 207.846 170 207.846 160 225.167" fill="yellow"/>

<polygon points="160 225.167 180 225.167 170 207.846" fill="green"/>

<polygon points="170 207.846 190 207.846 180 225.167" fill="yellow"/>

<polygon points="180 225.167 200 225.167 190 207.846" fill="green"/>

<polygon points="190 207.846 210 207.846 200 225.167" fill="yellow"/>

<polygon points="200 225.167 220 225.167 210 207.846" fill="green"/>

<polygon points="210 207.846 230 207.846 220 225.167" fill="yellow"/>

<polygon points="220 225.167 240 225.167 230 207.846" fill="green"/>

<polygon points="230 207.846 250 207.846 240 225.167" fill="yellow"/>

<polygon points="240 225.167 260 225.167 250 207.846" fill="green"/>

<polygon points="250 207.846 270 207.846 260 225.167" fill="yellow"/>

<polygon points="260 225.167 280 225.167 270 207.846" fill="green"/>

<polygon points="270 207.846 290 207.846 280 225.167" fill="yellow"/>

<polygon points="280 225.167 300 225.167 290 207.846" fill="green"/>

<polygon points="290 207.846 310 207.846 300 225.167" fill="yellow"/>

<polygon points="300 225.167 320 225.167 310 207.846" fill="green"/>

<polygon points="310 207.846 330 207.846 320 225.167" fill="yellow"/>

<polygon points="320 225.167 340 225.167 330 207.846" fill="green"/>

<polygon points="330 207.846 350 207.846 340 225.167" fill="yellow"/>

<polygon points="340 225.167 360 225.167 350 207.846" fill="green"/>

<polygon points="350 207.846 370 207.846 360 225.167" fill="yellow"/>

<polygon points="360 225.167 380 225.167 370 207.846" fill="green"/>

<polygon points="130 207.846 150 207.846 140 190.526" fill="green"/>

<polygon points="140 190.526 160 190.526 150 207.846" fill="yellow"/>

<polygon points="150 207.846 170 207.846 160 190.526" fill="green"/>

<polygon points="160 190.526 180 190.526 170 207.846" fill="yellow"/>

<polygon points="170 207.846 190 207.846 180 190.526" fill="green"/>

<polygon points="180 190.526 200 190.526 190 207.846" fill="yellow"/>

<polygon points="190 207.846 210 207.846 200 190.526" fill="green"/>

<polygon points="200 190.526 220 190.526 210 207.846" fill="yellow"/>

<polygon points="210 207.846 230 207.846 220 190.526" fill="green"/>

<polygon points="220 190.526 240 190.526 230 207.846" fill="yellow"/>

<polygon points="230 207.846 250 207.846 240 190.526" fill="green"/>

<polygon points="240 190.526 260 190.526 250 207.846" fill="yellow"/>

<polygon points="250 207.846 270 207.846 260 190.526" fill="green"/>

<polygon points="260 190.526 280 190.526 270 207.846" fill="yellow"/>

<polygon points="270 207.846 290 207.846 280 190.526" fill="green"/>

<polygon points="280 190.526 300 190.526 290 207.846" fill="yellow"/>

<polygon points="290 207.846 310 207.846 300 190.526" fill="green"/>

<polygon points="300 190.526 320 190.526 310 207.846" fill="yellow"/>

<polygon points="310 207.846 330 207.846 320 190.526" fill="green"/>

<polygon points="320 190.526 340 190.526 330 207.846" fill="yellow"/>

<polygon points="330 207.846 350 207.846 340 190.526" fill="green"/>

<polygon points="340 190.526 360 190.526 350 207.846" fill="yellow"/>

<polygon points="350 207.846 370 207.846 360 190.526" fill="green"/>

<polygon points="140 190.526 160 190.526 150 173.205" fill="green"/>

<polygon points="150 173.205 170 173.205 160 190.526" fill="yellow"/>

<polygon points="160 190.526 180 190.526 170 173.205" fill="green"/>

<polygon points="170 173.205 190 173.205 180 190.526" fill="yellow"/>

<polygon points="180 190.526 200 190.526 190 173.205" fill="green"/>

<polygon points="190 173.205 210 173.205 200 190.526" fill="yellow"/>

<polygon points="200 190.526 220 190.526 210 173.205" fill="green"/>

<polygon points="210 173.205 230 173.205 220 190.526" fill="yellow"/>

<polygon points="220 190.526 240 190.526 230 173.205" fill="green"/>

<polygon points="230 173.205 250 173.205 240 190.526" fill="yellow"/>

<polygon points="240 190.526 260 190.526 250 173.205" fill="green"/>

<polygon points="250 173.205 270 173.205 260 190.526" fill="yellow"/>

<polygon points="260 190.526 280 190.526 270 173.205" fill="green"/>

<polygon points="270 173.205 290 173.205 280 190.526" fill="yellow"/>

<polygon points="280 190.526 300 190.526 290 173.205" fill="green"/>

<polygon points="290 173.205 310 173.205 300 190.526" fill="yellow"/>

<polygon points="300 190.526 320 190.526 310 173.205" fill="green"/>

<polygon points="310 173.205 330 173.205 320 190.526" fill="yellow"/>

<polygon points="320 190.526 340 190.526 330 173.205" fill="green"/>

<polygon points="330 173.205 350 173.205 340 190.526" fill="yellow"/>

<polygon points="340 190.526 360 190.526 350 173.205" fill="green"/>

<polygon points="150 173.205 170 173.205 160 155.885" fill="green"/>

<polygon points="160 155.885 180 155.885 170 173.205" fill="yellow"/>

<polygon points="170 173.205 190 173.205 180 155.885" fill="green"/>

<polygon points="180 155.885 200 155.885 190 173.205" fill="yellow"/>

<polygon points="190 173.205 210 173.205 200 155.885" fill="green"/>

<polygon points="200 155.885 220 155.885 210 173.205" fill="yellow"/>

<polygon points="210 173.205 230 173.205 220 155.885" fill="green"/>

<polygon points="220 155.885 240 155.885 230 173.205" fill="yellow"/>

<polygon points="230 173.205 250 173.205 240 155.885" fill="green"/>

<polygon points="240 155.885 260 155.885 250 173.205" fill="yellow"/>

<polygon points="250 173.205 270 173.205 260 155.885" fill="green"/>

<polygon points="260 155.885 280 155.885 270 173.205" fill="yellow"/>

<polygon points="270 173.205 290 173.205 280 155.885" fill="green"/>

<polygon points="280 155.885 300 155.885 290 173.205" fill="yellow"/>

<polygon points="290 173.205 310 173.205 300 155.885" fill="green"/>

<polygon points="300 155.885 320 155.885 310 173.205" fill="yellow"/>

<polygon points="310 173.205 330 173.205 320 155.885" fill="green"/>

<polygon points="320 155.885 340 155.885 330 173.205" fill="yellow"/>

<polygon points="330 173.205 350 173.205 340 155.885" fill="green"/>

<polygon points="160 155.885 180 155.885 170 138.564" fill="green"/>

<polygon points="170 138.564 190 138.564 180 155.885" fill="yellow"/>

<polygon points="180 155.885 200 155.885 190 138.564" fill="green"/>

<polygon points="190 138.564 210 138.564 200 155.885" fill="yellow"/>

<polygon points="200 155.885 220 155.885 210 138.564" fill="green"/>

<polygon points="210 138.564 230 138.564 220 155.885" fill="yellow"/>

<polygon points="220 155.885 240 155.885 230 138.564" fill="green"/>

<polygon points="230 138.564 250 138.564 240 155.885" fill="yellow"/>

<polygon points="240 155.885 260 155.885 250 138.564" fill="green"/>

<polygon points="250 138.564 270 138.564 260 155.885" fill="yellow"/>

<polygon points="260 155.885 280 155.885 270 138.564" fill="green"/>

<polygon points="270 138.564 290 138.564 280 155.885" fill="yellow"/>

<polygon points="280 155.885 300 155.885 290 138.564" fill="green"/>

<polygon points="290 138.564 310 138.564 300 155.885" fill="yellow"/>

<polygon points="300 155.885 320 155.885 310 138.564" fill="green"/>

<polygon points="310 138.564 330 138.564 320 155.885" fill="yellow"/>

<polygon points="320 155.885 340 155.885 330 138.564" fill="green"/>

<polygon points="170 138.564 190 138.564 180 121.244" fill="green"/>

<polygon points="180 121.244 200 121.244 190 138.564" fill="yellow"/>

<polygon points="190 138.564 210 138.564 200 121.244" fill="green"/>

<polygon points="200 121.244 220 121.244 210 138.564" fill="yellow"/>

<polygon points="210 138.564 230 138.564 220 121.244" fill="green"/>

<polygon points="220 121.244 240 121.244 230 138.564" fill="yellow"/>

<polygon points="230 138.564 250 138.564 240 121.244" fill="green"/>

<polygon points="240 121.244 260 121.244 250 138.564" fill="yellow"/>

<polygon points="250 138.564 270 138.564 260 121.244" fill="green"/>

<polygon points="260 121.244 280 121.244 270 138.564" fill="yellow"/>

<polygon points="270 138.564 290 138.564 280 121.244" fill="green"/>

<polygon points="280 121.244 300 121.244 290 138.564" fill="yellow"/>

<polygon points="290 138.564 310 138.564 300 121.244" fill="green"/>

<polygon points="300 121.244 320 121.244 310 138.564" fill="yellow"/>

<polygon points="310 138.564 330 138.564 320 121.244" fill="green"/>

<polygon points="180 121.244 200 121.244 190 103.923" fill="green"/>

<polygon points="190 103.923 210 103.923 200 121.244" fill="yellow"/>

<polygon points="200 121.244 220 121.244 210 103.923" fill="green"/>

<polygon points="210 103.923 230 103.923 220 121.244" fill="yellow"/>

<polygon points="220 121.244 240 121.244 230 103.923" fill="green"/>

<polygon points="230 103.923 250 103.923 240 121.244" fill="yellow"/>

<polygon points="240 121.244 260 121.244 250 103.923" fill="green"/>

<polygon points="250 103.923 270 103.923 260 121.244" fill="yellow"/>

<polygon points="260 121.244 280 121.244 270 103.923" fill="green"/>

<polygon points="270 103.923 290 103.923 280 121.244" fill="yellow"/>

<polygon points="280 121.244 300 121.244 290 103.923" fill="green"/>

<polygon points="290 103.923 310 103.923 300 121.244" fill="yellow"/>

<polygon points="300 121.244 320 121.244 310 103.923" fill="green"/>

<polygon points="190 103.923 210 103.923 200 86.6025" fill="green"/>

<polygon points="200 86.6025 220 86.6025 210 103.923" fill="yellow"/>

<polygon points="210 103.923 230 103.923 220 86.6025" fill="green"/>

<polygon points="220 86.6025 240 86.6025 230 103.923" fill="yellow"/>

<polygon points="230 103.923 250 103.923 240 86.6025" fill="green"/>

<polygon points="240 86.6025 260 86.6025 250 103.923" fill="yellow"/>

<polygon points="250 103.923 270 103.923 260 86.6025" fill="green"/>

<polygon points="260 86.6025 280 86.6025 270 103.923" fill="yellow"/>

<polygon points="270 103.923 290 103.923 280 86.6025" fill="green"/>

<polygon points="280 86.6025 300 86.6025 290 103.923" fill="yellow"/>

<polygon points="290 103.923 310 103.923 300 86.6025" fill="green"/>

<polygon points="200 86.6025 220 86.6025 210 69.282" fill="green"/>

<polygon points="210 69.282 230 69.282 220 86.6025" fill="yellow"/>

<polygon points="220 86.6025 240 86.6025 230 69.282" fill="green"/>

<polygon points="230 69.282 250 69.282 240 86.6025" fill="yellow"/>

<polygon points="240 86.6025 260 86.6025 250 69.282" fill="green"/>

<polygon points="250 69.282 270 69.282 260 86.6025" fill="yellow"/>

<polygon points="260 86.6025 280 86.6025 270 69.282" fill="green"/>

<polygon points="270 69.282 290 69.282 280 86.6025" fill="yellow"/>

<polygon points="280 86.6025 300 86.6025 290 69.282" fill="green"/>

<polygon points="210 69.282 230 69.282 220 51.9615" fill="green"/>

<polygon points="220 51.9615 240 51.9615 230 69.282" fill="yellow"/>

<polygon points="230 69.282 250 69.282 240 51.9615" fill="green"/>

<polygon points="240 51.9615 260 51.9615 250 69.282" fill="yellow"/>

<polygon points="250 69.282 270 69.282 260 51.9615" fill="green"/>

<polygon points="260 51.9615 280 51.9615 270 69.282" fill="yellow"/>

<polygon points="270 69.282 290 69.282 280 51.9615" fill="green"/>

<polygon points="220 51.9615 240 51.9615 230 34.641" fill="green"/>

<polygon points="230 34.641 250 34.641 240 51.9615" fill="yellow"/>

<polygon points="240 51.9615 260 51.9615 250 34.641" fill="green"/>

<polygon points="250 34.641 270 34.641 260 51.9615" fill="yellow"/>

<polygon points="260 51.9615 280 51.9615 270 34.641" fill="green"/>

<polygon points="230 34.641 250 34.641 240 17.3205" fill="green"/>

<polygon points="240 17.3205 260 17.3205 250 34.641" fill="yellow"/>

<polygon points="250 34.641 270 34.641 260 17.3205" fill="green"/>

<polygon points="240 17.3205 260 17.3205 250 -1.75976e-13" fill="green"/>

 </svg>