<svg xmlns="http://www.w3.org/2000/svg"> 
	<polygon points=" 300 0  0 519.615  600 519.615 " fill="red" stroke="red" stroke-width="0.1" />
	<polygon points=" 23.094 479.615  73.094 479.615  73.094 519.615  23.094 519.615 " fill="green" stroke="red" stroke-width="0.1" />
	<polygon points=" 73.094 479.615  123.094 479.615  123.094 519.615  73.094 519.615 " fill="yellow" stroke="red" stroke-width="0.1" />
	<polygon points=" 123.094 479.615  173.094 479.615  173.094 519.615  123.094 519.615 " fill="green" stroke="red" stroke-width="0.1" />
	<polygon points=" 173.094 479.615  223.094 479.615  223.094 519.615  173.094 519.615 " fill="yellow" stroke="red" stroke-width="0.1" />
	<polygon points=" 223.094 479.615  273.094 479.615  273.094 519.615  223.094 519.615 " fill="green" stroke="red" stroke-width="0.1" />
	<polygon points=" 273.094 479.615  323.094 479.615  323.094 519.615  273.094 519.615 " fill="yellow" stroke="red" stroke-width="0.1" />
	<polygon points=" 323.094 479.615  373.094 479.615  373.094 519.615  323.094 519.615 " fill="green" stroke="red" stroke-width="0.1" />
	<polygon points=" 373.094 479.615  423.094 479.615  423.094 519.615  373.094 519.615 " fill="yellow" stroke="red" stroke-width="0.1" />
	<polygon points=" 423.094 479.615  473.094 479.615  473.094 519.615  423.094 519.615 " fill="green" stroke="red" stroke-width="0.1" />
	<polygon points=" 473.094 479.615  523.094 479.615  523.094 519.615  473.094 519.615 " fill="yellow" stroke="red" stroke-width="0.1" />
	<polygon points=" 523.094 479.615  573.094 479.615  573.094 519.615  523.094 519.615 " fill="green" stroke="red" stroke-width="0.1" />
	<polygon points=" 46.188 439.615  96.188 439.615  96.188 479.615  46.188 479.615 " fill="green" stroke="red" stroke-width="0.1" />
	<polygon points=" 96.188 439.615  146.188 439.615  146.188 479.615  96.188 479.615 " fill="yellow" stroke="red" stroke-width="0.1" />
	<polygon points=" 146.188 439.615  196.188 439.615  196.188 479.615  146.188 479.615 " fill="green" stroke="red" stroke-width="0.1" />
	<polygon points=" 196.188 439.615  246.188 439.615  246.188 479.615  196.188 479.615 " fill="yellow" stroke="red" stroke-width="0.1" />
	<polygon points=" 246.188 439.615  296.188 439.615  296.188 479.615  246.188 479.615 " fill="green" stroke="red" stroke-width="0.1" />
	<polygon points=" 296.188 439.615  346.188 439.615  346.188 479.615  296.188 479.615 " fill="yellow" stroke="red" stroke-width="0.1" />
	<polygon points=" 346.188 439.615  396.188 439.615  396.188 479.615  346.188 479.615 " fill="green" stroke="red" stroke-width="0.1" />
	<polygon points=" 396.188 439.615  446.188 439.615  446.188 479.615  396.188 479.615 " fill="yellow" stroke="red" stroke-width="0.1" />
	<polygon points=" 446.188 439.615  496.188 439.615  496.188 479.615  446.188 479.615 " fill="green" stroke="red" stroke-width="0.1" />
	<polygon points=" 496.188 439.615  546.188 439.615  546.188 479.615  496.188 479.615 " fill="yellow" stroke="red" stroke-width="0.1" />
	<polygon points=" 69.282 399.615  119.282 399.615  119.282 439.615  69.282 439.615 " fill="green" stroke="red" stroke-width="0.1" />
	<polygon points=" 119.282 399.615  169.282 399.615  169.282 439.615  119.282 439.615 " fill="yellow" stroke="red" stroke-width="0.1" />
	<polygon points=" 169.282 399.615  219.282 399.615  219.282 439.615  169.282 439.615 " fill="green" stroke="red" stroke-width="0.1" />
	<polygon points=" 219.282 399.615  269.282 399.615  269.282 439.615  219.282 439.615 " fill="yellow" stroke="red" stroke-width="0.1" />
	<polygon points=" 269.282 399.615  319.282 399.615  319.282 439.615  269.282 439.615 " fill="green" stroke="red" stroke-width="0.1" />
	<polygon points=" 319.282 399.615  369.282 399.615  369.282 439.615  319.282 439.615 " fill="yellow" stroke="red" stroke-width="0.1" />
	<polygon points=" 369.282 399.615  419.282 399.615  419.282 439.615  369.282 439.615 " fill="green" stroke="red" stroke-width="0.1" />
	<polygon points=" 419.282 399.615  469.282 399.615  469.282 439.615  419.282 439.615 " fill="yellow" stroke="red" stroke-width="0.1" />
	<polygon points=" 469.282 399.615  519.282 399.615  519.282 439.615  469.282 439.615 " fill="green" stroke="red" stroke-width="0.1" />
	<polygon points=" 92.376 359.615  142.376 359.615  142.376 399.615  92.376 399.615 " fill="green" stroke="red" stroke-width="0.1" />
	<polygon points=" 142.376 359.615  192.376 359.615  192.376 399.615  142.376 399.615 " fill="yellow" stroke="red" stroke-width="0.1" />
	<polygon points=" 192.376 359.615  242.376 359.615  242.376 399.615  192.376 399.615 " fill="green" stroke="red" stroke-width="0.1" />
	<polygon points=" 242.376 359.615  292.376 359.615  292.376 399.615  242.376 399.615 " fill="yellow" stroke="red" stroke-width="0.1" />
	<polygon points=" 292.376 359.615  342.376 359.615  342.376 399.615  292.376 399.615 " fill="green" stroke="red" stroke-width="0.1" />
	<polygon points=" 342.376 359.615  392.376 359.615  392.376 399.615  342.376 399.615 " fill="yellow" stroke="red" stroke-width="0.1" />
	<polygon points=" 392.376 359.615  442.376 359.615  442.376 399.615  392.376 399.615 " fill="green" stroke="red" stroke-width="0.1" />
	<polygon points=" 442.376 359.615  492.376 359.615  492.376 399.615  442.376 399.615 " fill="yellow" stroke="red" stroke-width="0.1" />
	<polygon points=" 115.47 319.615  165.47 319.615  165.47 359.615  115.47 359.615 " fill="green" stroke="red" stroke-width="0.1" />
	<polygon points=" 165.47 319.615  215.47 319.615  215.47 359.615  165.47 359.615 " fill="yellow" stroke="red" stroke-width="0.1" />
	<polygon points=" 215.47 319.615  265.47 319.615  265.47 359.615  215.47 359.615 " fill="green" stroke="red" stroke-width="0.1" />
	<polygon points=" 265.47 319.615  315.47 319.615  315.47 359.615  265.47 359.615 " fill="yellow" stroke="red" stroke-width="0.1" />
	<polygon points=" 315.47 319.615  365.47 319.615  365.47 359.615  315.47 359.615 " fill="green" stroke="red" stroke-width="0.1" />
	<polygon points=" 365.47 319.615  415.47 319.615  415.47 359.615  365.47 359.615 " fill="yellow" stroke="red" stroke-width="0.1" />
	<polygon points=" 415.47 319.615  465.47 319.615  465.47 359.615  415.47 359.615 " fill="green" stroke="red" stroke-width="0.1" />
	<polygon points=" 138.564 279.615  188.564 279.615  188.564 319.615  138.564 319.615 " fill="green" stroke="red" stroke-width="0.1" />
	<polygon points=" 188.564 279.615  238.564 279.615  238.564 319.615  188.564 319.615 " fill="yellow" stroke="red" stroke-width="0.1" />
	<polygon points=" 238.564 279.615  288.564 279.615  288.564 319.615  238.564 319.615 " fill="green" stroke="red" stroke-width="0.1" />
	<polygon points=" 288.564 279.615  338.564 279.615  338.564 319.615  288.564 319.615 " fill="yellow" stroke="red" stroke-width="0.1" />
	<polygon points=" 338.564 279.615  388.564 279.615  388.564 319.615  338.564 319.615 " fill="green" stroke="red" stroke-width="0.1" />
	<polygon points=" 388.564 279.615  438.564 279.615  438.564 319.615  388.564 319.615 " fill="yellow" stroke="red" stroke-width="0.1" />
	<polygon points=" 161.658 239.615  211.658 239.615  211.658 279.615  161.658 279.615 " fill="green" stroke="red" stroke-width="0.1" />
	<polygon points=" 211.658 239.615  261.658 239.615  261.658 279.615  211.658 279.615 " fill="yellow" stroke="red" stroke-width="0.1" />
	<polygon points=" 261.658 239.615  311.658 239.615  311.658 279.615  261.658 279.615 " fill="green" stroke="red" stroke-width="0.1" />
	<polygon points=" 311.658 239.615  361.658 239.615  361.658 279.615  311.658 279.615 " fill="yellow" stroke="red" stroke-width="0.1" />
	<polygon points=" 361.658 239.615  411.658 239.615  411.658 279.615  361.658 279.615 " fill="green" stroke="red" stroke-width="0.1" />
	<polygon points=" 184.752 199.615  234.752 199.615  234.752 239.615  184.752 239.615 " fill="green" stroke="red" stroke-width="0.1" />
	<polygon points=" 234.752 199.615  284.752 199.615  284.752 239.615  234.752 239.615 " fill="yellow" stroke="red" stroke-width="0.1" />
	<polygon points=" 284.752 199.615  334.752 199.615  334.752 239.615  284.752 239.615 " fill="green" stroke="red" stroke-width="0.1" />
	<polygon points=" 334.752 199.615  384.752 199.615  384.752 239.615  334.752 239.615 " fill="yellow" stroke="red" stroke-width="0.1" />
	<polygon points=" 207.846 159.615  257.846 159.615  257.846 199.615  207.846 199.615 " fill="green" stroke="red" stroke-width="0.1" />
	<polygon points=" 257.846 159.615  307.846 159.615  307.846 199.615  257.846 199.615 " fill="yellow" stroke="red" stroke-width="0.1" />
	<polygon points=" 307.846 159.615  357.846 159.615  357.846 199.615  307.846 199.615 " fill="green" stroke="red" stroke-width="0.1" />
	<polygon points=" 230.94 119.615  280.94 119.615  280.94 159.615  230.94 159.615 " fill="green" stroke="red" stroke-width="0.1" />
	<polygon points=" 280.94 119.615  330.94 119.615  330.94 159.615  280.94 159.615 " fill="yellow" stroke="red" stroke-width="0.1" />
	<polygon points=" 254.034 79.6152  304.034 79.6152  304.034 119.615  254.034 119.615 " fill="green" stroke="red" stroke-width="0.1" />
 </svg>