<svg xmlns="http://www.w3.org/2000/svg"> <circle cx="300" cy="300" r="300" fill="red"/>
	<circle cx="296" cy="32" r="30" fill="green"/>
	<circle cx="148" cy="92" r="30" fill="green"/>
	<circle cx="208" cy="92" r="30" fill="green"/>
	<circle cx="268" cy="92" r="30" fill="green"/>
	<circle cx="328" cy="92" r="30" fill="green"/>
	<circle cx="388" cy="92" r="30" fill="green"/>
	<circle cx="448" cy="92" r="30" fill="green"/>
	<circle cx="89" cy="152" r="30" fill="green"/>
	<circle cx="149" cy="152" r="30" fill="green"/>
	<circle cx="209" cy="152" r="30" fill="green"/>
	<circle cx="269" cy="152" r="30" fill="green"/>
	<circle cx="329" cy="152" r="30" fill="green"/>
	<circle cx="389" cy="152" r="30" fill="green"/>
	<circle cx="449" cy="152" r="30" fill="green"/>
	<circle cx="509" cy="152" r="30" fill="green"/>
	<circle cx="55" cy="212" r="30" fill="green"/>
	<circle cx="115" cy="212" r="30" fill="green"/>
	<circle cx="175" cy="212" r="30" fill="green"/>
	<circle cx="235" cy="212" r="30" fill="green"/>
	<circle cx="295" cy="212" r="30" fill="green"/>
	<circle cx="355" cy="212" r="30" fill="green"/>
	<circle cx="415" cy="212" r="30" fill="green"/>
	<circle cx="475" cy="212" r="30" fill="green"/>
	<circle cx="535" cy="212" r="30" fill="green"/>
	<circle cx="36" cy="272" r="30" fill="green"/>
	<circle cx="96" cy="272" r="30" fill="green"/>
	<circle cx="156" cy="272" r="30" fill="green"/>
	<circle cx="216" cy="272" r="30" fill="green"/>
	<circle cx="276" cy="272" r="30" fill="green"/>
	<circle cx="336" cy="272" r="30" fill="green"/>
	<circle cx="396" cy="272" r="30" fill="green"/>
	<circle cx="456" cy="272" r="30" fill="green"/>
	<circle cx="516" cy="272" r="30" fill="green"/>
	<circle cx="37" cy="332" r="30" fill="green"/>
	<circle cx="97" cy="332" r="30" fill="green"/>
	<circle cx="157" cy="332" r="30" fill="green"/>
	<circle cx="217" cy="332" r="30" fill="green"/>
	<circle cx="277" cy="332" r="30" fill="green"/>
	<circle cx="337" cy="332" r="30" fill="green"/>
	<circle cx="397" cy="332" r="30" fill="green"/>
	<circle cx="457" cy="332" r="30" fill="green"/>
	<circle cx="517" cy="332" r="30" fill="green"/>
	<circle cx="56" cy="392" r="30" fill="green"/>
	<circle cx="116" cy="392" r="30" fill="green"/>
	<circle cx="176" cy="392" r="30" fill="green"/>
	<circle cx="236" cy="392" r="30" fill="green"/>
	<circle cx="296" cy="392" r="30" fill="green"/>
	<circle cx="356" cy="392" r="30" fill="green"/>
	<circle cx="416" cy="392" r="30" fill="green"/>
	<circle cx="476" cy="392" r="30" fill="green"/>
	<circle cx="536" cy="392" r="30" fill="green"/>
	<circle cx="92" cy="452" r="30" fill="green"/>
	<circle cx="152" cy="452" r="30" fill="green"/>
	<circle cx="212" cy="452" r="30" fill="green"/>
	<circle cx="272" cy="452" r="30" fill="green"/>
	<circle cx="332" cy="452" r="30" fill="green"/>
	<circle cx="392" cy="452" r="30" fill="green"/>
	<circle cx="452" cy="452" r="30" fill="green"/>
	<circle cx="153" cy="512" r="30" fill="green"/>
	<circle cx="213" cy="512" r="30" fill="green"/>
	<circle cx="273" cy="512" r="30" fill="green"/>
	<circle cx="333" cy="512" r="30" fill="green"/>
	<circle cx="393" cy="512" r="30" fill="green"/>

</svg>