<svg xmlns="http://www.w3.org/2000/svg"> <polygon points="300 0 0 519.615 600 519.615 " fill="red"/>
<rect x="23.094" y="479.615" width="50" height="40" fill="green" />
<rect x="73.094" y="479.615" width="50" height="40" fill="yellow" />
<rect x="123.094" y="479.615" width="50" height="40" fill="green" />
<rect x="173.094" y="479.615" width="50" height="40" fill="yellow" />
<rect x="223.094" y="479.615" width="50" height="40" fill="green" />
<rect x="273.094" y="479.615" width="50" height="40" fill="yellow" />
<rect x="323.094" y="479.615" width="50" height="40" fill="green" />
<rect x="373.094" y="479.615" width="50" height="40" fill="yellow" />
<rect x="423.094" y="479.615" width="50" height="40" fill="green" />
<rect x="473.094" y="479.615" width="50" height="40" fill="yellow" />
<rect x="523.094" y="479.615" width="50" height="40" fill="green" />
<rect x="46.188" y="439.615" width="50" height="40" fill="green" />
<rect x="96.188" y="439.615" width="50" height="40" fill="yellow" />
<rect x="146.188" y="439.615" width="50" height="40" fill="green" />
<rect x="196.188" y="439.615" width="50" height="40" fill="yellow" />
<rect x="246.188" y="439.615" width="50" height="40" fill="green" />
<rect x="296.188" y="439.615" width="50" height="40" fill="yellow" />
<rect x="346.188" y="439.615" width="50" height="40" fill="green" />
<rect x="396.188" y="439.615" width="50" height="40" fill="yellow" />
<rect x="446.188" y="439.615" width="50" height="40" fill="green" />
<rect x="496.188" y="439.615" width="50" height="40" fill="yellow" />
<rect x="69.282" y="399.615" width="50" height="40" fill="green" />
<rect x="119.282" y="399.615" width="50" height="40" fill="yellow" />
<rect x="169.282" y="399.615" width="50" height="40" fill="green" />
<rect x="219.282" y="399.615" width="50" height="40" fill="yellow" />
<rect x="269.282" y="399.615" width="50" height="40" fill="green" />
<rect x="319.282" y="399.615" width="50" height="40" fill="yellow" />
<rect x="369.282" y="399.615" width="50" height="40" fill="green" />
<rect x="419.282" y="399.615" width="50" height="40" fill="yellow" />
<rect x="469.282" y="399.615" width="50" height="40" fill="green" />
<rect x="92.376" y="359.615" width="50" height="40" fill="green" />
<rect x="142.376" y="359.615" width="50" height="40" fill="yellow" />
<rect x="192.376" y="359.615" width="50" height="40" fill="green" />
<rect x="242.376" y="359.615" width="50" height="40" fill="yellow" />
<rect x="292.376" y="359.615" width="50" height="40" fill="green" />
<rect x="342.376" y="359.615" width="50" height="40" fill="yellow" />
<rect x="392.376" y="359.615" width="50" height="40" fill="green" />
<rect x="442.376" y="359.615" width="50" height="40" fill="yellow" />
<rect x="115.47" y="319.615" width="50" height="40" fill="green" />
<rect x="165.47" y="319.615" width="50" height="40" fill="yellow" />
<rect x="215.47" y="319.615" width="50" height="40" fill="green" />
<rect x="265.47" y="319.615" width="50" height="40" fill="yellow" />
<rect x="315.47" y="319.615" width="50" height="40" fill="green" />
<rect x="365.47" y="319.615" width="50" height="40" fill="yellow" />
<rect x="415.47" y="319.615" width="50" height="40" fill="green" />
<rect x="138.564" y="279.615" width="50" height="40" fill="green" />
<rect x="188.564" y="279.615" width="50" height="40" fill="yellow" />
<rect x="238.564" y="279.615" width="50" height="40" fill="green" />
<rect x="288.564" y="279.615" width="50" height="40" fill="yellow" />
<rect x="338.564" y="279.615" width="50" height="40" fill="green" />
<rect x="388.564" y="279.615" width="50" height="40" fill="yellow" />
<rect x="161.658" y="239.615" width="50" height="40" fill="green" />
<rect x="211.658" y="239.615" width="50" height="40" fill="yellow" />
<rect x="261.658" y="239.615" width="50" height="40" fill="green" />
<rect x="311.658" y="239.615" width="50" height="40" fill="yellow" />
<rect x="361.658" y="239.615" width="50" height="40" fill="green" />
<rect x="184.752" y="199.615" width="50" height="40" fill="green" />
<rect x="234.752" y="199.615" width="50" height="40" fill="yellow" />
<rect x="284.752" y="199.615" width="50" height="40" fill="green" />
<rect x="334.752" y="199.615" width="50" height="40" fill="yellow" />
<rect x="207.846" y="159.615" width="50" height="40" fill="green" />
<rect x="257.846" y="159.615" width="50" height="40" fill="yellow" />
<rect x="307.846" y="159.615" width="50" height="40" fill="green" />
<rect x="230.94" y="119.615" width="50" height="40" fill="green" />
<rect x="280.94" y="119.615" width="50" height="40" fill="yellow" />
<rect x="254.034" y="79.6152" width="50" height="40" fill="green" />

</svg>