<svg xmlns="http://www.w3.org/2000/svg"> <circle cx="350" cy="350" r="350" fill="red"/>
<rect x="325" y="1.5" width="30" height="40" fill="green" />
<rect x="186" y="42" width="30" height="40" fill="green" />
<rect x="216.5" y="42" width="30" height="40" fill="green" />
<rect x="247" y="42" width="30" height="40" fill="green" />
<rect x="277.5" y="42" width="30" height="40" fill="green" />
<rect x="308" y="42" width="30" height="40" fill="green" />
<rect x="338.5" y="42" width="30" height="40" fill="green" />
<rect x="369" y="42" width="30" height="40" fill="green" />
<rect x="399.5" y="42" width="30" height="40" fill="green" />
<rect x="430" y="42" width="30" height="40" fill="green" />
<rect x="460.5" y="42" width="30" height="40" fill="green" />
<rect x="126" y="82.5" width="30" height="40" fill="green" />
<rect x="156.5" y="82.5" width="30" height="40" fill="green" />
<rect x="187" y="82.5" width="30" height="40" fill="green" />
<rect x="217.5" y="82.5" width="30" height="40" fill="green" />
<rect x="248" y="82.5" width="30" height="40" fill="green" />
<rect x="278.5" y="82.5" width="30" height="40" fill="green" />
<rect x="309" y="82.5" width="30" height="40" fill="green" />
<rect x="339.5" y="82.5" width="30" height="40" fill="green" />
<rect x="370" y="82.5" width="30" height="40" fill="green" />
<rect x="400.5" y="82.5" width="30" height="40" fill="green" />
<rect x="431" y="82.5" width="30" height="40" fill="green" />
<rect x="461.5" y="82.5" width="30" height="40" fill="green" />
<rect x="492" y="82.5" width="30" height="40" fill="green" />
<rect x="522.5" y="82.5" width="30" height="40" fill="green" />
<rect x="85" y="123" width="30" height="40" fill="green" />
<rect x="115.5" y="123" width="30" height="40" fill="green" />
<rect x="146" y="123" width="30" height="40" fill="green" />
<rect x="176.5" y="123" width="30" height="40" fill="green" />
<rect x="207" y="123" width="30" height="40" fill="green" />
<rect x="237.5" y="123" width="30" height="40" fill="green" />
<rect x="268" y="123" width="30" height="40" fill="green" />
<rect x="298.5" y="123" width="30" height="40" fill="green" />
<rect x="329" y="123" width="30" height="40" fill="green" />
<rect x="359.5" y="123" width="30" height="40" fill="green" />
<rect x="390" y="123" width="30" height="40" fill="green" />
<rect x="420.5" y="123" width="30" height="40" fill="green" />
<rect x="451" y="123" width="30" height="40" fill="green" />
<rect x="481.5" y="123" width="30" height="40" fill="green" />
<rect x="512" y="123" width="30" height="40" fill="green" />
<rect x="542.5" y="123" width="30" height="40" fill="green" />
<rect x="573" y="123" width="30" height="40" fill="green" />
<rect x="55" y="163.5" width="30" height="40" fill="green" />
<rect x="85.5" y="163.5" width="30" height="40" fill="green" />
<rect x="116" y="163.5" width="30" height="40" fill="green" />
<rect x="146.5" y="163.5" width="30" height="40" fill="green" />
<rect x="177" y="163.5" width="30" height="40" fill="green" />
<rect x="207.5" y="163.5" width="30" height="40" fill="green" />
<rect x="238" y="163.5" width="30" height="40" fill="green" />
<rect x="268.5" y="163.5" width="30" height="40" fill="green" />
<rect x="299" y="163.5" width="30" height="40" fill="green" />
<rect x="329.5" y="163.5" width="30" height="40" fill="green" />
<rect x="360" y="163.5" width="30" height="40" fill="green" />
<rect x="390.5" y="163.5" width="30" height="40" fill="green" />
<rect x="421" y="163.5" width="30" height="40" fill="green" />
<rect x="451.5" y="163.5" width="30" height="40" fill="green" />
<rect x="482" y="163.5" width="30" height="40" fill="green" />
<rect x="512.5" y="163.5" width="30" height="40" fill="green" />
<rect x="543" y="163.5" width="30" height="40" fill="green" />
<rect x="573.5" y="163.5" width="30" height="40" fill="green" />
<rect x="604" y="163.5" width="30" height="40" fill="green" />
<rect x="33" y="204" width="30" height="40" fill="green" />
<rect x="63.5" y="204" width="30" height="40" fill="green" />
<rect x="94" y="204" width="30" height="40" fill="green" />
<rect x="124.5" y="204" width="30" height="40" fill="green" />
<rect x="155" y="204" width="30" height="40" fill="green" />
<rect x="185.5" y="204" width="30" height="40" fill="green" />
<rect x="216" y="204" width="30" height="40" fill="green" />
<rect x="246.5" y="204" width="30" height="40" fill="green" />
<rect x="277" y="204" width="30" height="40" fill="green" />
<rect x="307.5" y="204" width="30" height="40" fill="green" />
<rect x="338" y="204" width="30" height="40" fill="green" />
<rect x="368.5" y="204" width="30" height="40" fill="green" />
<rect x="399" y="204" width="30" height="40" fill="green" />
<rect x="429.5" y="204" width="30" height="40" fill="green" />
<rect x="460" y="204" width="30" height="40" fill="green" />
<rect x="490.5" y="204" width="30" height="40" fill="green" />
<rect x="521" y="204" width="30" height="40" fill="green" />
<rect x="551.5" y="204" width="30" height="40" fill="green" />
<rect x="582" y="204" width="30" height="40" fill="green" />
<rect x="612.5" y="204" width="30" height="40" fill="green" />
<rect x="17" y="244.5" width="30" height="40" fill="green" />
<rect x="47.5" y="244.5" width="30" height="40" fill="green" />
<rect x="78" y="244.5" width="30" height="40" fill="green" />
<rect x="108.5" y="244.5" width="30" height="40" fill="green" />
<rect x="139" y="244.5" width="30" height="40" fill="green" />
<rect x="169.5" y="244.5" width="30" height="40" fill="green" />
<rect x="200" y="244.5" width="30" height="40" fill="green" />
<rect x="230.5" y="244.5" width="30" height="40" fill="green" />
<rect x="261" y="244.5" width="30" height="40" fill="green" />
<rect x="291.5" y="244.5" width="30" height="40" fill="green" />
<rect x="322" y="244.5" width="30" height="40" fill="green" />
<rect x="352.5" y="244.5" width="30" height="40" fill="green" />
<rect x="383" y="244.5" width="30" height="40" fill="green" />
<rect x="413.5" y="244.5" width="30" height="40" fill="green" />
<rect x="444" y="244.5" width="30" height="40" fill="green" />
<rect x="474.5" y="244.5" width="30" height="40" fill="green" />
<rect x="505" y="244.5" width="30" height="40" fill="green" />
<rect x="535.5" y="244.5" width="30" height="40" fill="green" />
<rect x="566" y="244.5" width="30" height="40" fill="green" />
<rect x="596.5" y="244.5" width="30" height="40" fill="green" />
<rect x="627" y="244.5" width="30" height="40" fill="green" />
<rect x="7" y="285" width="30" height="40" fill="green" />
<rect x="37.5" y="285" width="30" height="40" fill="green" />
<rect x="68" y="285" width="30" height="40" fill="green" />
<rect x="98.5" y="285" width="30" height="40" fill="green" />
<rect x="129" y="285" width="30" height="40" fill="green" />
<rect x="159.5" y="285" width="30" height="40" fill="green" />
<rect x="190" y="285" width="30" height="40" fill="green" />
<rect x="220.5" y="285" width="30" height="40" fill="green" />
<rect x="251" y="285" width="30" height="40" fill="green" />
<rect x="281.5" y="285" width="30" height="40" fill="green" />
<rect x="312" y="285" width="30" height="40" fill="green" />
<rect x="342.5" y="285" width="30" height="40" fill="green" />
<rect x="373" y="285" width="30" height="40" fill="green" />
<rect x="403.5" y="285" width="30" height="40" fill="green" />
<rect x="434" y="285" width="30" height="40" fill="green" />
<rect x="464.5" y="285" width="30" height="40" fill="green" />
<rect x="495" y="285" width="30" height="40" fill="green" />
<rect x="525.5" y="285" width="30" height="40" fill="green" />
<rect x="556" y="285" width="30" height="40" fill="green" />
<rect x="586.5" y="285" width="30" height="40" fill="green" />
<rect x="617" y="285" width="30" height="40" fill="green" />
<rect x="647.5" y="285" width="30" height="40" fill="green" />
<rect x="2" y="325.5" width="30" height="40" fill="green" />
<rect x="32.5" y="325.5" width="30" height="40" fill="green" />
<rect x="63" y="325.5" width="30" height="40" fill="green" />
<rect x="93.5" y="325.5" width="30" height="40" fill="green" />
<rect x="124" y="325.5" width="30" height="40" fill="green" />
<rect x="154.5" y="325.5" width="30" height="40" fill="green" />
<rect x="185" y="325.5" width="30" height="40" fill="green" />
<rect x="215.5" y="325.5" width="30" height="40" fill="green" />
<rect x="246" y="325.5" width="30" height="40" fill="green" />
<rect x="276.5" y="325.5" width="30" height="40" fill="green" />
<rect x="307" y="325.5" width="30" height="40" fill="green" />
<rect x="337.5" y="325.5" width="30" height="40" fill="green" />
<rect x="368" y="325.5" width="30" height="40" fill="green" />
<rect x="398.5" y="325.5" width="30" height="40" fill="green" />
<rect x="429" y="325.5" width="30" height="40" fill="green" />
<rect x="459.5" y="325.5" width="30" height="40" fill="green" />
<rect x="490" y="325.5" width="30" height="40" fill="green" />
<rect x="520.5" y="325.5" width="30" height="40" fill="green" />
<rect x="551" y="325.5" width="30" height="40" fill="green" />
<rect x="581.5" y="325.5" width="30" height="40" fill="green" />
<rect x="612" y="325.5" width="30" height="40" fill="green" />
<rect x="642.5" y="325.5" width="30" height="40" fill="green" />
<rect x="5" y="366" width="30" height="40" fill="green" />
<rect x="35.5" y="366" width="30" height="40" fill="green" />
<rect x="66" y="366" width="30" height="40" fill="green" />
<rect x="96.5" y="366" width="30" height="40" fill="green" />
<rect x="127" y="366" width="30" height="40" fill="green" />
<rect x="157.5" y="366" width="30" height="40" fill="green" />
<rect x="188" y="366" width="30" height="40" fill="green" />
<rect x="218.5" y="366" width="30" height="40" fill="green" />
<rect x="249" y="366" width="30" height="40" fill="green" />
<rect x="279.5" y="366" width="30" height="40" fill="green" />
<rect x="310" y="366" width="30" height="40" fill="green" />
<rect x="340.5" y="366" width="30" height="40" fill="green" />
<rect x="371" y="366" width="30" height="40" fill="green" />
<rect x="401.5" y="366" width="30" height="40" fill="green" />
<rect x="432" y="366" width="30" height="40" fill="green" />
<rect x="462.5" y="366" width="30" height="40" fill="green" />
<rect x="493" y="366" width="30" height="40" fill="green" />
<rect x="523.5" y="366" width="30" height="40" fill="green" />
<rect x="554" y="366" width="30" height="40" fill="green" />
<rect x="584.5" y="366" width="30" height="40" fill="green" />
<rect x="615" y="366" width="30" height="40" fill="green" />
<rect x="645.5" y="366" width="30" height="40" fill="green" />
<rect x="14" y="406.5" width="30" height="40" fill="green" />
<rect x="44.5" y="406.5" width="30" height="40" fill="green" />
<rect x="75" y="406.5" width="30" height="40" fill="green" />
<rect x="105.5" y="406.5" width="30" height="40" fill="green" />
<rect x="136" y="406.5" width="30" height="40" fill="green" />
<rect x="166.5" y="406.5" width="30" height="40" fill="green" />
<rect x="197" y="406.5" width="30" height="40" fill="green" />
<rect x="227.5" y="406.5" width="30" height="40" fill="green" />
<rect x="258" y="406.5" width="30" height="40" fill="green" />
<rect x="288.5" y="406.5" width="30" height="40" fill="green" />
<rect x="319" y="406.5" width="30" height="40" fill="green" />
<rect x="349.5" y="406.5" width="30" height="40" fill="green" />
<rect x="380" y="406.5" width="30" height="40" fill="green" />
<rect x="410.5" y="406.5" width="30" height="40" fill="green" />
<rect x="441" y="406.5" width="30" height="40" fill="green" />
<rect x="471.5" y="406.5" width="30" height="40" fill="green" />
<rect x="502" y="406.5" width="30" height="40" fill="green" />
<rect x="532.5" y="406.5" width="30" height="40" fill="green" />
<rect x="563" y="406.5" width="30" height="40" fill="green" />
<rect x="593.5" y="406.5" width="30" height="40" fill="green" />
<rect x="624" y="406.5" width="30" height="40" fill="green" />
<rect x="654.5" y="406.5" width="30" height="40" fill="green" />
<rect x="29" y="447" width="30" height="40" fill="green" />
<rect x="59.5" y="447" width="30" height="40" fill="green" />
<rect x="90" y="447" width="30" height="40" fill="green" />
<rect x="120.5" y="447" width="30" height="40" fill="green" />
<rect x="151" y="447" width="30" height="40" fill="green" />
<rect x="181.5" y="447" width="30" height="40" fill="green" />
<rect x="212" y="447" width="30" height="40" fill="green" />
<rect x="242.5" y="447" width="30" height="40" fill="green" />
<rect x="273" y="447" width="30" height="40" fill="green" />
<rect x="303.5" y="447" width="30" height="40" fill="green" />
<rect x="334" y="447" width="30" height="40" fill="green" />
<rect x="364.5" y="447" width="30" height="40" fill="green" />
<rect x="395" y="447" width="30" height="40" fill="green" />
<rect x="425.5" y="447" width="30" height="40" fill="green" />
<rect x="456" y="447" width="30" height="40" fill="green" />
<rect x="486.5" y="447" width="30" height="40" fill="green" />
<rect x="517" y="447" width="30" height="40" fill="green" />
<rect x="547.5" y="447" width="30" height="40" fill="green" />
<rect x="578" y="447" width="30" height="40" fill="green" />
<rect x="608.5" y="447" width="30" height="40" fill="green" />
<rect x="639" y="447" width="30" height="40" fill="green" />
<rect x="49" y="487.5" width="30" height="40" fill="green" />
<rect x="79.5" y="487.5" width="30" height="40" fill="green" />
<rect x="110" y="487.5" width="30" height="40" fill="green" />
<rect x="140.5" y="487.5" width="30" height="40" fill="green" />
<rect x="171" y="487.5" width="30" height="40" fill="green" />
<rect x="201.5" y="487.5" width="30" height="40" fill="green" />
<rect x="232" y="487.5" width="30" height="40" fill="green" />
<rect x="262.5" y="487.5" width="30" height="40" fill="green" />
<rect x="293" y="487.5" width="30" height="40" fill="green" />
<rect x="323.5" y="487.5" width="30" height="40" fill="green" />
<rect x="354" y="487.5" width="30" height="40" fill="green" />
<rect x="384.5" y="487.5" width="30" height="40" fill="green" />
<rect x="415" y="487.5" width="30" height="40" fill="green" />
<rect x="445.5" y="487.5" width="30" height="40" fill="green" />
<rect x="476" y="487.5" width="30" height="40" fill="green" />
<rect x="506.5" y="487.5" width="30" height="40" fill="green" />
<rect x="537" y="487.5" width="30" height="40" fill="green" />
<rect x="567.5" y="487.5" width="30" height="40" fill="green" />
<rect x="598" y="487.5" width="30" height="40" fill="green" />
<rect x="77" y="528" width="30" height="40" fill="green" />
<rect x="107.5" y="528" width="30" height="40" fill="green" />
<rect x="138" y="528" width="30" height="40" fill="green" />
<rect x="168.5" y="528" width="30" height="40" fill="green" />
<rect x="199" y="528" width="30" height="40" fill="green" />
<rect x="229.5" y="528" width="30" height="40" fill="green" />
<rect x="260" y="528" width="30" height="40" fill="green" />
<rect x="290.5" y="528" width="30" height="40" fill="green" />
<rect x="321" y="528" width="30" height="40" fill="green" />
<rect x="351.5" y="528" width="30" height="40" fill="green" />
<rect x="382" y="528" width="30" height="40" fill="green" />
<rect x="412.5" y="528" width="30" height="40" fill="green" />
<rect x="443" y="528" width="30" height="40" fill="green" />
<rect x="473.5" y="528" width="30" height="40" fill="green" />
<rect x="504" y="528" width="30" height="40" fill="green" />
<rect x="534.5" y="528" width="30" height="40" fill="green" />
<rect x="565" y="528" width="30" height="40" fill="green" />
<rect x="114" y="568.5" width="30" height="40" fill="green" />
<rect x="144.5" y="568.5" width="30" height="40" fill="green" />
<rect x="175" y="568.5" width="30" height="40" fill="green" />
<rect x="205.5" y="568.5" width="30" height="40" fill="green" />
<rect x="236" y="568.5" width="30" height="40" fill="green" />
<rect x="266.5" y="568.5" width="30" height="40" fill="green" />
<rect x="297" y="568.5" width="30" height="40" fill="green" />
<rect x="327.5" y="568.5" width="30" height="40" fill="green" />
<rect x="358" y="568.5" width="30" height="40" fill="green" />
<rect x="388.5" y="568.5" width="30" height="40" fill="green" />
<rect x="419" y="568.5" width="30" height="40" fill="green" />
<rect x="449.5" y="568.5" width="30" height="40" fill="green" />
<rect x="480" y="568.5" width="30" height="40" fill="green" />
<rect x="510.5" y="568.5" width="30" height="40" fill="green" />
<rect x="541" y="568.5" width="30" height="40" fill="green" />
<rect x="168" y="609" width="30" height="40" fill="green" />
<rect x="198.5" y="609" width="30" height="40" fill="green" />
<rect x="229" y="609" width="30" height="40" fill="green" />
<rect x="259.5" y="609" width="30" height="40" fill="green" />
<rect x="290" y="609" width="30" height="40" fill="green" />
<rect x="320.5" y="609" width="30" height="40" fill="green" />
<rect x="351" y="609" width="30" height="40" fill="green" />
<rect x="381.5" y="609" width="30" height="40" fill="green" />
<rect x="412" y="609" width="30" height="40" fill="green" />
<rect x="442.5" y="609" width="30" height="40" fill="green" />
<rect x="473" y="609" width="30" height="40" fill="green" />
<rect x="264" y="649.5" width="30" height="40" fill="green" />
<rect x="294.5" y="649.5" width="30" height="40" fill="green" />
<rect x="325" y="649.5" width="30" height="40" fill="green" />
<rect x="355.5" y="649.5" width="30" height="40" fill="green" />
<rect x="386" y="649.5" width="30" height="40" fill="green" />

</svg>