<svg version="1.1" baseProfile="full" width="500" height="400" xmlns="http://www.w3.org/2000/svg"> <rect width="100%" height="100%" fill="red" />
	<polygon points="0 0 40 0 20 34.641" fill="yellow"/>
	<polygon points="40 0 80 0 60 34.641" fill="yellow"/>
	<polygon points="80 0 120 0 100 34.641" fill="yellow"/>
	<polygon points="120 0 160 0 140 34.641" fill="yellow"/>
	<polygon points="160 0 200 0 180 34.641" fill="yellow"/>
	<polygon points="200 0 240 0 220 34.641" fill="yellow"/>
	<polygon points="240 0 280 0 260 34.641" fill="yellow"/>
	<polygon points="280 0 320 0 300 34.641" fill="yellow"/>
	<polygon points="320 0 360 0 340 34.641" fill="yellow"/>
	<polygon points="360 0 400 0 380 34.641" fill="yellow"/>
	<polygon points="400 0 440 0 420 34.641" fill="yellow"/>
	<polygon points="440 0 480 0 460 34.641" fill="yellow"/>
	<polygon points="0 34.641 40 34.641 20 69.282" fill="yellow"/>
	<polygon points="40 34.641 80 34.641 60 69.282" fill="yellow"/>
	<polygon points="80 34.641 120 34.641 100 69.282" fill="yellow"/>
	<polygon points="120 34.641 160 34.641 140 69.282" fill="yellow"/>
	<polygon points="160 34.641 200 34.641 180 69.282" fill="yellow"/>
	<polygon points="200 34.641 240 34.641 220 69.282" fill="yellow"/>
	<polygon points="240 34.641 280 34.641 260 69.282" fill="yellow"/>
	<polygon points="280 34.641 320 34.641 300 69.282" fill="yellow"/>
	<polygon points="320 34.641 360 34.641 340 69.282" fill="yellow"/>
	<polygon points="360 34.641 400 34.641 380 69.282" fill="yellow"/>
	<polygon points="400 34.641 440 34.641 420 69.282" fill="yellow"/>
	<polygon points="440 34.641 480 34.641 460 69.282" fill="yellow"/>
	<polygon points="0 69.282 40 69.282 20 103.923" fill="yellow"/>
	<polygon points="40 69.282 80 69.282 60 103.923" fill="yellow"/>
	<polygon points="80 69.282 120 69.282 100 103.923" fill="yellow"/>
	<polygon points="120 69.282 160 69.282 140 103.923" fill="yellow"/>
	<polygon points="160 69.282 200 69.282 180 103.923" fill="yellow"/>
	<polygon points="200 69.282 240 69.282 220 103.923" fill="yellow"/>
	<polygon points="240 69.282 280 69.282 260 103.923" fill="yellow"/>
	<polygon points="280 69.282 320 69.282 300 103.923" fill="yellow"/>
	<polygon points="320 69.282 360 69.282 340 103.923" fill="yellow"/>
	<polygon points="360 69.282 400 69.282 380 103.923" fill="yellow"/>
	<polygon points="400 69.282 440 69.282 420 103.923" fill="yellow"/>
	<polygon points="440 69.282 480 69.282 460 103.923" fill="yellow"/>
	<polygon points="0 103.923 40 103.923 20 138.564" fill="yellow"/>
	<polygon points="40 103.923 80 103.923 60 138.564" fill="yellow"/>
	<polygon points="80 103.923 120 103.923 100 138.564" fill="yellow"/>
	<polygon points="120 103.923 160 103.923 140 138.564" fill="yellow"/>
	<polygon points="160 103.923 200 103.923 180 138.564" fill="yellow"/>
	<polygon points="200 103.923 240 103.923 220 138.564" fill="yellow"/>
	<polygon points="240 103.923 280 103.923 260 138.564" fill="yellow"/>
	<polygon points="280 103.923 320 103.923 300 138.564" fill="yellow"/>
	<polygon points="320 103.923 360 103.923 340 138.564" fill="yellow"/>
	<polygon points="360 103.923 400 103.923 380 138.564" fill="yellow"/>
	<polygon points="400 103.923 440 103.923 420 138.564" fill="yellow"/>
	<polygon points="440 103.923 480 103.923 460 138.564" fill="yellow"/>
	<polygon points="0 138.564 40 138.564 20 173.205" fill="yellow"/>
	<polygon points="40 138.564 80 138.564 60 173.205" fill="yellow"/>
	<polygon points="80 138.564 120 138.564 100 173.205" fill="yellow"/>
	<polygon points="120 138.564 160 138.564 140 173.205" fill="yellow"/>
	<polygon points="160 138.564 200 138.564 180 173.205" fill="yellow"/>
	<polygon points="200 138.564 240 138.564 220 173.205" fill="yellow"/>
	<polygon points="240 138.564 280 138.564 260 173.205" fill="yellow"/>
	<polygon points="280 138.564 320 138.564 300 173.205" fill="yellow"/>
	<polygon points="320 138.564 360 138.564 340 173.205" fill="yellow"/>
	<polygon points="360 138.564 400 138.564 380 173.205" fill="yellow"/>
	<polygon points="400 138.564 440 138.564 420 173.205" fill="yellow"/>
	<polygon points="440 138.564 480 138.564 460 173.205" fill="yellow"/>
	<polygon points="0 173.205 40 173.205 20 207.846" fill="yellow"/>
	<polygon points="40 173.205 80 173.205 60 207.846" fill="yellow"/>
	<polygon points="80 173.205 120 173.205 100 207.846" fill="yellow"/>
	<polygon points="120 173.205 160 173.205 140 207.846" fill="yellow"/>
	<polygon points="160 173.205 200 173.205 180 207.846" fill="yellow"/>
	<polygon points="200 173.205 240 173.205 220 207.846" fill="yellow"/>
	<polygon points="240 173.205 280 173.205 260 207.846" fill="yellow"/>
	<polygon points="280 173.205 320 173.205 300 207.846" fill="yellow"/>
	<polygon points="320 173.205 360 173.205 340 207.846" fill="yellow"/>
	<polygon points="360 173.205 400 173.205 380 207.846" fill="yellow"/>
	<polygon points="400 173.205 440 173.205 420 207.846" fill="yellow"/>
	<polygon points="440 173.205 480 173.205 460 207.846" fill="yellow"/>
	<polygon points="0 207.846 40 207.846 20 242.487" fill="yellow"/>
	<polygon points="40 207.846 80 207.846 60 242.487" fill="yellow"/>
	<polygon points="80 207.846 120 207.846 100 242.487" fill="yellow"/>
	<polygon points="120 207.846 160 207.846 140 242.487" fill="yellow"/>
	<polygon points="160 207.846 200 207.846 180 242.487" fill="yellow"/>
	<polygon points="200 207.846 240 207.846 220 242.487" fill="yellow"/>
	<polygon points="240 207.846 280 207.846 260 242.487" fill="yellow"/>
	<polygon points="280 207.846 320 207.846 300 242.487" fill="yellow"/>
	<polygon points="320 207.846 360 207.846 340 242.487" fill="yellow"/>
	<polygon points="360 207.846 400 207.846 380 242.487" fill="yellow"/>
	<polygon points="400 207.846 440 207.846 420 242.487" fill="yellow"/>
	<polygon points="440 207.846 480 207.846 460 242.487" fill="yellow"/>
	<polygon points="0 242.487 40 242.487 20 277.128" fill="yellow"/>
	<polygon points="40 242.487 80 242.487 60 277.128" fill="yellow"/>
	<polygon points="80 242.487 120 242.487 100 277.128" fill="yellow"/>
	<polygon points="120 242.487 160 242.487 140 277.128" fill="yellow"/>
	<polygon points="160 242.487 200 242.487 180 277.128" fill="yellow"/>
	<polygon points="200 242.487 240 242.487 220 277.128" fill="yellow"/>
	<polygon points="240 242.487 280 242.487 260 277.128" fill="yellow"/>
	<polygon points="280 242.487 320 242.487 300 277.128" fill="yellow"/>
	<polygon points="320 242.487 360 242.487 340 277.128" fill="yellow"/>
	<polygon points="360 242.487 400 242.487 380 277.128" fill="yellow"/>
	<polygon points="400 242.487 440 242.487 420 277.128" fill="yellow"/>
	<polygon points="440 242.487 480 242.487 460 277.128" fill="yellow"/>
	<polygon points="0 277.128 40 277.128 20 311.769" fill="yellow"/>
	<polygon points="40 277.128 80 277.128 60 311.769" fill="yellow"/>
	<polygon points="80 277.128 120 277.128 100 311.769" fill="yellow"/>
	<polygon points="120 277.128 160 277.128 140 311.769" fill="yellow"/>
	<polygon points="160 277.128 200 277.128 180 311.769" fill="yellow"/>
	<polygon points="200 277.128 240 277.128 220 311.769" fill="yellow"/>
	<polygon points="240 277.128 280 277.128 260 311.769" fill="yellow"/>
	<polygon points="280 277.128 320 277.128 300 311.769" fill="yellow"/>
	<polygon points="320 277.128 360 277.128 340 311.769" fill="yellow"/>
	<polygon points="360 277.128 400 277.128 380 311.769" fill="yellow"/>
	<polygon points="400 277.128 440 277.128 420 311.769" fill="yellow"/>
	<polygon points="440 277.128 480 277.128 460 311.769" fill="yellow"/>
	<polygon points="0 311.769 40 311.769 20 346.41" fill="yellow"/>
	<polygon points="40 311.769 80 311.769 60 346.41" fill="yellow"/>
	<polygon points="80 311.769 120 311.769 100 346.41" fill="yellow"/>
	<polygon points="120 311.769 160 311.769 140 346.41" fill="yellow"/>
	<polygon points="160 311.769 200 311.769 180 346.41" fill="yellow"/>
	<polygon points="200 311.769 240 311.769 220 346.41" fill="yellow"/>
	<polygon points="240 311.769 280 311.769 260 346.41" fill="yellow"/>
	<polygon points="280 311.769 320 311.769 300 346.41" fill="yellow"/>
	<polygon points="320 311.769 360 311.769 340 346.41" fill="yellow"/>
	<polygon points="360 311.769 400 311.769 380 346.41" fill="yellow"/>
	<polygon points="400 311.769 440 311.769 420 346.41" fill="yellow"/>
	<polygon points="440 311.769 480 311.769 460 346.41" fill="yellow"/>
	<polygon points="0 346.41 40 346.41 20 381.051" fill="yellow"/>
	<polygon points="40 346.41 80 346.41 60 381.051" fill="yellow"/>
	<polygon points="80 346.41 120 346.41 100 381.051" fill="yellow"/>
	<polygon points="120 346.41 160 346.41 140 381.051" fill="yellow"/>
	<polygon points="160 346.41 200 346.41 180 381.051" fill="yellow"/>
	<polygon points="200 346.41 240 346.41 220 381.051" fill="yellow"/>
	<polygon points="240 346.41 280 346.41 260 381.051" fill="yellow"/>
	<polygon points="280 346.41 320 346.41 300 381.051" fill="yellow"/>
	<polygon points="320 346.41 360 346.41 340 381.051" fill="yellow"/>
	<polygon points="360 346.41 400 346.41 380 381.051" fill="yellow"/>
	<polygon points="400 346.41 440 346.41 420 381.051" fill="yellow"/>
	<polygon points="440 346.41 480 346.41 460 381.051" fill="yellow"/>
	<polygon points="40 0 20 34.641 60 34.641" fill="green"/>
	<polygon points="80 0 60 34.641 100 34.641" fill="green"/>
	<polygon points="120 0 100 34.641 140 34.641" fill="green"/>
	<polygon points="160 0 140 34.641 180 34.641" fill="green"/>
	<polygon points="200 0 180 34.641 220 34.641" fill="green"/>
	<polygon points="240 0 220 34.641 260 34.641" fill="green"/>
	<polygon points="280 0 260 34.641 300 34.641" fill="green"/>
	<polygon points="320 0 300 34.641 340 34.641" fill="green"/>
	<polygon points="360 0 340 34.641 380 34.641" fill="green"/>
	<polygon points="400 0 380 34.641 420 34.641" fill="green"/>
	<polygon points="440 0 420 34.641 460 34.641" fill="green"/>
	<polygon points="480 0 460 34.641 500 34.641" fill="green"/>
	<polygon points="40 34.641 20 69.282 60 69.282" fill="green"/>
	<polygon points="80 34.641 60 69.282 100 69.282" fill="green"/>
	<polygon points="120 34.641 100 69.282 140 69.282" fill="green"/>
	<polygon points="160 34.641 140 69.282 180 69.282" fill="green"/>
	<polygon points="200 34.641 180 69.282 220 69.282" fill="green"/>
	<polygon points="240 34.641 220 69.282 260 69.282" fill="green"/>
	<polygon points="280 34.641 260 69.282 300 69.282" fill="green"/>
	<polygon points="320 34.641 300 69.282 340 69.282" fill="green"/>
	<polygon points="360 34.641 340 69.282 380 69.282" fill="green"/>
	<polygon points="400 34.641 380 69.282 420 69.282" fill="green"/>
	<polygon points="440 34.641 420 69.282 460 69.282" fill="green"/>
	<polygon points="480 34.641 460 69.282 500 69.282" fill="green"/>
	<polygon points="40 69.282 20 103.923 60 103.923" fill="green"/>
	<polygon points="80 69.282 60 103.923 100 103.923" fill="green"/>
	<polygon points="120 69.282 100 103.923 140 103.923" fill="green"/>
	<polygon points="160 69.282 140 103.923 180 103.923" fill="green"/>
	<polygon points="200 69.282 180 103.923 220 103.923" fill="green"/>
	<polygon points="240 69.282 220 103.923 260 103.923" fill="green"/>
	<polygon points="280 69.282 260 103.923 300 103.923" fill="green"/>
	<polygon points="320 69.282 300 103.923 340 103.923" fill="green"/>
	<polygon points="360 69.282 340 103.923 380 103.923" fill="green"/>
	<polygon points="400 69.282 380 103.923 420 103.923" fill="green"/>
	<polygon points="440 69.282 420 103.923 460 103.923" fill="green"/>
	<polygon points="480 69.282 460 103.923 500 103.923" fill="green"/>
	<polygon points="40 103.923 20 138.564 60 138.564" fill="green"/>
	<polygon points="80 103.923 60 138.564 100 138.564" fill="green"/>
	<polygon points="120 103.923 100 138.564 140 138.564" fill="green"/>
	<polygon points="160 103.923 140 138.564 180 138.564" fill="green"/>
	<polygon points="200 103.923 180 138.564 220 138.564" fill="green"/>
	<polygon points="240 103.923 220 138.564 260 138.564" fill="green"/>
	<polygon points="280 103.923 260 138.564 300 138.564" fill="green"/>
	<polygon points="320 103.923 300 138.564 340 138.564" fill="green"/>
	<polygon points="360 103.923 340 138.564 380 138.564" fill="green"/>
	<polygon points="400 103.923 380 138.564 420 138.564" fill="green"/>
	<polygon points="440 103.923 420 138.564 460 138.564" fill="green"/>
	<polygon points="480 103.923 460 138.564 500 138.564" fill="green"/>
	<polygon points="40 138.564 20 173.205 60 173.205" fill="green"/>
	<polygon points="80 138.564 60 173.205 100 173.205" fill="green"/>
	<polygon points="120 138.564 100 173.205 140 173.205" fill="green"/>
	<polygon points="160 138.564 140 173.205 180 173.205" fill="green"/>
	<polygon points="200 138.564 180 173.205 220 173.205" fill="green"/>
	<polygon points="240 138.564 220 173.205 260 173.205" fill="green"/>
	<polygon points="280 138.564 260 173.205 300 173.205" fill="green"/>
	<polygon points="320 138.564 300 173.205 340 173.205" fill="green"/>
	<polygon points="360 138.564 340 173.205 380 173.205" fill="green"/>
	<polygon points="400 138.564 380 173.205 420 173.205" fill="green"/>
	<polygon points="440 138.564 420 173.205 460 173.205" fill="green"/>
	<polygon points="480 138.564 460 173.205 500 173.205" fill="green"/>
	<polygon points="40 173.205 20 207.846 60 207.846" fill="green"/>
	<polygon points="80 173.205 60 207.846 100 207.846" fill="green"/>
	<polygon points="120 173.205 100 207.846 140 207.846" fill="green"/>
	<polygon points="160 173.205 140 207.846 180 207.846" fill="green"/>
	<polygon points="200 173.205 180 207.846 220 207.846" fill="green"/>
	<polygon points="240 173.205 220 207.846 260 207.846" fill="green"/>
	<polygon points="280 173.205 260 207.846 300 207.846" fill="green"/>
	<polygon points="320 173.205 300 207.846 340 207.846" fill="green"/>
	<polygon points="360 173.205 340 207.846 380 207.846" fill="green"/>
	<polygon points="400 173.205 380 207.846 420 207.846" fill="green"/>
	<polygon points="440 173.205 420 207.846 460 207.846" fill="green"/>
	<polygon points="480 173.205 460 207.846 500 207.846" fill="green"/>
	<polygon points="40 207.846 20 242.487 60 242.487" fill="green"/>
	<polygon points="80 207.846 60 242.487 100 242.487" fill="green"/>
	<polygon points="120 207.846 100 242.487 140 242.487" fill="green"/>
	<polygon points="160 207.846 140 242.487 180 242.487" fill="green"/>
	<polygon points="200 207.846 180 242.487 220 242.487" fill="green"/>
	<polygon points="240 207.846 220 242.487 260 242.487" fill="green"/>
	<polygon points="280 207.846 260 242.487 300 242.487" fill="green"/>
	<polygon points="320 207.846 300 242.487 340 242.487" fill="green"/>
	<polygon points="360 207.846 340 242.487 380 242.487" fill="green"/>
	<polygon points="400 207.846 380 242.487 420 242.487" fill="green"/>
	<polygon points="440 207.846 420 242.487 460 242.487" fill="green"/>
	<polygon points="480 207.846 460 242.487 500 242.487" fill="green"/>
	<polygon points="40 242.487 20 277.128 60 277.128" fill="green"/>
	<polygon points="80 242.487 60 277.128 100 277.128" fill="green"/>
	<polygon points="120 242.487 100 277.128 140 277.128" fill="green"/>
	<polygon points="160 242.487 140 277.128 180 277.128" fill="green"/>
	<polygon points="200 242.487 180 277.128 220 277.128" fill="green"/>
	<polygon points="240 242.487 220 277.128 260 277.128" fill="green"/>
	<polygon points="280 242.487 260 277.128 300 277.128" fill="green"/>
	<polygon points="320 242.487 300 277.128 340 277.128" fill="green"/>
	<polygon points="360 242.487 340 277.128 380 277.128" fill="green"/>
	<polygon points="400 242.487 380 277.128 420 277.128" fill="green"/>
	<polygon points="440 242.487 420 277.128 460 277.128" fill="green"/>
	<polygon points="480 242.487 460 277.128 500 277.128" fill="green"/>
	<polygon points="40 277.128 20 311.769 60 311.769" fill="green"/>
	<polygon points="80 277.128 60 311.769 100 311.769" fill="green"/>
	<polygon points="120 277.128 100 311.769 140 311.769" fill="green"/>
	<polygon points="160 277.128 140 311.769 180 311.769" fill="green"/>
	<polygon points="200 277.128 180 311.769 220 311.769" fill="green"/>
	<polygon points="240 277.128 220 311.769 260 311.769" fill="green"/>
	<polygon points="280 277.128 260 311.769 300 311.769" fill="green"/>
	<polygon points="320 277.128 300 311.769 340 311.769" fill="green"/>
	<polygon points="360 277.128 340 311.769 380 311.769" fill="green"/>
	<polygon points="400 277.128 380 311.769 420 311.769" fill="green"/>
	<polygon points="440 277.128 420 311.769 460 311.769" fill="green"/>
	<polygon points="480 277.128 460 311.769 500 311.769" fill="green"/>
	<polygon points="40 311.769 20 346.41 60 346.41" fill="green"/>
	<polygon points="80 311.769 60 346.41 100 346.41" fill="green"/>
	<polygon points="120 311.769 100 346.41 140 346.41" fill="green"/>
	<polygon points="160 311.769 140 346.41 180 346.41" fill="green"/>
	<polygon points="200 311.769 180 346.41 220 346.41" fill="green"/>
	<polygon points="240 311.769 220 346.41 260 346.41" fill="green"/>
	<polygon points="280 311.769 260 346.41 300 346.41" fill="green"/>
	<polygon points="320 311.769 300 346.41 340 346.41" fill="green"/>
	<polygon points="360 311.769 340 346.41 380 346.41" fill="green"/>
	<polygon points="400 311.769 380 346.41 420 346.41" fill="green"/>
	<polygon points="440 311.769 420 346.41 460 346.41" fill="green"/>
	<polygon points="480 311.769 460 346.41 500 346.41" fill="green"/>
	<polygon points="40 346.41 20 381.051 60 381.051" fill="green"/>
	<polygon points="80 346.41 60 381.051 100 381.051" fill="green"/>
	<polygon points="120 346.41 100 381.051 140 381.051" fill="green"/>
	<polygon points="160 346.41 140 381.051 180 381.051" fill="green"/>
	<polygon points="200 346.41 180 381.051 220 381.051" fill="green"/>
	<polygon points="240 346.41 220 381.051 260 381.051" fill="green"/>
	<polygon points="280 346.41 260 381.051 300 381.051" fill="green"/>
	<polygon points="320 346.41 300 381.051 340 381.051" fill="green"/>
	<polygon points="360 346.41 340 381.051 380 381.051" fill="green"/>
	<polygon points="400 346.41 380 381.051 420 381.051" fill="green"/>
	<polygon points="440 346.41 420 381.051 460 381.051" fill="green"/>
	<polygon points="480 346.41 460 381.051 500 381.051" fill="green"/>

</svg>