<svg version="1.1" baseProfile="full" width="450" height="500" xmlns="http://www.w3.org/2000/svg"> <rect width="100%" height="100%" fill="red" />
<svg xmlns="http://www.w3.org/2000/svg">
	<polygon points=" 75 40  74.9408 41.8837  74.7634 43.76  74.4686 45.6214  74.0575 47.4607  73.5317 49.2705  72.8933 51.0437  72.1448 52.7734  71.2892 54.4526  70.3298 56.0748  69.2705 57.6336  68.1154 59.1227  66.8691 60.5364  65.5364 61.8691  64.1227 63.1154  62.6336 64.2705  61.0748 65.3298  59.4526 66.2892  57.7734 67.1448  56.0437 67.8933  54.2705 68.5317  52.4607 69.0575  50.6214 69.4686  48.76 69.7634  46.8837 69.9408  45 70  43.1163 69.9408  41.24 69.7634  39.3786 69.4686  37.5393 69.0575  35.7295 68.5317  33.9563 67.8933  32.2266 67.1448  30.5474 66.2892  28.9252 65.3298  27.3664 64.2705  25.8773 63.1154  24.4636 61.8691  23.1309 60.5364  21.8846 59.1227  20.7295 57.6336  19.6702 56.0748  18.7108 54.4526  17.8552 52.7734  17.1067 51.0437  16.4683 49.2705  15.9425 47.4607  15.5314 45.6214  15.2366 43.76  15.0592 41.8837  15 40  15.0592 38.1163  15.2366 36.24  15.5314 34.3786  15.9425 32.5393  16.4683 30.7295  17.1067 28.9563  17.8552 27.2266  18.7108 25.5474  19.6702 23.9252  20.7295 22.3664  21.8846 20.8773  23.1309 19.4636  24.4636 18.1309  25.8773 16.8846  27.3664 15.7295  28.9252 14.6702  30.5474 13.7108  32.2266 12.8552  33.9563 12.1067  35.7295 11.4683  37.5393 10.9425  39.3786 10.5314  41.24 10.2366  43.1163 10.0592  45 10  46.8837 10.0592  48.76 10.2366  50.6214 10.5314  52.4607 10.9425  54.2705 11.4683  56.0437 12.1067  57.7734 12.8552  59.4526 13.7108  61.0748 14.6702  62.6336 15.7295  64.1227 16.8846  65.5364 18.1309  66.8691 19.4636  68.1154 20.8773  69.2705 22.3664  70.3298 23.9252  71.2892 25.5474  72.1448 27.2266  72.8933 28.9563  73.5317 30.7295  74.0575 32.5393  74.4686 34.3786  74.7634 36.24  74.9408 38.1163 " fill="green" stroke="blue" stroke-width="0.1" /> </svg><svg xmlns="http://www.w3.org/2000/svg">
	<polygon points=" 135 40  134.941 41.8837  134.763 43.76  134.469 45.6214  134.057 47.4607  133.532 49.2705  132.893 51.0437  132.145 52.7734  131.289 54.4526  130.33 56.0748  129.271 57.6336  128.115 59.1227  126.869 60.5364  125.536 61.8691  124.123 63.1154  122.634 64.2705  121.075 65.3298  119.453 66.2892  117.773 67.1448  116.044 67.8933  114.271 68.5317  112.461 69.0575  110.621 69.4686  108.76 69.7634  106.884 69.9408  105 70  103.116 69.9408  101.24 69.7634  99.3786 69.4686  97.5393 69.0575  95.7295 68.5317  93.9563 67.8933  92.2266 67.1448  90.5474 66.2892  88.9252 65.3298  87.3664 64.2705  85.8773 63.1154  84.4636 61.8691  83.1309 60.5364  81.8846 59.1227  80.7295 57.6336  79.6702 56.0748  78.7108 54.4526  77.8552 52.7734  77.1067 51.0437  76.4683 49.2705  75.9425 47.4607  75.5314 45.6214  75.2366 43.76  75.0592 41.8837  75 40  75.0592 38.1163  75.2366 36.24  75.5314 34.3786  75.9425 32.5393  76.4683 30.7295  77.1067 28.9563  77.8552 27.2266  78.7108 25.5474  79.6702 23.9252  80.7295 22.3664  81.8846 20.8773  83.1309 19.4636  84.4636 18.1309  85.8773 16.8846  87.3664 15.7295  88.9252 14.6702  90.5474 13.7108  92.2266 12.8552  93.9563 12.1067  95.7295 11.4683  97.5393 10.9425  99.3786 10.5314  101.24 10.2366  103.116 10.0592  105 10  106.884 10.0592  108.76 10.2366  110.621 10.5314  112.461 10.9425  114.271 11.4683  116.044 12.1067  117.773 12.8552  119.453 13.7108  121.075 14.6702  122.634 15.7295  124.123 16.8846  125.536 18.1309  126.869 19.4636  128.115 20.8773  129.271 22.3664  130.33 23.9252  131.289 25.5474  132.145 27.2266  132.893 28.9563  133.532 30.7295  134.057 32.5393  134.469 34.3786  134.763 36.24  134.941 38.1163 " fill="green" stroke="blue" stroke-width="0.1" /> </svg><svg xmlns="http://www.w3.org/2000/svg">
	<polygon points=" 195 40  194.941 41.8837  194.763 43.76  194.469 45.6214  194.057 47.4607  193.532 49.2705  192.893 51.0437  192.145 52.7734  191.289 54.4526  190.33 56.0748  189.271 57.6336  188.115 59.1227  186.869 60.5364  185.536 61.8691  184.123 63.1154  182.634 64.2705  181.075 65.3298  179.453 66.2892  177.773 67.1448  176.044 67.8933  174.271 68.5317  172.461 69.0575  170.621 69.4686  168.76 69.7634  166.884 69.9408  165 70  163.116 69.9408  161.24 69.7634  159.379 69.4686  157.539 69.0575  155.729 68.5317  153.956 67.8933  152.227 67.1448  150.547 66.2892  148.925 65.3298  147.366 64.2705  145.877 63.1154  144.464 61.8691  143.131 60.5364  141.885 59.1227  140.729 57.6336  139.67 56.0748  138.711 54.4526  137.855 52.7734  137.107 51.0437  136.468 49.2705  135.943 47.4607  135.531 45.6214  135.237 43.76  135.059 41.8837  135 40  135.059 38.1163  135.237 36.24  135.531 34.3786  135.943 32.5393  136.468 30.7295  137.107 28.9563  137.855 27.2266  138.711 25.5474  139.67 23.9252  140.729 22.3664  141.885 20.8773  143.131 19.4636  144.464 18.1309  145.877 16.8846  147.366 15.7295  148.925 14.6702  150.547 13.7108  152.227 12.8552  153.956 12.1067  155.729 11.4683  157.539 10.9425  159.379 10.5314  161.24 10.2366  163.116 10.0592  165 10  166.884 10.0592  168.76 10.2366  170.621 10.5314  172.461 10.9425  174.271 11.4683  176.044 12.1067  177.773 12.8552  179.453 13.7108  181.075 14.6702  182.634 15.7295  184.123 16.8846  185.536 18.1309  186.869 19.4636  188.115 20.8773  189.271 22.3664  190.33 23.9252  191.289 25.5474  192.145 27.2266  192.893 28.9563  193.532 30.7295  194.057 32.5393  194.469 34.3786  194.763 36.24  194.941 38.1163 " fill="green" stroke="blue" stroke-width="0.1" /> </svg><svg xmlns="http://www.w3.org/2000/svg">
	<polygon points=" 255 40  254.941 41.8837  254.763 43.76  254.469 45.6214  254.057 47.4607  253.532 49.2705  252.893 51.0437  252.145 52.7734  251.289 54.4526  250.33 56.0748  249.271 57.6336  248.115 59.1227  246.869 60.5364  245.536 61.8691  244.123 63.1154  242.634 64.2705  241.075 65.3298  239.453 66.2892  237.773 67.1448  236.044 67.8933  234.271 68.5317  232.461 69.0575  230.621 69.4686  228.76 69.7634  226.884 69.9408  225 70  223.116 69.9408  221.24 69.7634  219.379 69.4686  217.539 69.0575  215.729 68.5317  213.956 67.8933  212.227 67.1448  210.547 66.2892  208.925 65.3298  207.366 64.2705  205.877 63.1154  204.464 61.8691  203.131 60.5364  201.885 59.1227  200.729 57.6336  199.67 56.0748  198.711 54.4526  197.855 52.7734  197.107 51.0437  196.468 49.2705  195.943 47.4607  195.531 45.6214  195.237 43.76  195.059 41.8837  195 40  195.059 38.1163  195.237 36.24  195.531 34.3786  195.943 32.5393  196.468 30.7295  197.107 28.9563  197.855 27.2266  198.711 25.5474  199.67 23.9252  200.729 22.3664  201.885 20.8773  203.131 19.4636  204.464 18.1309  205.877 16.8846  207.366 15.7295  208.925 14.6702  210.547 13.7108  212.227 12.8552  213.956 12.1067  215.729 11.4683  217.539 10.9425  219.379 10.5314  221.24 10.2366  223.116 10.0592  225 10  226.884 10.0592  228.76 10.2366  230.621 10.5314  232.461 10.9425  234.271 11.4683  236.044 12.1067  237.773 12.8552  239.453 13.7108  241.075 14.6702  242.634 15.7295  244.123 16.8846  245.536 18.1309  246.869 19.4636  248.115 20.8773  249.271 22.3664  250.33 23.9252  251.289 25.5474  252.145 27.2266  252.893 28.9563  253.532 30.7295  254.057 32.5393  254.469 34.3786  254.763 36.24  254.941 38.1163 " fill="green" stroke="blue" stroke-width="0.1" /> </svg><svg xmlns="http://www.w3.org/2000/svg">
	<polygon points=" 315 40  314.941 41.8837  314.763 43.76  314.469 45.6214  314.057 47.4607  313.532 49.2705  312.893 51.0437  312.145 52.7734  311.289 54.4526  310.33 56.0748  309.271 57.6336  308.115 59.1227  306.869 60.5364  305.536 61.8691  304.123 63.1154  302.634 64.2705  301.075 65.3298  299.453 66.2892  297.773 67.1448  296.044 67.8933  294.271 68.5317  292.461 69.0575  290.621 69.4686  288.76 69.7634  286.884 69.9408  285 70  283.116 69.9408  281.24 69.7634  279.379 69.4686  277.539 69.0575  275.729 68.5317  273.956 67.8933  272.227 67.1448  270.547 66.2892  268.925 65.3298  267.366 64.2705  265.877 63.1154  264.464 61.8691  263.131 60.5364  261.885 59.1227  260.729 57.6336  259.67 56.0748  258.711 54.4526  257.855 52.7734  257.107 51.0437  256.468 49.2705  255.943 47.4607  255.531 45.6214  255.237 43.76  255.059 41.8837  255 40  255.059 38.1163  255.237 36.24  255.531 34.3786  255.943 32.5393  256.468 30.7295  257.107 28.9563  257.855 27.2266  258.711 25.5474  259.67 23.9252  260.729 22.3664  261.885 20.8773  263.131 19.4636  264.464 18.1309  265.877 16.8846  267.366 15.7295  268.925 14.6702  270.547 13.7108  272.227 12.8552  273.956 12.1067  275.729 11.4683  277.539 10.9425  279.379 10.5314  281.24 10.2366  283.116 10.0592  285 10  286.884 10.0592  288.76 10.2366  290.621 10.5314  292.461 10.9425  294.271 11.4683  296.044 12.1067  297.773 12.8552  299.453 13.7108  301.075 14.6702  302.634 15.7295  304.123 16.8846  305.536 18.1309  306.869 19.4636  308.115 20.8773  309.271 22.3664  310.33 23.9252  311.289 25.5474  312.145 27.2266  312.893 28.9563  313.532 30.7295  314.057 32.5393  314.469 34.3786  314.763 36.24  314.941 38.1163 " fill="green" stroke="blue" stroke-width="0.1" /> </svg><svg xmlns="http://www.w3.org/2000/svg">
	<polygon points=" 375 40  374.941 41.8837  374.763 43.76  374.469 45.6214  374.057 47.4607  373.532 49.2705  372.893 51.0437  372.145 52.7734  371.289 54.4526  370.33 56.0748  369.271 57.6336  368.115 59.1227  366.869 60.5364  365.536 61.8691  364.123 63.1154  362.634 64.2705  361.075 65.3298  359.453 66.2892  357.773 67.1448  356.044 67.8933  354.271 68.5317  352.461 69.0575  350.621 69.4686  348.76 69.7634  346.884 69.9408  345 70  343.116 69.9408  341.24 69.7634  339.379 69.4686  337.539 69.0575  335.729 68.5317  333.956 67.8933  332.227 67.1448  330.547 66.2892  328.925 65.3298  327.366 64.2705  325.877 63.1154  324.464 61.8691  323.131 60.5364  321.885 59.1227  320.729 57.6336  319.67 56.0748  318.711 54.4526  317.855 52.7734  317.107 51.0437  316.468 49.2705  315.943 47.4607  315.531 45.6214  315.237 43.76  315.059 41.8837  315 40  315.059 38.1163  315.237 36.24  315.531 34.3786  315.943 32.5393  316.468 30.7295  317.107 28.9563  317.855 27.2266  318.711 25.5474  319.67 23.9252  320.729 22.3664  321.885 20.8773  323.131 19.4636  324.464 18.1309  325.877 16.8846  327.366 15.7295  328.925 14.6702  330.547 13.7108  332.227 12.8552  333.956 12.1067  335.729 11.4683  337.539 10.9425  339.379 10.5314  341.24 10.2366  343.116 10.0592  345 10  346.884 10.0592  348.76 10.2366  350.621 10.5314  352.461 10.9425  354.271 11.4683  356.044 12.1067  357.773 12.8552  359.453 13.7108  361.075 14.6702  362.634 15.7295  364.123 16.8846  365.536 18.1309  366.869 19.4636  368.115 20.8773  369.271 22.3664  370.33 23.9252  371.289 25.5474  372.145 27.2266  372.893 28.9563  373.532 30.7295  374.057 32.5393  374.469 34.3786  374.763 36.24  374.941 38.1163 " fill="green" stroke="blue" stroke-width="0.1" /> </svg><svg xmlns="http://www.w3.org/2000/svg">
	<polygon points=" 435 40  434.941 41.8837  434.763 43.76  434.469 45.6214  434.057 47.4607  433.532 49.2705  432.893 51.0437  432.145 52.7734  431.289 54.4526  430.33 56.0748  429.271 57.6336  428.115 59.1227  426.869 60.5364  425.536 61.8691  424.123 63.1154  422.634 64.2705  421.075 65.3298  419.453 66.2892  417.773 67.1448  416.044 67.8933  414.271 68.5317  412.461 69.0575  410.621 69.4686  408.76 69.7634  406.884 69.9408  405 70  403.116 69.9408  401.24 69.7634  399.379 69.4686  397.539 69.0575  395.729 68.5317  393.956 67.8933  392.227 67.1448  390.547 66.2892  388.925 65.3298  387.366 64.2705  385.877 63.1154  384.464 61.8691  383.131 60.5364  381.885 59.1227  380.729 57.6336  379.67 56.0748  378.711 54.4526  377.855 52.7734  377.107 51.0437  376.468 49.2705  375.943 47.4607  375.531 45.6214  375.237 43.76  375.059 41.8837  375 40  375.059 38.1163  375.237 36.24  375.531 34.3786  375.943 32.5393  376.468 30.7295  377.107 28.9563  377.855 27.2266  378.711 25.5474  379.67 23.9252  380.729 22.3664  381.885 20.8773  383.131 19.4636  384.464 18.1309  385.877 16.8846  387.366 15.7295  388.925 14.6702  390.547 13.7108  392.227 12.8552  393.956 12.1067  395.729 11.4683  397.539 10.9425  399.379 10.5314  401.24 10.2366  403.116 10.0592  405 10  406.884 10.0592  408.76 10.2366  410.621 10.5314  412.461 10.9425  414.271 11.4683  416.044 12.1067  417.773 12.8552  419.453 13.7108  421.075 14.6702  422.634 15.7295  424.123 16.8846  425.536 18.1309  426.869 19.4636  428.115 20.8773  429.271 22.3664  430.33 23.9252  431.289 25.5474  432.145 27.2266  432.893 28.9563  433.532 30.7295  434.057 32.5393  434.469 34.3786  434.763 36.24  434.941 38.1163 " fill="green" stroke="blue" stroke-width="0.1" /> </svg><svg xmlns="http://www.w3.org/2000/svg">
	<polygon points=" 75 100  74.9408 101.884  74.7634 103.76  74.4686 105.621  74.0575 107.461  73.5317 109.271  72.8933 111.044  72.1448 112.773  71.2892 114.453  70.3298 116.075  69.2705 117.634  68.1154 119.123  66.8691 120.536  65.5364 121.869  64.1227 123.115  62.6336 124.271  61.0748 125.33  59.4526 126.289  57.7734 127.145  56.0437 127.893  54.2705 128.532  52.4607 129.057  50.6214 129.469  48.76 129.763  46.8837 129.941  45 130  43.1163 129.941  41.24 129.763  39.3786 129.469  37.5393 129.057  35.7295 128.532  33.9563 127.893  32.2266 127.145  30.5474 126.289  28.9252 125.33  27.3664 124.271  25.8773 123.115  24.4636 121.869  23.1309 120.536  21.8846 119.123  20.7295 117.634  19.6702 116.075  18.7108 114.453  17.8552 112.773  17.1067 111.044  16.4683 109.271  15.9425 107.461  15.5314 105.621  15.2366 103.76  15.0592 101.884  15 100  15.0592 98.1163  15.2366 96.24  15.5314 94.3786  15.9425 92.5393  16.4683 90.7295  17.1067 88.9563  17.8552 87.2266  18.7108 85.5474  19.6702 83.9252  20.7295 82.3664  21.8846 80.8773  23.1309 79.4636  24.4636 78.1309  25.8773 76.8846  27.3664 75.7295  28.9252 74.6702  30.5474 73.7108  32.2266 72.8552  33.9563 72.1067  35.7295 71.4683  37.5393 70.9425  39.3786 70.5314  41.24 70.2366  43.1163 70.0592  45 70  46.8837 70.0592  48.76 70.2366  50.6214 70.5314  52.4607 70.9425  54.2705 71.4683  56.0437 72.1067  57.7734 72.8552  59.4526 73.7108  61.0748 74.6702  62.6336 75.7295  64.1227 76.8846  65.5364 78.1309  66.8691 79.4636  68.1154 80.8773  69.2705 82.3664  70.3298 83.9252  71.2892 85.5474  72.1448 87.2266  72.8933 88.9563  73.5317 90.7295  74.0575 92.5393  74.4686 94.3786  74.7634 96.24  74.9408 98.1163 " fill="green" stroke="blue" stroke-width="0.1" /> </svg><svg xmlns="http://www.w3.org/2000/svg">
	<polygon points=" 135 100  134.941 101.884  134.763 103.76  134.469 105.621  134.057 107.461  133.532 109.271  132.893 111.044  132.145 112.773  131.289 114.453  130.33 116.075  129.271 117.634  128.115 119.123  126.869 120.536  125.536 121.869  124.123 123.115  122.634 124.271  121.075 125.33  119.453 126.289  117.773 127.145  116.044 127.893  114.271 128.532  112.461 129.057  110.621 129.469  108.76 129.763  106.884 129.941  105 130  103.116 129.941  101.24 129.763  99.3786 129.469  97.5393 129.057  95.7295 128.532  93.9563 127.893  92.2266 127.145  90.5474 126.289  88.9252 125.33  87.3664 124.271  85.8773 123.115  84.4636 121.869  83.1309 120.536  81.8846 119.123  80.7295 117.634  79.6702 116.075  78.7108 114.453  77.8552 112.773  77.1067 111.044  76.4683 109.271  75.9425 107.461  75.5314 105.621  75.2366 103.76  75.0592 101.884  75 100  75.0592 98.1163  75.2366 96.24  75.5314 94.3786  75.9425 92.5393  76.4683 90.7295  77.1067 88.9563  77.8552 87.2266  78.7108 85.5474  79.6702 83.9252  80.7295 82.3664  81.8846 80.8773  83.1309 79.4636  84.4636 78.1309  85.8773 76.8846  87.3664 75.7295  88.9252 74.6702  90.5474 73.7108  92.2266 72.8552  93.9563 72.1067  95.7295 71.4683  97.5393 70.9425  99.3786 70.5314  101.24 70.2366  103.116 70.0592  105 70  106.884 70.0592  108.76 70.2366  110.621 70.5314  112.461 70.9425  114.271 71.4683  116.044 72.1067  117.773 72.8552  119.453 73.7108  121.075 74.6702  122.634 75.7295  124.123 76.8846  125.536 78.1309  126.869 79.4636  128.115 80.8773  129.271 82.3664  130.33 83.9252  131.289 85.5474  132.145 87.2266  132.893 88.9563  133.532 90.7295  134.057 92.5393  134.469 94.3786  134.763 96.24  134.941 98.1163 " fill="green" stroke="blue" stroke-width="0.1" /> </svg><svg xmlns="http://www.w3.org/2000/svg">
	<polygon points=" 195 100  194.941 101.884  194.763 103.76  194.469 105.621  194.057 107.461  193.532 109.271  192.893 111.044  192.145 112.773  191.289 114.453  190.33 116.075  189.271 117.634  188.115 119.123  186.869 120.536  185.536 121.869  184.123 123.115  182.634 124.271  181.075 125.33  179.453 126.289  177.773 127.145  176.044 127.893  174.271 128.532  172.461 129.057  170.621 129.469  168.76 129.763  166.884 129.941  165 130  163.116 129.941  161.24 129.763  159.379 129.469  157.539 129.057  155.729 128.532  153.956 127.893  152.227 127.145  150.547 126.289  148.925 125.33  147.366 124.271  145.877 123.115  144.464 121.869  143.131 120.536  141.885 119.123  140.729 117.634  139.67 116.075  138.711 114.453  137.855 112.773  137.107 111.044  136.468 109.271  135.943 107.461  135.531 105.621  135.237 103.76  135.059 101.884  135 100  135.059 98.1163  135.237 96.24  135.531 94.3786  135.943 92.5393  136.468 90.7295  137.107 88.9563  137.855 87.2266  138.711 85.5474  139.67 83.9252  140.729 82.3664  141.885 80.8773  143.131 79.4636  144.464 78.1309  145.877 76.8846  147.366 75.7295  148.925 74.6702  150.547 73.7108  152.227 72.8552  153.956 72.1067  155.729 71.4683  157.539 70.9425  159.379 70.5314  161.24 70.2366  163.116 70.0592  165 70  166.884 70.0592  168.76 70.2366  170.621 70.5314  172.461 70.9425  174.271 71.4683  176.044 72.1067  177.773 72.8552  179.453 73.7108  181.075 74.6702  182.634 75.7295  184.123 76.8846  185.536 78.1309  186.869 79.4636  188.115 80.8773  189.271 82.3664  190.33 83.9252  191.289 85.5474  192.145 87.2266  192.893 88.9563  193.532 90.7295  194.057 92.5393  194.469 94.3786  194.763 96.24  194.941 98.1163 " fill="green" stroke="blue" stroke-width="0.1" /> </svg><svg xmlns="http://www.w3.org/2000/svg">
	<polygon points=" 255 100  254.941 101.884  254.763 103.76  254.469 105.621  254.057 107.461  253.532 109.271  252.893 111.044  252.145 112.773  251.289 114.453  250.33 116.075  249.271 117.634  248.115 119.123  246.869 120.536  245.536 121.869  244.123 123.115  242.634 124.271  241.075 125.33  239.453 126.289  237.773 127.145  236.044 127.893  234.271 128.532  232.461 129.057  230.621 129.469  228.76 129.763  226.884 129.941  225 130  223.116 129.941  221.24 129.763  219.379 129.469  217.539 129.057  215.729 128.532  213.956 127.893  212.227 127.145  210.547 126.289  208.925 125.33  207.366 124.271  205.877 123.115  204.464 121.869  203.131 120.536  201.885 119.123  200.729 117.634  199.67 116.075  198.711 114.453  197.855 112.773  197.107 111.044  196.468 109.271  195.943 107.461  195.531 105.621  195.237 103.76  195.059 101.884  195 100  195.059 98.1163  195.237 96.24  195.531 94.3786  195.943 92.5393  196.468 90.7295  197.107 88.9563  197.855 87.2266  198.711 85.5474  199.67 83.9252  200.729 82.3664  201.885 80.8773  203.131 79.4636  204.464 78.1309  205.877 76.8846  207.366 75.7295  208.925 74.6702  210.547 73.7108  212.227 72.8552  213.956 72.1067  215.729 71.4683  217.539 70.9425  219.379 70.5314  221.24 70.2366  223.116 70.0592  225 70  226.884 70.0592  228.76 70.2366  230.621 70.5314  232.461 70.9425  234.271 71.4683  236.044 72.1067  237.773 72.8552  239.453 73.7108  241.075 74.6702  242.634 75.7295  244.123 76.8846  245.536 78.1309  246.869 79.4636  248.115 80.8773  249.271 82.3664  250.33 83.9252  251.289 85.5474  252.145 87.2266  252.893 88.9563  253.532 90.7295  254.057 92.5393  254.469 94.3786  254.763 96.24  254.941 98.1163 " fill="green" stroke="blue" stroke-width="0.1" /> </svg><svg xmlns="http://www.w3.org/2000/svg">
	<polygon points=" 315 100  314.941 101.884  314.763 103.76  314.469 105.621  314.057 107.461  313.532 109.271  312.893 111.044  312.145 112.773  311.289 114.453  310.33 116.075  309.271 117.634  308.115 119.123  306.869 120.536  305.536 121.869  304.123 123.115  302.634 124.271  301.075 125.33  299.453 126.289  297.773 127.145  296.044 127.893  294.271 128.532  292.461 129.057  290.621 129.469  288.76 129.763  286.884 129.941  285 130  283.116 129.941  281.24 129.763  279.379 129.469  277.539 129.057  275.729 128.532  273.956 127.893  272.227 127.145  270.547 126.289  268.925 125.33  267.366 124.271  265.877 123.115  264.464 121.869  263.131 120.536  261.885 119.123  260.729 117.634  259.67 116.075  258.711 114.453  257.855 112.773  257.107 111.044  256.468 109.271  255.943 107.461  255.531 105.621  255.237 103.76  255.059 101.884  255 100  255.059 98.1163  255.237 96.24  255.531 94.3786  255.943 92.5393  256.468 90.7295  257.107 88.9563  257.855 87.2266  258.711 85.5474  259.67 83.9252  260.729 82.3664  261.885 80.8773  263.131 79.4636  264.464 78.1309  265.877 76.8846  267.366 75.7295  268.925 74.6702  270.547 73.7108  272.227 72.8552  273.956 72.1067  275.729 71.4683  277.539 70.9425  279.379 70.5314  281.24 70.2366  283.116 70.0592  285 70  286.884 70.0592  288.76 70.2366  290.621 70.5314  292.461 70.9425  294.271 71.4683  296.044 72.1067  297.773 72.8552  299.453 73.7108  301.075 74.6702  302.634 75.7295  304.123 76.8846  305.536 78.1309  306.869 79.4636  308.115 80.8773  309.271 82.3664  310.33 83.9252  311.289 85.5474  312.145 87.2266  312.893 88.9563  313.532 90.7295  314.057 92.5393  314.469 94.3786  314.763 96.24  314.941 98.1163 " fill="green" stroke="blue" stroke-width="0.1" /> </svg><svg xmlns="http://www.w3.org/2000/svg">
	<polygon points=" 375 100  374.941 101.884  374.763 103.76  374.469 105.621  374.057 107.461  373.532 109.271  372.893 111.044  372.145 112.773  371.289 114.453  370.33 116.075  369.271 117.634  368.115 119.123  366.869 120.536  365.536 121.869  364.123 123.115  362.634 124.271  361.075 125.33  359.453 126.289  357.773 127.145  356.044 127.893  354.271 128.532  352.461 129.057  350.621 129.469  348.76 129.763  346.884 129.941  345 130  343.116 129.941  341.24 129.763  339.379 129.469  337.539 129.057  335.729 128.532  333.956 127.893  332.227 127.145  330.547 126.289  328.925 125.33  327.366 124.271  325.877 123.115  324.464 121.869  323.131 120.536  321.885 119.123  320.729 117.634  319.67 116.075  318.711 114.453  317.855 112.773  317.107 111.044  316.468 109.271  315.943 107.461  315.531 105.621  315.237 103.76  315.059 101.884  315 100  315.059 98.1163  315.237 96.24  315.531 94.3786  315.943 92.5393  316.468 90.7295  317.107 88.9563  317.855 87.2266  318.711 85.5474  319.67 83.9252  320.729 82.3664  321.885 80.8773  323.131 79.4636  324.464 78.1309  325.877 76.8846  327.366 75.7295  328.925 74.6702  330.547 73.7108  332.227 72.8552  333.956 72.1067  335.729 71.4683  337.539 70.9425  339.379 70.5314  341.24 70.2366  343.116 70.0592  345 70  346.884 70.0592  348.76 70.2366  350.621 70.5314  352.461 70.9425  354.271 71.4683  356.044 72.1067  357.773 72.8552  359.453 73.7108  361.075 74.6702  362.634 75.7295  364.123 76.8846  365.536 78.1309  366.869 79.4636  368.115 80.8773  369.271 82.3664  370.33 83.9252  371.289 85.5474  372.145 87.2266  372.893 88.9563  373.532 90.7295  374.057 92.5393  374.469 94.3786  374.763 96.24  374.941 98.1163 " fill="green" stroke="blue" stroke-width="0.1" /> </svg><svg xmlns="http://www.w3.org/2000/svg">
	<polygon points=" 435 100  434.941 101.884  434.763 103.76  434.469 105.621  434.057 107.461  433.532 109.271  432.893 111.044  432.145 112.773  431.289 114.453  430.33 116.075  429.271 117.634  428.115 119.123  426.869 120.536  425.536 121.869  424.123 123.115  422.634 124.271  421.075 125.33  419.453 126.289  417.773 127.145  416.044 127.893  414.271 128.532  412.461 129.057  410.621 129.469  408.76 129.763  406.884 129.941  405 130  403.116 129.941  401.24 129.763  399.379 129.469  397.539 129.057  395.729 128.532  393.956 127.893  392.227 127.145  390.547 126.289  388.925 125.33  387.366 124.271  385.877 123.115  384.464 121.869  383.131 120.536  381.885 119.123  380.729 117.634  379.67 116.075  378.711 114.453  377.855 112.773  377.107 111.044  376.468 109.271  375.943 107.461  375.531 105.621  375.237 103.76  375.059 101.884  375 100  375.059 98.1163  375.237 96.24  375.531 94.3786  375.943 92.5393  376.468 90.7295  377.107 88.9563  377.855 87.2266  378.711 85.5474  379.67 83.9252  380.729 82.3664  381.885 80.8773  383.131 79.4636  384.464 78.1309  385.877 76.8846  387.366 75.7295  388.925 74.6702  390.547 73.7108  392.227 72.8552  393.956 72.1067  395.729 71.4683  397.539 70.9425  399.379 70.5314  401.24 70.2366  403.116 70.0592  405 70  406.884 70.0592  408.76 70.2366  410.621 70.5314  412.461 70.9425  414.271 71.4683  416.044 72.1067  417.773 72.8552  419.453 73.7108  421.075 74.6702  422.634 75.7295  424.123 76.8846  425.536 78.1309  426.869 79.4636  428.115 80.8773  429.271 82.3664  430.33 83.9252  431.289 85.5474  432.145 87.2266  432.893 88.9563  433.532 90.7295  434.057 92.5393  434.469 94.3786  434.763 96.24  434.941 98.1163 " fill="green" stroke="blue" stroke-width="0.1" /> </svg><svg xmlns="http://www.w3.org/2000/svg">
	<polygon points=" 75 160  74.9408 161.884  74.7634 163.76  74.4686 165.621  74.0575 167.461  73.5317 169.271  72.8933 171.044  72.1448 172.773  71.2892 174.453  70.3298 176.075  69.2705 177.634  68.1154 179.123  66.8691 180.536  65.5364 181.869  64.1227 183.115  62.6336 184.271  61.0748 185.33  59.4526 186.289  57.7734 187.145  56.0437 187.893  54.2705 188.532  52.4607 189.057  50.6214 189.469  48.76 189.763  46.8837 189.941  45 190  43.1163 189.941  41.24 189.763  39.3786 189.469  37.5393 189.057  35.7295 188.532  33.9563 187.893  32.2266 187.145  30.5474 186.289  28.9252 185.33  27.3664 184.271  25.8773 183.115  24.4636 181.869  23.1309 180.536  21.8846 179.123  20.7295 177.634  19.6702 176.075  18.7108 174.453  17.8552 172.773  17.1067 171.044  16.4683 169.271  15.9425 167.461  15.5314 165.621  15.2366 163.76  15.0592 161.884  15 160  15.0592 158.116  15.2366 156.24  15.5314 154.379  15.9425 152.539  16.4683 150.729  17.1067 148.956  17.8552 147.227  18.7108 145.547  19.6702 143.925  20.7295 142.366  21.8846 140.877  23.1309 139.464  24.4636 138.131  25.8773 136.885  27.3664 135.729  28.9252 134.67  30.5474 133.711  32.2266 132.855  33.9563 132.107  35.7295 131.468  37.5393 130.943  39.3786 130.531  41.24 130.237  43.1163 130.059  45 130  46.8837 130.059  48.76 130.237  50.6214 130.531  52.4607 130.943  54.2705 131.468  56.0437 132.107  57.7734 132.855  59.4526 133.711  61.0748 134.67  62.6336 135.729  64.1227 136.885  65.5364 138.131  66.8691 139.464  68.1154 140.877  69.2705 142.366  70.3298 143.925  71.2892 145.547  72.1448 147.227  72.8933 148.956  73.5317 150.729  74.0575 152.539  74.4686 154.379  74.7634 156.24  74.9408 158.116 " fill="green" stroke="blue" stroke-width="0.1" /> </svg><svg xmlns="http://www.w3.org/2000/svg">
	<polygon points=" 135 160  134.941 161.884  134.763 163.76  134.469 165.621  134.057 167.461  133.532 169.271  132.893 171.044  132.145 172.773  131.289 174.453  130.33 176.075  129.271 177.634  128.115 179.123  126.869 180.536  125.536 181.869  124.123 183.115  122.634 184.271  121.075 185.33  119.453 186.289  117.773 187.145  116.044 187.893  114.271 188.532  112.461 189.057  110.621 189.469  108.76 189.763  106.884 189.941  105 190  103.116 189.941  101.24 189.763  99.3786 189.469  97.5393 189.057  95.7295 188.532  93.9563 187.893  92.2266 187.145  90.5474 186.289  88.9252 185.33  87.3664 184.271  85.8773 183.115  84.4636 181.869  83.1309 180.536  81.8846 179.123  80.7295 177.634  79.6702 176.075  78.7108 174.453  77.8552 172.773  77.1067 171.044  76.4683 169.271  75.9425 167.461  75.5314 165.621  75.2366 163.76  75.0592 161.884  75 160  75.0592 158.116  75.2366 156.24  75.5314 154.379  75.9425 152.539  76.4683 150.729  77.1067 148.956  77.8552 147.227  78.7108 145.547  79.6702 143.925  80.7295 142.366  81.8846 140.877  83.1309 139.464  84.4636 138.131  85.8773 136.885  87.3664 135.729  88.9252 134.67  90.5474 133.711  92.2266 132.855  93.9563 132.107  95.7295 131.468  97.5393 130.943  99.3786 130.531  101.24 130.237  103.116 130.059  105 130  106.884 130.059  108.76 130.237  110.621 130.531  112.461 130.943  114.271 131.468  116.044 132.107  117.773 132.855  119.453 133.711  121.075 134.67  122.634 135.729  124.123 136.885  125.536 138.131  126.869 139.464  128.115 140.877  129.271 142.366  130.33 143.925  131.289 145.547  132.145 147.227  132.893 148.956  133.532 150.729  134.057 152.539  134.469 154.379  134.763 156.24  134.941 158.116 " fill="green" stroke="blue" stroke-width="0.1" /> </svg><svg xmlns="http://www.w3.org/2000/svg">
	<polygon points=" 195 160  194.941 161.884  194.763 163.76  194.469 165.621  194.057 167.461  193.532 169.271  192.893 171.044  192.145 172.773  191.289 174.453  190.33 176.075  189.271 177.634  188.115 179.123  186.869 180.536  185.536 181.869  184.123 183.115  182.634 184.271  181.075 185.33  179.453 186.289  177.773 187.145  176.044 187.893  174.271 188.532  172.461 189.057  170.621 189.469  168.76 189.763  166.884 189.941  165 190  163.116 189.941  161.24 189.763  159.379 189.469  157.539 189.057  155.729 188.532  153.956 187.893  152.227 187.145  150.547 186.289  148.925 185.33  147.366 184.271  145.877 183.115  144.464 181.869  143.131 180.536  141.885 179.123  140.729 177.634  139.67 176.075  138.711 174.453  137.855 172.773  137.107 171.044  136.468 169.271  135.943 167.461  135.531 165.621  135.237 163.76  135.059 161.884  135 160  135.059 158.116  135.237 156.24  135.531 154.379  135.943 152.539  136.468 150.729  137.107 148.956  137.855 147.227  138.711 145.547  139.67 143.925  140.729 142.366  141.885 140.877  143.131 139.464  144.464 138.131  145.877 136.885  147.366 135.729  148.925 134.67  150.547 133.711  152.227 132.855  153.956 132.107  155.729 131.468  157.539 130.943  159.379 130.531  161.24 130.237  163.116 130.059  165 130  166.884 130.059  168.76 130.237  170.621 130.531  172.461 130.943  174.271 131.468  176.044 132.107  177.773 132.855  179.453 133.711  181.075 134.67  182.634 135.729  184.123 136.885  185.536 138.131  186.869 139.464  188.115 140.877  189.271 142.366  190.33 143.925  191.289 145.547  192.145 147.227  192.893 148.956  193.532 150.729  194.057 152.539  194.469 154.379  194.763 156.24  194.941 158.116 " fill="green" stroke="blue" stroke-width="0.1" /> </svg><svg xmlns="http://www.w3.org/2000/svg">
	<polygon points=" 255 160  254.941 161.884  254.763 163.76  254.469 165.621  254.057 167.461  253.532 169.271  252.893 171.044  252.145 172.773  251.289 174.453  250.33 176.075  249.271 177.634  248.115 179.123  246.869 180.536  245.536 181.869  244.123 183.115  242.634 184.271  241.075 185.33  239.453 186.289  237.773 187.145  236.044 187.893  234.271 188.532  232.461 189.057  230.621 189.469  228.76 189.763  226.884 189.941  225 190  223.116 189.941  221.24 189.763  219.379 189.469  217.539 189.057  215.729 188.532  213.956 187.893  212.227 187.145  210.547 186.289  208.925 185.33  207.366 184.271  205.877 183.115  204.464 181.869  203.131 180.536  201.885 179.123  200.729 177.634  199.67 176.075  198.711 174.453  197.855 172.773  197.107 171.044  196.468 169.271  195.943 167.461  195.531 165.621  195.237 163.76  195.059 161.884  195 160  195.059 158.116  195.237 156.24  195.531 154.379  195.943 152.539  196.468 150.729  197.107 148.956  197.855 147.227  198.711 145.547  199.67 143.925  200.729 142.366  201.885 140.877  203.131 139.464  204.464 138.131  205.877 136.885  207.366 135.729  208.925 134.67  210.547 133.711  212.227 132.855  213.956 132.107  215.729 131.468  217.539 130.943  219.379 130.531  221.24 130.237  223.116 130.059  225 130  226.884 130.059  228.76 130.237  230.621 130.531  232.461 130.943  234.271 131.468  236.044 132.107  237.773 132.855  239.453 133.711  241.075 134.67  242.634 135.729  244.123 136.885  245.536 138.131  246.869 139.464  248.115 140.877  249.271 142.366  250.33 143.925  251.289 145.547  252.145 147.227  252.893 148.956  253.532 150.729  254.057 152.539  254.469 154.379  254.763 156.24  254.941 158.116 " fill="green" stroke="blue" stroke-width="0.1" /> </svg><svg xmlns="http://www.w3.org/2000/svg">
	<polygon points=" 315 160  314.941 161.884  314.763 163.76  314.469 165.621  314.057 167.461  313.532 169.271  312.893 171.044  312.145 172.773  311.289 174.453  310.33 176.075  309.271 177.634  308.115 179.123  306.869 180.536  305.536 181.869  304.123 183.115  302.634 184.271  301.075 185.33  299.453 186.289  297.773 187.145  296.044 187.893  294.271 188.532  292.461 189.057  290.621 189.469  288.76 189.763  286.884 189.941  285 190  283.116 189.941  281.24 189.763  279.379 189.469  277.539 189.057  275.729 188.532  273.956 187.893  272.227 187.145  270.547 186.289  268.925 185.33  267.366 184.271  265.877 183.115  264.464 181.869  263.131 180.536  261.885 179.123  260.729 177.634  259.67 176.075  258.711 174.453  257.855 172.773  257.107 171.044  256.468 169.271  255.943 167.461  255.531 165.621  255.237 163.76  255.059 161.884  255 160  255.059 158.116  255.237 156.24  255.531 154.379  255.943 152.539  256.468 150.729  257.107 148.956  257.855 147.227  258.711 145.547  259.67 143.925  260.729 142.366  261.885 140.877  263.131 139.464  264.464 138.131  265.877 136.885  267.366 135.729  268.925 134.67  270.547 133.711  272.227 132.855  273.956 132.107  275.729 131.468  277.539 130.943  279.379 130.531  281.24 130.237  283.116 130.059  285 130  286.884 130.059  288.76 130.237  290.621 130.531  292.461 130.943  294.271 131.468  296.044 132.107  297.773 132.855  299.453 133.711  301.075 134.67  302.634 135.729  304.123 136.885  305.536 138.131  306.869 139.464  308.115 140.877  309.271 142.366  310.33 143.925  311.289 145.547  312.145 147.227  312.893 148.956  313.532 150.729  314.057 152.539  314.469 154.379  314.763 156.24  314.941 158.116 " fill="green" stroke="blue" stroke-width="0.1" /> </svg><svg xmlns="http://www.w3.org/2000/svg">
	<polygon points=" 375 160  374.941 161.884  374.763 163.76  374.469 165.621  374.057 167.461  373.532 169.271  372.893 171.044  372.145 172.773  371.289 174.453  370.33 176.075  369.271 177.634  368.115 179.123  366.869 180.536  365.536 181.869  364.123 183.115  362.634 184.271  361.075 185.33  359.453 186.289  357.773 187.145  356.044 187.893  354.271 188.532  352.461 189.057  350.621 189.469  348.76 189.763  346.884 189.941  345 190  343.116 189.941  341.24 189.763  339.379 189.469  337.539 189.057  335.729 188.532  333.956 187.893  332.227 187.145  330.547 186.289  328.925 185.33  327.366 184.271  325.877 183.115  324.464 181.869  323.131 180.536  321.885 179.123  320.729 177.634  319.67 176.075  318.711 174.453  317.855 172.773  317.107 171.044  316.468 169.271  315.943 167.461  315.531 165.621  315.237 163.76  315.059 161.884  315 160  315.059 158.116  315.237 156.24  315.531 154.379  315.943 152.539  316.468 150.729  317.107 148.956  317.855 147.227  318.711 145.547  319.67 143.925  320.729 142.366  321.885 140.877  323.131 139.464  324.464 138.131  325.877 136.885  327.366 135.729  328.925 134.67  330.547 133.711  332.227 132.855  333.956 132.107  335.729 131.468  337.539 130.943  339.379 130.531  341.24 130.237  343.116 130.059  345 130  346.884 130.059  348.76 130.237  350.621 130.531  352.461 130.943  354.271 131.468  356.044 132.107  357.773 132.855  359.453 133.711  361.075 134.67  362.634 135.729  364.123 136.885  365.536 138.131  366.869 139.464  368.115 140.877  369.271 142.366  370.33 143.925  371.289 145.547  372.145 147.227  372.893 148.956  373.532 150.729  374.057 152.539  374.469 154.379  374.763 156.24  374.941 158.116 " fill="green" stroke="blue" stroke-width="0.1" /> </svg><svg xmlns="http://www.w3.org/2000/svg">
	<polygon points=" 435 160  434.941 161.884  434.763 163.76  434.469 165.621  434.057 167.461  433.532 169.271  432.893 171.044  432.145 172.773  431.289 174.453  430.33 176.075  429.271 177.634  428.115 179.123  426.869 180.536  425.536 181.869  424.123 183.115  422.634 184.271  421.075 185.33  419.453 186.289  417.773 187.145  416.044 187.893  414.271 188.532  412.461 189.057  410.621 189.469  408.76 189.763  406.884 189.941  405 190  403.116 189.941  401.24 189.763  399.379 189.469  397.539 189.057  395.729 188.532  393.956 187.893  392.227 187.145  390.547 186.289  388.925 185.33  387.366 184.271  385.877 183.115  384.464 181.869  383.131 180.536  381.885 179.123  380.729 177.634  379.67 176.075  378.711 174.453  377.855 172.773  377.107 171.044  376.468 169.271  375.943 167.461  375.531 165.621  375.237 163.76  375.059 161.884  375 160  375.059 158.116  375.237 156.24  375.531 154.379  375.943 152.539  376.468 150.729  377.107 148.956  377.855 147.227  378.711 145.547  379.67 143.925  380.729 142.366  381.885 140.877  383.131 139.464  384.464 138.131  385.877 136.885  387.366 135.729  388.925 134.67  390.547 133.711  392.227 132.855  393.956 132.107  395.729 131.468  397.539 130.943  399.379 130.531  401.24 130.237  403.116 130.059  405 130  406.884 130.059  408.76 130.237  410.621 130.531  412.461 130.943  414.271 131.468  416.044 132.107  417.773 132.855  419.453 133.711  421.075 134.67  422.634 135.729  424.123 136.885  425.536 138.131  426.869 139.464  428.115 140.877  429.271 142.366  430.33 143.925  431.289 145.547  432.145 147.227  432.893 148.956  433.532 150.729  434.057 152.539  434.469 154.379  434.763 156.24  434.941 158.116 " fill="green" stroke="blue" stroke-width="0.1" /> </svg><svg xmlns="http://www.w3.org/2000/svg">
	<polygon points=" 75 220  74.9408 221.884  74.7634 223.76  74.4686 225.621  74.0575 227.461  73.5317 229.271  72.8933 231.044  72.1448 232.773  71.2892 234.453  70.3298 236.075  69.2705 237.634  68.1154 239.123  66.8691 240.536  65.5364 241.869  64.1227 243.115  62.6336 244.271  61.0748 245.33  59.4526 246.289  57.7734 247.145  56.0437 247.893  54.2705 248.532  52.4607 249.057  50.6214 249.469  48.76 249.763  46.8837 249.941  45 250  43.1163 249.941  41.24 249.763  39.3786 249.469  37.5393 249.057  35.7295 248.532  33.9563 247.893  32.2266 247.145  30.5474 246.289  28.9252 245.33  27.3664 244.271  25.8773 243.115  24.4636 241.869  23.1309 240.536  21.8846 239.123  20.7295 237.634  19.6702 236.075  18.7108 234.453  17.8552 232.773  17.1067 231.044  16.4683 229.271  15.9425 227.461  15.5314 225.621  15.2366 223.76  15.0592 221.884  15 220  15.0592 218.116  15.2366 216.24  15.5314 214.379  15.9425 212.539  16.4683 210.729  17.1067 208.956  17.8552 207.227  18.7108 205.547  19.6702 203.925  20.7295 202.366  21.8846 200.877  23.1309 199.464  24.4636 198.131  25.8773 196.885  27.3664 195.729  28.9252 194.67  30.5474 193.711  32.2266 192.855  33.9563 192.107  35.7295 191.468  37.5393 190.943  39.3786 190.531  41.24 190.237  43.1163 190.059  45 190  46.8837 190.059  48.76 190.237  50.6214 190.531  52.4607 190.943  54.2705 191.468  56.0437 192.107  57.7734 192.855  59.4526 193.711  61.0748 194.67  62.6336 195.729  64.1227 196.885  65.5364 198.131  66.8691 199.464  68.1154 200.877  69.2705 202.366  70.3298 203.925  71.2892 205.547  72.1448 207.227  72.8933 208.956  73.5317 210.729  74.0575 212.539  74.4686 214.379  74.7634 216.24  74.9408 218.116 " fill="green" stroke="blue" stroke-width="0.1" /> </svg><svg xmlns="http://www.w3.org/2000/svg">
	<polygon points=" 135 220  134.941 221.884  134.763 223.76  134.469 225.621  134.057 227.461  133.532 229.271  132.893 231.044  132.145 232.773  131.289 234.453  130.33 236.075  129.271 237.634  128.115 239.123  126.869 240.536  125.536 241.869  124.123 243.115  122.634 244.271  121.075 245.33  119.453 246.289  117.773 247.145  116.044 247.893  114.271 248.532  112.461 249.057  110.621 249.469  108.76 249.763  106.884 249.941  105 250  103.116 249.941  101.24 249.763  99.3786 249.469  97.5393 249.057  95.7295 248.532  93.9563 247.893  92.2266 247.145  90.5474 246.289  88.9252 245.33  87.3664 244.271  85.8773 243.115  84.4636 241.869  83.1309 240.536  81.8846 239.123  80.7295 237.634  79.6702 236.075  78.7108 234.453  77.8552 232.773  77.1067 231.044  76.4683 229.271  75.9425 227.461  75.5314 225.621  75.2366 223.76  75.0592 221.884  75 220  75.0592 218.116  75.2366 216.24  75.5314 214.379  75.9425 212.539  76.4683 210.729  77.1067 208.956  77.8552 207.227  78.7108 205.547  79.6702 203.925  80.7295 202.366  81.8846 200.877  83.1309 199.464  84.4636 198.131  85.8773 196.885  87.3664 195.729  88.9252 194.67  90.5474 193.711  92.2266 192.855  93.9563 192.107  95.7295 191.468  97.5393 190.943  99.3786 190.531  101.24 190.237  103.116 190.059  105 190  106.884 190.059  108.76 190.237  110.621 190.531  112.461 190.943  114.271 191.468  116.044 192.107  117.773 192.855  119.453 193.711  121.075 194.67  122.634 195.729  124.123 196.885  125.536 198.131  126.869 199.464  128.115 200.877  129.271 202.366  130.33 203.925  131.289 205.547  132.145 207.227  132.893 208.956  133.532 210.729  134.057 212.539  134.469 214.379  134.763 216.24  134.941 218.116 " fill="green" stroke="blue" stroke-width="0.1" /> </svg><svg xmlns="http://www.w3.org/2000/svg">
	<polygon points=" 195 220  194.941 221.884  194.763 223.76  194.469 225.621  194.057 227.461  193.532 229.271  192.893 231.044  192.145 232.773  191.289 234.453  190.33 236.075  189.271 237.634  188.115 239.123  186.869 240.536  185.536 241.869  184.123 243.115  182.634 244.271  181.075 245.33  179.453 246.289  177.773 247.145  176.044 247.893  174.271 248.532  172.461 249.057  170.621 249.469  168.76 249.763  166.884 249.941  165 250  163.116 249.941  161.24 249.763  159.379 249.469  157.539 249.057  155.729 248.532  153.956 247.893  152.227 247.145  150.547 246.289  148.925 245.33  147.366 244.271  145.877 243.115  144.464 241.869  143.131 240.536  141.885 239.123  140.729 237.634  139.67 236.075  138.711 234.453  137.855 232.773  137.107 231.044  136.468 229.271  135.943 227.461  135.531 225.621  135.237 223.76  135.059 221.884  135 220  135.059 218.116  135.237 216.24  135.531 214.379  135.943 212.539  136.468 210.729  137.107 208.956  137.855 207.227  138.711 205.547  139.67 203.925  140.729 202.366  141.885 200.877  143.131 199.464  144.464 198.131  145.877 196.885  147.366 195.729  148.925 194.67  150.547 193.711  152.227 192.855  153.956 192.107  155.729 191.468  157.539 190.943  159.379 190.531  161.24 190.237  163.116 190.059  165 190  166.884 190.059  168.76 190.237  170.621 190.531  172.461 190.943  174.271 191.468  176.044 192.107  177.773 192.855  179.453 193.711  181.075 194.67  182.634 195.729  184.123 196.885  185.536 198.131  186.869 199.464  188.115 200.877  189.271 202.366  190.33 203.925  191.289 205.547  192.145 207.227  192.893 208.956  193.532 210.729  194.057 212.539  194.469 214.379  194.763 216.24  194.941 218.116 " fill="green" stroke="blue" stroke-width="0.1" /> </svg><svg xmlns="http://www.w3.org/2000/svg">
	<polygon points=" 255 220  254.941 221.884  254.763 223.76  254.469 225.621  254.057 227.461  253.532 229.271  252.893 231.044  252.145 232.773  251.289 234.453  250.33 236.075  249.271 237.634  248.115 239.123  246.869 240.536  245.536 241.869  244.123 243.115  242.634 244.271  241.075 245.33  239.453 246.289  237.773 247.145  236.044 247.893  234.271 248.532  232.461 249.057  230.621 249.469  228.76 249.763  226.884 249.941  225 250  223.116 249.941  221.24 249.763  219.379 249.469  217.539 249.057  215.729 248.532  213.956 247.893  212.227 247.145  210.547 246.289  208.925 245.33  207.366 244.271  205.877 243.115  204.464 241.869  203.131 240.536  201.885 239.123  200.729 237.634  199.67 236.075  198.711 234.453  197.855 232.773  197.107 231.044  196.468 229.271  195.943 227.461  195.531 225.621  195.237 223.76  195.059 221.884  195 220  195.059 218.116  195.237 216.24  195.531 214.379  195.943 212.539  196.468 210.729  197.107 208.956  197.855 207.227  198.711 205.547  199.67 203.925  200.729 202.366  201.885 200.877  203.131 199.464  204.464 198.131  205.877 196.885  207.366 195.729  208.925 194.67  210.547 193.711  212.227 192.855  213.956 192.107  215.729 191.468  217.539 190.943  219.379 190.531  221.24 190.237  223.116 190.059  225 190  226.884 190.059  228.76 190.237  230.621 190.531  232.461 190.943  234.271 191.468  236.044 192.107  237.773 192.855  239.453 193.711  241.075 194.67  242.634 195.729  244.123 196.885  245.536 198.131  246.869 199.464  248.115 200.877  249.271 202.366  250.33 203.925  251.289 205.547  252.145 207.227  252.893 208.956  253.532 210.729  254.057 212.539  254.469 214.379  254.763 216.24  254.941 218.116 " fill="green" stroke="blue" stroke-width="0.1" /> </svg><svg xmlns="http://www.w3.org/2000/svg">
	<polygon points=" 315 220  314.941 221.884  314.763 223.76  314.469 225.621  314.057 227.461  313.532 229.271  312.893 231.044  312.145 232.773  311.289 234.453  310.33 236.075  309.271 237.634  308.115 239.123  306.869 240.536  305.536 241.869  304.123 243.115  302.634 244.271  301.075 245.33  299.453 246.289  297.773 247.145  296.044 247.893  294.271 248.532  292.461 249.057  290.621 249.469  288.76 249.763  286.884 249.941  285 250  283.116 249.941  281.24 249.763  279.379 249.469  277.539 249.057  275.729 248.532  273.956 247.893  272.227 247.145  270.547 246.289  268.925 245.33  267.366 244.271  265.877 243.115  264.464 241.869  263.131 240.536  261.885 239.123  260.729 237.634  259.67 236.075  258.711 234.453  257.855 232.773  257.107 231.044  256.468 229.271  255.943 227.461  255.531 225.621  255.237 223.76  255.059 221.884  255 220  255.059 218.116  255.237 216.24  255.531 214.379  255.943 212.539  256.468 210.729  257.107 208.956  257.855 207.227  258.711 205.547  259.67 203.925  260.729 202.366  261.885 200.877  263.131 199.464  264.464 198.131  265.877 196.885  267.366 195.729  268.925 194.67  270.547 193.711  272.227 192.855  273.956 192.107  275.729 191.468  277.539 190.943  279.379 190.531  281.24 190.237  283.116 190.059  285 190  286.884 190.059  288.76 190.237  290.621 190.531  292.461 190.943  294.271 191.468  296.044 192.107  297.773 192.855  299.453 193.711  301.075 194.67  302.634 195.729  304.123 196.885  305.536 198.131  306.869 199.464  308.115 200.877  309.271 202.366  310.33 203.925  311.289 205.547  312.145 207.227  312.893 208.956  313.532 210.729  314.057 212.539  314.469 214.379  314.763 216.24  314.941 218.116 " fill="green" stroke="blue" stroke-width="0.1" /> </svg><svg xmlns="http://www.w3.org/2000/svg">
	<polygon points=" 375 220  374.941 221.884  374.763 223.76  374.469 225.621  374.057 227.461  373.532 229.271  372.893 231.044  372.145 232.773  371.289 234.453  370.33 236.075  369.271 237.634  368.115 239.123  366.869 240.536  365.536 241.869  364.123 243.115  362.634 244.271  361.075 245.33  359.453 246.289  357.773 247.145  356.044 247.893  354.271 248.532  352.461 249.057  350.621 249.469  348.76 249.763  346.884 249.941  345 250  343.116 249.941  341.24 249.763  339.379 249.469  337.539 249.057  335.729 248.532  333.956 247.893  332.227 247.145  330.547 246.289  328.925 245.33  327.366 244.271  325.877 243.115  324.464 241.869  323.131 240.536  321.885 239.123  320.729 237.634  319.67 236.075  318.711 234.453  317.855 232.773  317.107 231.044  316.468 229.271  315.943 227.461  315.531 225.621  315.237 223.76  315.059 221.884  315 220  315.059 218.116  315.237 216.24  315.531 214.379  315.943 212.539  316.468 210.729  317.107 208.956  317.855 207.227  318.711 205.547  319.67 203.925  320.729 202.366  321.885 200.877  323.131 199.464  324.464 198.131  325.877 196.885  327.366 195.729  328.925 194.67  330.547 193.711  332.227 192.855  333.956 192.107  335.729 191.468  337.539 190.943  339.379 190.531  341.24 190.237  343.116 190.059  345 190  346.884 190.059  348.76 190.237  350.621 190.531  352.461 190.943  354.271 191.468  356.044 192.107  357.773 192.855  359.453 193.711  361.075 194.67  362.634 195.729  364.123 196.885  365.536 198.131  366.869 199.464  368.115 200.877  369.271 202.366  370.33 203.925  371.289 205.547  372.145 207.227  372.893 208.956  373.532 210.729  374.057 212.539  374.469 214.379  374.763 216.24  374.941 218.116 " fill="green" stroke="blue" stroke-width="0.1" /> </svg><svg xmlns="http://www.w3.org/2000/svg">
	<polygon points=" 435 220  434.941 221.884  434.763 223.76  434.469 225.621  434.057 227.461  433.532 229.271  432.893 231.044  432.145 232.773  431.289 234.453  430.33 236.075  429.271 237.634  428.115 239.123  426.869 240.536  425.536 241.869  424.123 243.115  422.634 244.271  421.075 245.33  419.453 246.289  417.773 247.145  416.044 247.893  414.271 248.532  412.461 249.057  410.621 249.469  408.76 249.763  406.884 249.941  405 250  403.116 249.941  401.24 249.763  399.379 249.469  397.539 249.057  395.729 248.532  393.956 247.893  392.227 247.145  390.547 246.289  388.925 245.33  387.366 244.271  385.877 243.115  384.464 241.869  383.131 240.536  381.885 239.123  380.729 237.634  379.67 236.075  378.711 234.453  377.855 232.773  377.107 231.044  376.468 229.271  375.943 227.461  375.531 225.621  375.237 223.76  375.059 221.884  375 220  375.059 218.116  375.237 216.24  375.531 214.379  375.943 212.539  376.468 210.729  377.107 208.956  377.855 207.227  378.711 205.547  379.67 203.925  380.729 202.366  381.885 200.877  383.131 199.464  384.464 198.131  385.877 196.885  387.366 195.729  388.925 194.67  390.547 193.711  392.227 192.855  393.956 192.107  395.729 191.468  397.539 190.943  399.379 190.531  401.24 190.237  403.116 190.059  405 190  406.884 190.059  408.76 190.237  410.621 190.531  412.461 190.943  414.271 191.468  416.044 192.107  417.773 192.855  419.453 193.711  421.075 194.67  422.634 195.729  424.123 196.885  425.536 198.131  426.869 199.464  428.115 200.877  429.271 202.366  430.33 203.925  431.289 205.547  432.145 207.227  432.893 208.956  433.532 210.729  434.057 212.539  434.469 214.379  434.763 216.24  434.941 218.116 " fill="green" stroke="blue" stroke-width="0.1" /> </svg><svg xmlns="http://www.w3.org/2000/svg">
	<polygon points=" 75 280  74.9408 281.884  74.7634 283.76  74.4686 285.621  74.0575 287.461  73.5317 289.271  72.8933 291.044  72.1448 292.773  71.2892 294.453  70.3298 296.075  69.2705 297.634  68.1154 299.123  66.8691 300.536  65.5364 301.869  64.1227 303.115  62.6336 304.271  61.0748 305.33  59.4526 306.289  57.7734 307.145  56.0437 307.893  54.2705 308.532  52.4607 309.057  50.6214 309.469  48.76 309.763  46.8837 309.941  45 310  43.1163 309.941  41.24 309.763  39.3786 309.469  37.5393 309.057  35.7295 308.532  33.9563 307.893  32.2266 307.145  30.5474 306.289  28.9252 305.33  27.3664 304.271  25.8773 303.115  24.4636 301.869  23.1309 300.536  21.8846 299.123  20.7295 297.634  19.6702 296.075  18.7108 294.453  17.8552 292.773  17.1067 291.044  16.4683 289.271  15.9425 287.461  15.5314 285.621  15.2366 283.76  15.0592 281.884  15 280  15.0592 278.116  15.2366 276.24  15.5314 274.379  15.9425 272.539  16.4683 270.729  17.1067 268.956  17.8552 267.227  18.7108 265.547  19.6702 263.925  20.7295 262.366  21.8846 260.877  23.1309 259.464  24.4636 258.131  25.8773 256.885  27.3664 255.729  28.9252 254.67  30.5474 253.711  32.2266 252.855  33.9563 252.107  35.7295 251.468  37.5393 250.943  39.3786 250.531  41.24 250.237  43.1163 250.059  45 250  46.8837 250.059  48.76 250.237  50.6214 250.531  52.4607 250.943  54.2705 251.468  56.0437 252.107  57.7734 252.855  59.4526 253.711  61.0748 254.67  62.6336 255.729  64.1227 256.885  65.5364 258.131  66.8691 259.464  68.1154 260.877  69.2705 262.366  70.3298 263.925  71.2892 265.547  72.1448 267.227  72.8933 268.956  73.5317 270.729  74.0575 272.539  74.4686 274.379  74.7634 276.24  74.9408 278.116 " fill="green" stroke="blue" stroke-width="0.1" /> </svg><svg xmlns="http://www.w3.org/2000/svg">
	<polygon points=" 135 280  134.941 281.884  134.763 283.76  134.469 285.621  134.057 287.461  133.532 289.271  132.893 291.044  132.145 292.773  131.289 294.453  130.33 296.075  129.271 297.634  128.115 299.123  126.869 300.536  125.536 301.869  124.123 303.115  122.634 304.271  121.075 305.33  119.453 306.289  117.773 307.145  116.044 307.893  114.271 308.532  112.461 309.057  110.621 309.469  108.76 309.763  106.884 309.941  105 310  103.116 309.941  101.24 309.763  99.3786 309.469  97.5393 309.057  95.7295 308.532  93.9563 307.893  92.2266 307.145  90.5474 306.289  88.9252 305.33  87.3664 304.271  85.8773 303.115  84.4636 301.869  83.1309 300.536  81.8846 299.123  80.7295 297.634  79.6702 296.075  78.7108 294.453  77.8552 292.773  77.1067 291.044  76.4683 289.271  75.9425 287.461  75.5314 285.621  75.2366 283.76  75.0592 281.884  75 280  75.0592 278.116  75.2366 276.24  75.5314 274.379  75.9425 272.539  76.4683 270.729  77.1067 268.956  77.8552 267.227  78.7108 265.547  79.6702 263.925  80.7295 262.366  81.8846 260.877  83.1309 259.464  84.4636 258.131  85.8773 256.885  87.3664 255.729  88.9252 254.67  90.5474 253.711  92.2266 252.855  93.9563 252.107  95.7295 251.468  97.5393 250.943  99.3786 250.531  101.24 250.237  103.116 250.059  105 250  106.884 250.059  108.76 250.237  110.621 250.531  112.461 250.943  114.271 251.468  116.044 252.107  117.773 252.855  119.453 253.711  121.075 254.67  122.634 255.729  124.123 256.885  125.536 258.131  126.869 259.464  128.115 260.877  129.271 262.366  130.33 263.925  131.289 265.547  132.145 267.227  132.893 268.956  133.532 270.729  134.057 272.539  134.469 274.379  134.763 276.24  134.941 278.116 " fill="green" stroke="blue" stroke-width="0.1" /> </svg><svg xmlns="http://www.w3.org/2000/svg">
	<polygon points=" 195 280  194.941 281.884  194.763 283.76  194.469 285.621  194.057 287.461  193.532 289.271  192.893 291.044  192.145 292.773  191.289 294.453  190.33 296.075  189.271 297.634  188.115 299.123  186.869 300.536  185.536 301.869  184.123 303.115  182.634 304.271  181.075 305.33  179.453 306.289  177.773 307.145  176.044 307.893  174.271 308.532  172.461 309.057  170.621 309.469  168.76 309.763  166.884 309.941  165 310  163.116 309.941  161.24 309.763  159.379 309.469  157.539 309.057  155.729 308.532  153.956 307.893  152.227 307.145  150.547 306.289  148.925 305.33  147.366 304.271  145.877 303.115  144.464 301.869  143.131 300.536  141.885 299.123  140.729 297.634  139.67 296.075  138.711 294.453  137.855 292.773  137.107 291.044  136.468 289.271  135.943 287.461  135.531 285.621  135.237 283.76  135.059 281.884  135 280  135.059 278.116  135.237 276.24  135.531 274.379  135.943 272.539  136.468 270.729  137.107 268.956  137.855 267.227  138.711 265.547  139.67 263.925  140.729 262.366  141.885 260.877  143.131 259.464  144.464 258.131  145.877 256.885  147.366 255.729  148.925 254.67  150.547 253.711  152.227 252.855  153.956 252.107  155.729 251.468  157.539 250.943  159.379 250.531  161.24 250.237  163.116 250.059  165 250  166.884 250.059  168.76 250.237  170.621 250.531  172.461 250.943  174.271 251.468  176.044 252.107  177.773 252.855  179.453 253.711  181.075 254.67  182.634 255.729  184.123 256.885  185.536 258.131  186.869 259.464  188.115 260.877  189.271 262.366  190.33 263.925  191.289 265.547  192.145 267.227  192.893 268.956  193.532 270.729  194.057 272.539  194.469 274.379  194.763 276.24  194.941 278.116 " fill="green" stroke="blue" stroke-width="0.1" /> </svg><svg xmlns="http://www.w3.org/2000/svg">
	<polygon points=" 255 280  254.941 281.884  254.763 283.76  254.469 285.621  254.057 287.461  253.532 289.271  252.893 291.044  252.145 292.773  251.289 294.453  250.33 296.075  249.271 297.634  248.115 299.123  246.869 300.536  245.536 301.869  244.123 303.115  242.634 304.271  241.075 305.33  239.453 306.289  237.773 307.145  236.044 307.893  234.271 308.532  232.461 309.057  230.621 309.469  228.76 309.763  226.884 309.941  225 310  223.116 309.941  221.24 309.763  219.379 309.469  217.539 309.057  215.729 308.532  213.956 307.893  212.227 307.145  210.547 306.289  208.925 305.33  207.366 304.271  205.877 303.115  204.464 301.869  203.131 300.536  201.885 299.123  200.729 297.634  199.67 296.075  198.711 294.453  197.855 292.773  197.107 291.044  196.468 289.271  195.943 287.461  195.531 285.621  195.237 283.76  195.059 281.884  195 280  195.059 278.116  195.237 276.24  195.531 274.379  195.943 272.539  196.468 270.729  197.107 268.956  197.855 267.227  198.711 265.547  199.67 263.925  200.729 262.366  201.885 260.877  203.131 259.464  204.464 258.131  205.877 256.885  207.366 255.729  208.925 254.67  210.547 253.711  212.227 252.855  213.956 252.107  215.729 251.468  217.539 250.943  219.379 250.531  221.24 250.237  223.116 250.059  225 250  226.884 250.059  228.76 250.237  230.621 250.531  232.461 250.943  234.271 251.468  236.044 252.107  237.773 252.855  239.453 253.711  241.075 254.67  242.634 255.729  244.123 256.885  245.536 258.131  246.869 259.464  248.115 260.877  249.271 262.366  250.33 263.925  251.289 265.547  252.145 267.227  252.893 268.956  253.532 270.729  254.057 272.539  254.469 274.379  254.763 276.24  254.941 278.116 " fill="green" stroke="blue" stroke-width="0.1" /> </svg><svg xmlns="http://www.w3.org/2000/svg">
	<polygon points=" 315 280  314.941 281.884  314.763 283.76  314.469 285.621  314.057 287.461  313.532 289.271  312.893 291.044  312.145 292.773  311.289 294.453  310.33 296.075  309.271 297.634  308.115 299.123  306.869 300.536  305.536 301.869  304.123 303.115  302.634 304.271  301.075 305.33  299.453 306.289  297.773 307.145  296.044 307.893  294.271 308.532  292.461 309.057  290.621 309.469  288.76 309.763  286.884 309.941  285 310  283.116 309.941  281.24 309.763  279.379 309.469  277.539 309.057  275.729 308.532  273.956 307.893  272.227 307.145  270.547 306.289  268.925 305.33  267.366 304.271  265.877 303.115  264.464 301.869  263.131 300.536  261.885 299.123  260.729 297.634  259.67 296.075  258.711 294.453  257.855 292.773  257.107 291.044  256.468 289.271  255.943 287.461  255.531 285.621  255.237 283.76  255.059 281.884  255 280  255.059 278.116  255.237 276.24  255.531 274.379  255.943 272.539  256.468 270.729  257.107 268.956  257.855 267.227  258.711 265.547  259.67 263.925  260.729 262.366  261.885 260.877  263.131 259.464  264.464 258.131  265.877 256.885  267.366 255.729  268.925 254.67  270.547 253.711  272.227 252.855  273.956 252.107  275.729 251.468  277.539 250.943  279.379 250.531  281.24 250.237  283.116 250.059  285 250  286.884 250.059  288.76 250.237  290.621 250.531  292.461 250.943  294.271 251.468  296.044 252.107  297.773 252.855  299.453 253.711  301.075 254.67  302.634 255.729  304.123 256.885  305.536 258.131  306.869 259.464  308.115 260.877  309.271 262.366  310.33 263.925  311.289 265.547  312.145 267.227  312.893 268.956  313.532 270.729  314.057 272.539  314.469 274.379  314.763 276.24  314.941 278.116 " fill="green" stroke="blue" stroke-width="0.1" /> </svg><svg xmlns="http://www.w3.org/2000/svg">
	<polygon points=" 375 280  374.941 281.884  374.763 283.76  374.469 285.621  374.057 287.461  373.532 289.271  372.893 291.044  372.145 292.773  371.289 294.453  370.33 296.075  369.271 297.634  368.115 299.123  366.869 300.536  365.536 301.869  364.123 303.115  362.634 304.271  361.075 305.33  359.453 306.289  357.773 307.145  356.044 307.893  354.271 308.532  352.461 309.057  350.621 309.469  348.76 309.763  346.884 309.941  345 310  343.116 309.941  341.24 309.763  339.379 309.469  337.539 309.057  335.729 308.532  333.956 307.893  332.227 307.145  330.547 306.289  328.925 305.33  327.366 304.271  325.877 303.115  324.464 301.869  323.131 300.536  321.885 299.123  320.729 297.634  319.67 296.075  318.711 294.453  317.855 292.773  317.107 291.044  316.468 289.271  315.943 287.461  315.531 285.621  315.237 283.76  315.059 281.884  315 280  315.059 278.116  315.237 276.24  315.531 274.379  315.943 272.539  316.468 270.729  317.107 268.956  317.855 267.227  318.711 265.547  319.67 263.925  320.729 262.366  321.885 260.877  323.131 259.464  324.464 258.131  325.877 256.885  327.366 255.729  328.925 254.67  330.547 253.711  332.227 252.855  333.956 252.107  335.729 251.468  337.539 250.943  339.379 250.531  341.24 250.237  343.116 250.059  345 250  346.884 250.059  348.76 250.237  350.621 250.531  352.461 250.943  354.271 251.468  356.044 252.107  357.773 252.855  359.453 253.711  361.075 254.67  362.634 255.729  364.123 256.885  365.536 258.131  366.869 259.464  368.115 260.877  369.271 262.366  370.33 263.925  371.289 265.547  372.145 267.227  372.893 268.956  373.532 270.729  374.057 272.539  374.469 274.379  374.763 276.24  374.941 278.116 " fill="green" stroke="blue" stroke-width="0.1" /> </svg><svg xmlns="http://www.w3.org/2000/svg">
	<polygon points=" 435 280  434.941 281.884  434.763 283.76  434.469 285.621  434.057 287.461  433.532 289.271  432.893 291.044  432.145 292.773  431.289 294.453  430.33 296.075  429.271 297.634  428.115 299.123  426.869 300.536  425.536 301.869  424.123 303.115  422.634 304.271  421.075 305.33  419.453 306.289  417.773 307.145  416.044 307.893  414.271 308.532  412.461 309.057  410.621 309.469  408.76 309.763  406.884 309.941  405 310  403.116 309.941  401.24 309.763  399.379 309.469  397.539 309.057  395.729 308.532  393.956 307.893  392.227 307.145  390.547 306.289  388.925 305.33  387.366 304.271  385.877 303.115  384.464 301.869  383.131 300.536  381.885 299.123  380.729 297.634  379.67 296.075  378.711 294.453  377.855 292.773  377.107 291.044  376.468 289.271  375.943 287.461  375.531 285.621  375.237 283.76  375.059 281.884  375 280  375.059 278.116  375.237 276.24  375.531 274.379  375.943 272.539  376.468 270.729  377.107 268.956  377.855 267.227  378.711 265.547  379.67 263.925  380.729 262.366  381.885 260.877  383.131 259.464  384.464 258.131  385.877 256.885  387.366 255.729  388.925 254.67  390.547 253.711  392.227 252.855  393.956 252.107  395.729 251.468  397.539 250.943  399.379 250.531  401.24 250.237  403.116 250.059  405 250  406.884 250.059  408.76 250.237  410.621 250.531  412.461 250.943  414.271 251.468  416.044 252.107  417.773 252.855  419.453 253.711  421.075 254.67  422.634 255.729  424.123 256.885  425.536 258.131  426.869 259.464  428.115 260.877  429.271 262.366  430.33 263.925  431.289 265.547  432.145 267.227  432.893 268.956  433.532 270.729  434.057 272.539  434.469 274.379  434.763 276.24  434.941 278.116 " fill="green" stroke="blue" stroke-width="0.1" /> </svg><svg xmlns="http://www.w3.org/2000/svg">
	<polygon points=" 75 340  74.9408 341.884  74.7634 343.76  74.4686 345.621  74.0575 347.461  73.5317 349.271  72.8933 351.044  72.1448 352.773  71.2892 354.453  70.3298 356.075  69.2705 357.634  68.1154 359.123  66.8691 360.536  65.5364 361.869  64.1227 363.115  62.6336 364.271  61.0748 365.33  59.4526 366.289  57.7734 367.145  56.0437 367.893  54.2705 368.532  52.4607 369.057  50.6214 369.469  48.76 369.763  46.8837 369.941  45 370  43.1163 369.941  41.24 369.763  39.3786 369.469  37.5393 369.057  35.7295 368.532  33.9563 367.893  32.2266 367.145  30.5474 366.289  28.9252 365.33  27.3664 364.271  25.8773 363.115  24.4636 361.869  23.1309 360.536  21.8846 359.123  20.7295 357.634  19.6702 356.075  18.7108 354.453  17.8552 352.773  17.1067 351.044  16.4683 349.271  15.9425 347.461  15.5314 345.621  15.2366 343.76  15.0592 341.884  15 340  15.0592 338.116  15.2366 336.24  15.5314 334.379  15.9425 332.539  16.4683 330.729  17.1067 328.956  17.8552 327.227  18.7108 325.547  19.6702 323.925  20.7295 322.366  21.8846 320.877  23.1309 319.464  24.4636 318.131  25.8773 316.885  27.3664 315.729  28.9252 314.67  30.5474 313.711  32.2266 312.855  33.9563 312.107  35.7295 311.468  37.5393 310.943  39.3786 310.531  41.24 310.237  43.1163 310.059  45 310  46.8837 310.059  48.76 310.237  50.6214 310.531  52.4607 310.943  54.2705 311.468  56.0437 312.107  57.7734 312.855  59.4526 313.711  61.0748 314.67  62.6336 315.729  64.1227 316.885  65.5364 318.131  66.8691 319.464  68.1154 320.877  69.2705 322.366  70.3298 323.925  71.2892 325.547  72.1448 327.227  72.8933 328.956  73.5317 330.729  74.0575 332.539  74.4686 334.379  74.7634 336.24  74.9408 338.116 " fill="green" stroke="blue" stroke-width="0.1" /> </svg><svg xmlns="http://www.w3.org/2000/svg">
	<polygon points=" 135 340  134.941 341.884  134.763 343.76  134.469 345.621  134.057 347.461  133.532 349.271  132.893 351.044  132.145 352.773  131.289 354.453  130.33 356.075  129.271 357.634  128.115 359.123  126.869 360.536  125.536 361.869  124.123 363.115  122.634 364.271  121.075 365.33  119.453 366.289  117.773 367.145  116.044 367.893  114.271 368.532  112.461 369.057  110.621 369.469  108.76 369.763  106.884 369.941  105 370  103.116 369.941  101.24 369.763  99.3786 369.469  97.5393 369.057  95.7295 368.532  93.9563 367.893  92.2266 367.145  90.5474 366.289  88.9252 365.33  87.3664 364.271  85.8773 363.115  84.4636 361.869  83.1309 360.536  81.8846 359.123  80.7295 357.634  79.6702 356.075  78.7108 354.453  77.8552 352.773  77.1067 351.044  76.4683 349.271  75.9425 347.461  75.5314 345.621  75.2366 343.76  75.0592 341.884  75 340  75.0592 338.116  75.2366 336.24  75.5314 334.379  75.9425 332.539  76.4683 330.729  77.1067 328.956  77.8552 327.227  78.7108 325.547  79.6702 323.925  80.7295 322.366  81.8846 320.877  83.1309 319.464  84.4636 318.131  85.8773 316.885  87.3664 315.729  88.9252 314.67  90.5474 313.711  92.2266 312.855  93.9563 312.107  95.7295 311.468  97.5393 310.943  99.3786 310.531  101.24 310.237  103.116 310.059  105 310  106.884 310.059  108.76 310.237  110.621 310.531  112.461 310.943  114.271 311.468  116.044 312.107  117.773 312.855  119.453 313.711  121.075 314.67  122.634 315.729  124.123 316.885  125.536 318.131  126.869 319.464  128.115 320.877  129.271 322.366  130.33 323.925  131.289 325.547  132.145 327.227  132.893 328.956  133.532 330.729  134.057 332.539  134.469 334.379  134.763 336.24  134.941 338.116 " fill="green" stroke="blue" stroke-width="0.1" /> </svg><svg xmlns="http://www.w3.org/2000/svg">
	<polygon points=" 195 340  194.941 341.884  194.763 343.76  194.469 345.621  194.057 347.461  193.532 349.271  192.893 351.044  192.145 352.773  191.289 354.453  190.33 356.075  189.271 357.634  188.115 359.123  186.869 360.536  185.536 361.869  184.123 363.115  182.634 364.271  181.075 365.33  179.453 366.289  177.773 367.145  176.044 367.893  174.271 368.532  172.461 369.057  170.621 369.469  168.76 369.763  166.884 369.941  165 370  163.116 369.941  161.24 369.763  159.379 369.469  157.539 369.057  155.729 368.532  153.956 367.893  152.227 367.145  150.547 366.289  148.925 365.33  147.366 364.271  145.877 363.115  144.464 361.869  143.131 360.536  141.885 359.123  140.729 357.634  139.67 356.075  138.711 354.453  137.855 352.773  137.107 351.044  136.468 349.271  135.943 347.461  135.531 345.621  135.237 343.76  135.059 341.884  135 340  135.059 338.116  135.237 336.24  135.531 334.379  135.943 332.539  136.468 330.729  137.107 328.956  137.855 327.227  138.711 325.547  139.67 323.925  140.729 322.366  141.885 320.877  143.131 319.464  144.464 318.131  145.877 316.885  147.366 315.729  148.925 314.67  150.547 313.711  152.227 312.855  153.956 312.107  155.729 311.468  157.539 310.943  159.379 310.531  161.24 310.237  163.116 310.059  165 310  166.884 310.059  168.76 310.237  170.621 310.531  172.461 310.943  174.271 311.468  176.044 312.107  177.773 312.855  179.453 313.711  181.075 314.67  182.634 315.729  184.123 316.885  185.536 318.131  186.869 319.464  188.115 320.877  189.271 322.366  190.33 323.925  191.289 325.547  192.145 327.227  192.893 328.956  193.532 330.729  194.057 332.539  194.469 334.379  194.763 336.24  194.941 338.116 " fill="green" stroke="blue" stroke-width="0.1" /> </svg><svg xmlns="http://www.w3.org/2000/svg">
	<polygon points=" 255 340  254.941 341.884  254.763 343.76  254.469 345.621  254.057 347.461  253.532 349.271  252.893 351.044  252.145 352.773  251.289 354.453  250.33 356.075  249.271 357.634  248.115 359.123  246.869 360.536  245.536 361.869  244.123 363.115  242.634 364.271  241.075 365.33  239.453 366.289  237.773 367.145  236.044 367.893  234.271 368.532  232.461 369.057  230.621 369.469  228.76 369.763  226.884 369.941  225 370  223.116 369.941  221.24 369.763  219.379 369.469  217.539 369.057  215.729 368.532  213.956 367.893  212.227 367.145  210.547 366.289  208.925 365.33  207.366 364.271  205.877 363.115  204.464 361.869  203.131 360.536  201.885 359.123  200.729 357.634  199.67 356.075  198.711 354.453  197.855 352.773  197.107 351.044  196.468 349.271  195.943 347.461  195.531 345.621  195.237 343.76  195.059 341.884  195 340  195.059 338.116  195.237 336.24  195.531 334.379  195.943 332.539  196.468 330.729  197.107 328.956  197.855 327.227  198.711 325.547  199.67 323.925  200.729 322.366  201.885 320.877  203.131 319.464  204.464 318.131  205.877 316.885  207.366 315.729  208.925 314.67  210.547 313.711  212.227 312.855  213.956 312.107  215.729 311.468  217.539 310.943  219.379 310.531  221.24 310.237  223.116 310.059  225 310  226.884 310.059  228.76 310.237  230.621 310.531  232.461 310.943  234.271 311.468  236.044 312.107  237.773 312.855  239.453 313.711  241.075 314.67  242.634 315.729  244.123 316.885  245.536 318.131  246.869 319.464  248.115 320.877  249.271 322.366  250.33 323.925  251.289 325.547  252.145 327.227  252.893 328.956  253.532 330.729  254.057 332.539  254.469 334.379  254.763 336.24  254.941 338.116 " fill="green" stroke="blue" stroke-width="0.1" /> </svg><svg xmlns="http://www.w3.org/2000/svg">
	<polygon points=" 315 340  314.941 341.884  314.763 343.76  314.469 345.621  314.057 347.461  313.532 349.271  312.893 351.044  312.145 352.773  311.289 354.453  310.33 356.075  309.271 357.634  308.115 359.123  306.869 360.536  305.536 361.869  304.123 363.115  302.634 364.271  301.075 365.33  299.453 366.289  297.773 367.145  296.044 367.893  294.271 368.532  292.461 369.057  290.621 369.469  288.76 369.763  286.884 369.941  285 370  283.116 369.941  281.24 369.763  279.379 369.469  277.539 369.057  275.729 368.532  273.956 367.893  272.227 367.145  270.547 366.289  268.925 365.33  267.366 364.271  265.877 363.115  264.464 361.869  263.131 360.536  261.885 359.123  260.729 357.634  259.67 356.075  258.711 354.453  257.855 352.773  257.107 351.044  256.468 349.271  255.943 347.461  255.531 345.621  255.237 343.76  255.059 341.884  255 340  255.059 338.116  255.237 336.24  255.531 334.379  255.943 332.539  256.468 330.729  257.107 328.956  257.855 327.227  258.711 325.547  259.67 323.925  260.729 322.366  261.885 320.877  263.131 319.464  264.464 318.131  265.877 316.885  267.366 315.729  268.925 314.67  270.547 313.711  272.227 312.855  273.956 312.107  275.729 311.468  277.539 310.943  279.379 310.531  281.24 310.237  283.116 310.059  285 310  286.884 310.059  288.76 310.237  290.621 310.531  292.461 310.943  294.271 311.468  296.044 312.107  297.773 312.855  299.453 313.711  301.075 314.67  302.634 315.729  304.123 316.885  305.536 318.131  306.869 319.464  308.115 320.877  309.271 322.366  310.33 323.925  311.289 325.547  312.145 327.227  312.893 328.956  313.532 330.729  314.057 332.539  314.469 334.379  314.763 336.24  314.941 338.116 " fill="green" stroke="blue" stroke-width="0.1" /> </svg><svg xmlns="http://www.w3.org/2000/svg">
	<polygon points=" 375 340  374.941 341.884  374.763 343.76  374.469 345.621  374.057 347.461  373.532 349.271  372.893 351.044  372.145 352.773  371.289 354.453  370.33 356.075  369.271 357.634  368.115 359.123  366.869 360.536  365.536 361.869  364.123 363.115  362.634 364.271  361.075 365.33  359.453 366.289  357.773 367.145  356.044 367.893  354.271 368.532  352.461 369.057  350.621 369.469  348.76 369.763  346.884 369.941  345 370  343.116 369.941  341.24 369.763  339.379 369.469  337.539 369.057  335.729 368.532  333.956 367.893  332.227 367.145  330.547 366.289  328.925 365.33  327.366 364.271  325.877 363.115  324.464 361.869  323.131 360.536  321.885 359.123  320.729 357.634  319.67 356.075  318.711 354.453  317.855 352.773  317.107 351.044  316.468 349.271  315.943 347.461  315.531 345.621  315.237 343.76  315.059 341.884  315 340  315.059 338.116  315.237 336.24  315.531 334.379  315.943 332.539  316.468 330.729  317.107 328.956  317.855 327.227  318.711 325.547  319.67 323.925  320.729 322.366  321.885 320.877  323.131 319.464  324.464 318.131  325.877 316.885  327.366 315.729  328.925 314.67  330.547 313.711  332.227 312.855  333.956 312.107  335.729 311.468  337.539 310.943  339.379 310.531  341.24 310.237  343.116 310.059  345 310  346.884 310.059  348.76 310.237  350.621 310.531  352.461 310.943  354.271 311.468  356.044 312.107  357.773 312.855  359.453 313.711  361.075 314.67  362.634 315.729  364.123 316.885  365.536 318.131  366.869 319.464  368.115 320.877  369.271 322.366  370.33 323.925  371.289 325.547  372.145 327.227  372.893 328.956  373.532 330.729  374.057 332.539  374.469 334.379  374.763 336.24  374.941 338.116 " fill="green" stroke="blue" stroke-width="0.1" /> </svg><svg xmlns="http://www.w3.org/2000/svg">
	<polygon points=" 435 340  434.941 341.884  434.763 343.76  434.469 345.621  434.057 347.461  433.532 349.271  432.893 351.044  432.145 352.773  431.289 354.453  430.33 356.075  429.271 357.634  428.115 359.123  426.869 360.536  425.536 361.869  424.123 363.115  422.634 364.271  421.075 365.33  419.453 366.289  417.773 367.145  416.044 367.893  414.271 368.532  412.461 369.057  410.621 369.469  408.76 369.763  406.884 369.941  405 370  403.116 369.941  401.24 369.763  399.379 369.469  397.539 369.057  395.729 368.532  393.956 367.893  392.227 367.145  390.547 366.289  388.925 365.33  387.366 364.271  385.877 363.115  384.464 361.869  383.131 360.536  381.885 359.123  380.729 357.634  379.67 356.075  378.711 354.453  377.855 352.773  377.107 351.044  376.468 349.271  375.943 347.461  375.531 345.621  375.237 343.76  375.059 341.884  375 340  375.059 338.116  375.237 336.24  375.531 334.379  375.943 332.539  376.468 330.729  377.107 328.956  377.855 327.227  378.711 325.547  379.67 323.925  380.729 322.366  381.885 320.877  383.131 319.464  384.464 318.131  385.877 316.885  387.366 315.729  388.925 314.67  390.547 313.711  392.227 312.855  393.956 312.107  395.729 311.468  397.539 310.943  399.379 310.531  401.24 310.237  403.116 310.059  405 310  406.884 310.059  408.76 310.237  410.621 310.531  412.461 310.943  414.271 311.468  416.044 312.107  417.773 312.855  419.453 313.711  421.075 314.67  422.634 315.729  424.123 316.885  425.536 318.131  426.869 319.464  428.115 320.877  429.271 322.366  430.33 323.925  431.289 325.547  432.145 327.227  432.893 328.956  433.532 330.729  434.057 332.539  434.469 334.379  434.763 336.24  434.941 338.116 " fill="green" stroke="blue" stroke-width="0.1" /> </svg><svg xmlns="http://www.w3.org/2000/svg">
	<polygon points=" 75 400  74.9408 401.884  74.7634 403.76  74.4686 405.621  74.0575 407.461  73.5317 409.271  72.8933 411.044  72.1448 412.773  71.2892 414.453  70.3298 416.075  69.2705 417.634  68.1154 419.123  66.8691 420.536  65.5364 421.869  64.1227 423.115  62.6336 424.271  61.0748 425.33  59.4526 426.289  57.7734 427.145  56.0437 427.893  54.2705 428.532  52.4607 429.057  50.6214 429.469  48.76 429.763  46.8837 429.941  45 430  43.1163 429.941  41.24 429.763  39.3786 429.469  37.5393 429.057  35.7295 428.532  33.9563 427.893  32.2266 427.145  30.5474 426.289  28.9252 425.33  27.3664 424.271  25.8773 423.115  24.4636 421.869  23.1309 420.536  21.8846 419.123  20.7295 417.634  19.6702 416.075  18.7108 414.453  17.8552 412.773  17.1067 411.044  16.4683 409.271  15.9425 407.461  15.5314 405.621  15.2366 403.76  15.0592 401.884  15 400  15.0592 398.116  15.2366 396.24  15.5314 394.379  15.9425 392.539  16.4683 390.729  17.1067 388.956  17.8552 387.227  18.7108 385.547  19.6702 383.925  20.7295 382.366  21.8846 380.877  23.1309 379.464  24.4636 378.131  25.8773 376.885  27.3664 375.729  28.9252 374.67  30.5474 373.711  32.2266 372.855  33.9563 372.107  35.7295 371.468  37.5393 370.943  39.3786 370.531  41.24 370.237  43.1163 370.059  45 370  46.8837 370.059  48.76 370.237  50.6214 370.531  52.4607 370.943  54.2705 371.468  56.0437 372.107  57.7734 372.855  59.4526 373.711  61.0748 374.67  62.6336 375.729  64.1227 376.885  65.5364 378.131  66.8691 379.464  68.1154 380.877  69.2705 382.366  70.3298 383.925  71.2892 385.547  72.1448 387.227  72.8933 388.956  73.5317 390.729  74.0575 392.539  74.4686 394.379  74.7634 396.24  74.9408 398.116 " fill="green" stroke="blue" stroke-width="0.1" /> </svg><svg xmlns="http://www.w3.org/2000/svg">
	<polygon points=" 135 400  134.941 401.884  134.763 403.76  134.469 405.621  134.057 407.461  133.532 409.271  132.893 411.044  132.145 412.773  131.289 414.453  130.33 416.075  129.271 417.634  128.115 419.123  126.869 420.536  125.536 421.869  124.123 423.115  122.634 424.271  121.075 425.33  119.453 426.289  117.773 427.145  116.044 427.893  114.271 428.532  112.461 429.057  110.621 429.469  108.76 429.763  106.884 429.941  105 430  103.116 429.941  101.24 429.763  99.3786 429.469  97.5393 429.057  95.7295 428.532  93.9563 427.893  92.2266 427.145  90.5474 426.289  88.9252 425.33  87.3664 424.271  85.8773 423.115  84.4636 421.869  83.1309 420.536  81.8846 419.123  80.7295 417.634  79.6702 416.075  78.7108 414.453  77.8552 412.773  77.1067 411.044  76.4683 409.271  75.9425 407.461  75.5314 405.621  75.2366 403.76  75.0592 401.884  75 400  75.0592 398.116  75.2366 396.24  75.5314 394.379  75.9425 392.539  76.4683 390.729  77.1067 388.956  77.8552 387.227  78.7108 385.547  79.6702 383.925  80.7295 382.366  81.8846 380.877  83.1309 379.464  84.4636 378.131  85.8773 376.885  87.3664 375.729  88.9252 374.67  90.5474 373.711  92.2266 372.855  93.9563 372.107  95.7295 371.468  97.5393 370.943  99.3786 370.531  101.24 370.237  103.116 370.059  105 370  106.884 370.059  108.76 370.237  110.621 370.531  112.461 370.943  114.271 371.468  116.044 372.107  117.773 372.855  119.453 373.711  121.075 374.67  122.634 375.729  124.123 376.885  125.536 378.131  126.869 379.464  128.115 380.877  129.271 382.366  130.33 383.925  131.289 385.547  132.145 387.227  132.893 388.956  133.532 390.729  134.057 392.539  134.469 394.379  134.763 396.24  134.941 398.116 " fill="green" stroke="blue" stroke-width="0.1" /> </svg><svg xmlns="http://www.w3.org/2000/svg">
	<polygon points=" 195 400  194.941 401.884  194.763 403.76  194.469 405.621  194.057 407.461  193.532 409.271  192.893 411.044  192.145 412.773  191.289 414.453  190.33 416.075  189.271 417.634  188.115 419.123  186.869 420.536  185.536 421.869  184.123 423.115  182.634 424.271  181.075 425.33  179.453 426.289  177.773 427.145  176.044 427.893  174.271 428.532  172.461 429.057  170.621 429.469  168.76 429.763  166.884 429.941  165 430  163.116 429.941  161.24 429.763  159.379 429.469  157.539 429.057  155.729 428.532  153.956 427.893  152.227 427.145  150.547 426.289  148.925 425.33  147.366 424.271  145.877 423.115  144.464 421.869  143.131 420.536  141.885 419.123  140.729 417.634  139.67 416.075  138.711 414.453  137.855 412.773  137.107 411.044  136.468 409.271  135.943 407.461  135.531 405.621  135.237 403.76  135.059 401.884  135 400  135.059 398.116  135.237 396.24  135.531 394.379  135.943 392.539  136.468 390.729  137.107 388.956  137.855 387.227  138.711 385.547  139.67 383.925  140.729 382.366  141.885 380.877  143.131 379.464  144.464 378.131  145.877 376.885  147.366 375.729  148.925 374.67  150.547 373.711  152.227 372.855  153.956 372.107  155.729 371.468  157.539 370.943  159.379 370.531  161.24 370.237  163.116 370.059  165 370  166.884 370.059  168.76 370.237  170.621 370.531  172.461 370.943  174.271 371.468  176.044 372.107  177.773 372.855  179.453 373.711  181.075 374.67  182.634 375.729  184.123 376.885  185.536 378.131  186.869 379.464  188.115 380.877  189.271 382.366  190.33 383.925  191.289 385.547  192.145 387.227  192.893 388.956  193.532 390.729  194.057 392.539  194.469 394.379  194.763 396.24  194.941 398.116 " fill="green" stroke="blue" stroke-width="0.1" /> </svg><svg xmlns="http://www.w3.org/2000/svg">
	<polygon points=" 255 400  254.941 401.884  254.763 403.76  254.469 405.621  254.057 407.461  253.532 409.271  252.893 411.044  252.145 412.773  251.289 414.453  250.33 416.075  249.271 417.634  248.115 419.123  246.869 420.536  245.536 421.869  244.123 423.115  242.634 424.271  241.075 425.33  239.453 426.289  237.773 427.145  236.044 427.893  234.271 428.532  232.461 429.057  230.621 429.469  228.76 429.763  226.884 429.941  225 430  223.116 429.941  221.24 429.763  219.379 429.469  217.539 429.057  215.729 428.532  213.956 427.893  212.227 427.145  210.547 426.289  208.925 425.33  207.366 424.271  205.877 423.115  204.464 421.869  203.131 420.536  201.885 419.123  200.729 417.634  199.67 416.075  198.711 414.453  197.855 412.773  197.107 411.044  196.468 409.271  195.943 407.461  195.531 405.621  195.237 403.76  195.059 401.884  195 400  195.059 398.116  195.237 396.24  195.531 394.379  195.943 392.539  196.468 390.729  197.107 388.956  197.855 387.227  198.711 385.547  199.67 383.925  200.729 382.366  201.885 380.877  203.131 379.464  204.464 378.131  205.877 376.885  207.366 375.729  208.925 374.67  210.547 373.711  212.227 372.855  213.956 372.107  215.729 371.468  217.539 370.943  219.379 370.531  221.24 370.237  223.116 370.059  225 370  226.884 370.059  228.76 370.237  230.621 370.531  232.461 370.943  234.271 371.468  236.044 372.107  237.773 372.855  239.453 373.711  241.075 374.67  242.634 375.729  244.123 376.885  245.536 378.131  246.869 379.464  248.115 380.877  249.271 382.366  250.33 383.925  251.289 385.547  252.145 387.227  252.893 388.956  253.532 390.729  254.057 392.539  254.469 394.379  254.763 396.24  254.941 398.116 " fill="green" stroke="blue" stroke-width="0.1" /> </svg><svg xmlns="http://www.w3.org/2000/svg">
	<polygon points=" 315 400  314.941 401.884  314.763 403.76  314.469 405.621  314.057 407.461  313.532 409.271  312.893 411.044  312.145 412.773  311.289 414.453  310.33 416.075  309.271 417.634  308.115 419.123  306.869 420.536  305.536 421.869  304.123 423.115  302.634 424.271  301.075 425.33  299.453 426.289  297.773 427.145  296.044 427.893  294.271 428.532  292.461 429.057  290.621 429.469  288.76 429.763  286.884 429.941  285 430  283.116 429.941  281.24 429.763  279.379 429.469  277.539 429.057  275.729 428.532  273.956 427.893  272.227 427.145  270.547 426.289  268.925 425.33  267.366 424.271  265.877 423.115  264.464 421.869  263.131 420.536  261.885 419.123  260.729 417.634  259.67 416.075  258.711 414.453  257.855 412.773  257.107 411.044  256.468 409.271  255.943 407.461  255.531 405.621  255.237 403.76  255.059 401.884  255 400  255.059 398.116  255.237 396.24  255.531 394.379  255.943 392.539  256.468 390.729  257.107 388.956  257.855 387.227  258.711 385.547  259.67 383.925  260.729 382.366  261.885 380.877  263.131 379.464  264.464 378.131  265.877 376.885  267.366 375.729  268.925 374.67  270.547 373.711  272.227 372.855  273.956 372.107  275.729 371.468  277.539 370.943  279.379 370.531  281.24 370.237  283.116 370.059  285 370  286.884 370.059  288.76 370.237  290.621 370.531  292.461 370.943  294.271 371.468  296.044 372.107  297.773 372.855  299.453 373.711  301.075 374.67  302.634 375.729  304.123 376.885  305.536 378.131  306.869 379.464  308.115 380.877  309.271 382.366  310.33 383.925  311.289 385.547  312.145 387.227  312.893 388.956  313.532 390.729  314.057 392.539  314.469 394.379  314.763 396.24  314.941 398.116 " fill="green" stroke="blue" stroke-width="0.1" /> </svg><svg xmlns="http://www.w3.org/2000/svg">
	<polygon points=" 375 400  374.941 401.884  374.763 403.76  374.469 405.621  374.057 407.461  373.532 409.271  372.893 411.044  372.145 412.773  371.289 414.453  370.33 416.075  369.271 417.634  368.115 419.123  366.869 420.536  365.536 421.869  364.123 423.115  362.634 424.271  361.075 425.33  359.453 426.289  357.773 427.145  356.044 427.893  354.271 428.532  352.461 429.057  350.621 429.469  348.76 429.763  346.884 429.941  345 430  343.116 429.941  341.24 429.763  339.379 429.469  337.539 429.057  335.729 428.532  333.956 427.893  332.227 427.145  330.547 426.289  328.925 425.33  327.366 424.271  325.877 423.115  324.464 421.869  323.131 420.536  321.885 419.123  320.729 417.634  319.67 416.075  318.711 414.453  317.855 412.773  317.107 411.044  316.468 409.271  315.943 407.461  315.531 405.621  315.237 403.76  315.059 401.884  315 400  315.059 398.116  315.237 396.24  315.531 394.379  315.943 392.539  316.468 390.729  317.107 388.956  317.855 387.227  318.711 385.547  319.67 383.925  320.729 382.366  321.885 380.877  323.131 379.464  324.464 378.131  325.877 376.885  327.366 375.729  328.925 374.67  330.547 373.711  332.227 372.855  333.956 372.107  335.729 371.468  337.539 370.943  339.379 370.531  341.24 370.237  343.116 370.059  345 370  346.884 370.059  348.76 370.237  350.621 370.531  352.461 370.943  354.271 371.468  356.044 372.107  357.773 372.855  359.453 373.711  361.075 374.67  362.634 375.729  364.123 376.885  365.536 378.131  366.869 379.464  368.115 380.877  369.271 382.366  370.33 383.925  371.289 385.547  372.145 387.227  372.893 388.956  373.532 390.729  374.057 392.539  374.469 394.379  374.763 396.24  374.941 398.116 " fill="green" stroke="blue" stroke-width="0.1" /> </svg><svg xmlns="http://www.w3.org/2000/svg">
	<polygon points=" 435 400  434.941 401.884  434.763 403.76  434.469 405.621  434.057 407.461  433.532 409.271  432.893 411.044  432.145 412.773  431.289 414.453  430.33 416.075  429.271 417.634  428.115 419.123  426.869 420.536  425.536 421.869  424.123 423.115  422.634 424.271  421.075 425.33  419.453 426.289  417.773 427.145  416.044 427.893  414.271 428.532  412.461 429.057  410.621 429.469  408.76 429.763  406.884 429.941  405 430  403.116 429.941  401.24 429.763  399.379 429.469  397.539 429.057  395.729 428.532  393.956 427.893  392.227 427.145  390.547 426.289  388.925 425.33  387.366 424.271  385.877 423.115  384.464 421.869  383.131 420.536  381.885 419.123  380.729 417.634  379.67 416.075  378.711 414.453  377.855 412.773  377.107 411.044  376.468 409.271  375.943 407.461  375.531 405.621  375.237 403.76  375.059 401.884  375 400  375.059 398.116  375.237 396.24  375.531 394.379  375.943 392.539  376.468 390.729  377.107 388.956  377.855 387.227  378.711 385.547  379.67 383.925  380.729 382.366  381.885 380.877  383.131 379.464  384.464 378.131  385.877 376.885  387.366 375.729  388.925 374.67  390.547 373.711  392.227 372.855  393.956 372.107  395.729 371.468  397.539 370.943  399.379 370.531  401.24 370.237  403.116 370.059  405 370  406.884 370.059  408.76 370.237  410.621 370.531  412.461 370.943  414.271 371.468  416.044 372.107  417.773 372.855  419.453 373.711  421.075 374.67  422.634 375.729  424.123 376.885  425.536 378.131  426.869 379.464  428.115 380.877  429.271 382.366  430.33 383.925  431.289 385.547  432.145 387.227  432.893 388.956  433.532 390.729  434.057 392.539  434.469 394.379  434.763 396.24  434.941 398.116 " fill="green" stroke="blue" stroke-width="0.1" /> </svg><svg xmlns="http://www.w3.org/2000/svg">
	<polygon points=" 75 460  74.9408 461.884  74.7634 463.76  74.4686 465.621  74.0575 467.461  73.5317 469.271  72.8933 471.044  72.1448 472.773  71.2892 474.453  70.3298 476.075  69.2705 477.634  68.1154 479.123  66.8691 480.536  65.5364 481.869  64.1227 483.115  62.6336 484.271  61.0748 485.33  59.4526 486.289  57.7734 487.145  56.0437 487.893  54.2705 488.532  52.4607 489.057  50.6214 489.469  48.76 489.763  46.8837 489.941  45 490  43.1163 489.941  41.24 489.763  39.3786 489.469  37.5393 489.057  35.7295 488.532  33.9563 487.893  32.2266 487.145  30.5474 486.289  28.9252 485.33  27.3664 484.271  25.8773 483.115  24.4636 481.869  23.1309 480.536  21.8846 479.123  20.7295 477.634  19.6702 476.075  18.7108 474.453  17.8552 472.773  17.1067 471.044  16.4683 469.271  15.9425 467.461  15.5314 465.621  15.2366 463.76  15.0592 461.884  15 460  15.0592 458.116  15.2366 456.24  15.5314 454.379  15.9425 452.539  16.4683 450.729  17.1067 448.956  17.8552 447.227  18.7108 445.547  19.6702 443.925  20.7295 442.366  21.8846 440.877  23.1309 439.464  24.4636 438.131  25.8773 436.885  27.3664 435.729  28.9252 434.67  30.5474 433.711  32.2266 432.855  33.9563 432.107  35.7295 431.468  37.5393 430.943  39.3786 430.531  41.24 430.237  43.1163 430.059  45 430  46.8837 430.059  48.76 430.237  50.6214 430.531  52.4607 430.943  54.2705 431.468  56.0437 432.107  57.7734 432.855  59.4526 433.711  61.0748 434.67  62.6336 435.729  64.1227 436.885  65.5364 438.131  66.8691 439.464  68.1154 440.877  69.2705 442.366  70.3298 443.925  71.2892 445.547  72.1448 447.227  72.8933 448.956  73.5317 450.729  74.0575 452.539  74.4686 454.379  74.7634 456.24  74.9408 458.116 " fill="green" stroke="blue" stroke-width="0.1" /> </svg><svg xmlns="http://www.w3.org/2000/svg">
	<polygon points=" 135 460  134.941 461.884  134.763 463.76  134.469 465.621  134.057 467.461  133.532 469.271  132.893 471.044  132.145 472.773  131.289 474.453  130.33 476.075  129.271 477.634  128.115 479.123  126.869 480.536  125.536 481.869  124.123 483.115  122.634 484.271  121.075 485.33  119.453 486.289  117.773 487.145  116.044 487.893  114.271 488.532  112.461 489.057  110.621 489.469  108.76 489.763  106.884 489.941  105 490  103.116 489.941  101.24 489.763  99.3786 489.469  97.5393 489.057  95.7295 488.532  93.9563 487.893  92.2266 487.145  90.5474 486.289  88.9252 485.33  87.3664 484.271  85.8773 483.115  84.4636 481.869  83.1309 480.536  81.8846 479.123  80.7295 477.634  79.6702 476.075  78.7108 474.453  77.8552 472.773  77.1067 471.044  76.4683 469.271  75.9425 467.461  75.5314 465.621  75.2366 463.76  75.0592 461.884  75 460  75.0592 458.116  75.2366 456.24  75.5314 454.379  75.9425 452.539  76.4683 450.729  77.1067 448.956  77.8552 447.227  78.7108 445.547  79.6702 443.925  80.7295 442.366  81.8846 440.877  83.1309 439.464  84.4636 438.131  85.8773 436.885  87.3664 435.729  88.9252 434.67  90.5474 433.711  92.2266 432.855  93.9563 432.107  95.7295 431.468  97.5393 430.943  99.3786 430.531  101.24 430.237  103.116 430.059  105 430  106.884 430.059  108.76 430.237  110.621 430.531  112.461 430.943  114.271 431.468  116.044 432.107  117.773 432.855  119.453 433.711  121.075 434.67  122.634 435.729  124.123 436.885  125.536 438.131  126.869 439.464  128.115 440.877  129.271 442.366  130.33 443.925  131.289 445.547  132.145 447.227  132.893 448.956  133.532 450.729  134.057 452.539  134.469 454.379  134.763 456.24  134.941 458.116 " fill="green" stroke="blue" stroke-width="0.1" /> </svg><svg xmlns="http://www.w3.org/2000/svg">
	<polygon points=" 195 460  194.941 461.884  194.763 463.76  194.469 465.621  194.057 467.461  193.532 469.271  192.893 471.044  192.145 472.773  191.289 474.453  190.33 476.075  189.271 477.634  188.115 479.123  186.869 480.536  185.536 481.869  184.123 483.115  182.634 484.271  181.075 485.33  179.453 486.289  177.773 487.145  176.044 487.893  174.271 488.532  172.461 489.057  170.621 489.469  168.76 489.763  166.884 489.941  165 490  163.116 489.941  161.24 489.763  159.379 489.469  157.539 489.057  155.729 488.532  153.956 487.893  152.227 487.145  150.547 486.289  148.925 485.33  147.366 484.271  145.877 483.115  144.464 481.869  143.131 480.536  141.885 479.123  140.729 477.634  139.67 476.075  138.711 474.453  137.855 472.773  137.107 471.044  136.468 469.271  135.943 467.461  135.531 465.621  135.237 463.76  135.059 461.884  135 460  135.059 458.116  135.237 456.24  135.531 454.379  135.943 452.539  136.468 450.729  137.107 448.956  137.855 447.227  138.711 445.547  139.67 443.925  140.729 442.366  141.885 440.877  143.131 439.464  144.464 438.131  145.877 436.885  147.366 435.729  148.925 434.67  150.547 433.711  152.227 432.855  153.956 432.107  155.729 431.468  157.539 430.943  159.379 430.531  161.24 430.237  163.116 430.059  165 430  166.884 430.059  168.76 430.237  170.621 430.531  172.461 430.943  174.271 431.468  176.044 432.107  177.773 432.855  179.453 433.711  181.075 434.67  182.634 435.729  184.123 436.885  185.536 438.131  186.869 439.464  188.115 440.877  189.271 442.366  190.33 443.925  191.289 445.547  192.145 447.227  192.893 448.956  193.532 450.729  194.057 452.539  194.469 454.379  194.763 456.24  194.941 458.116 " fill="green" stroke="blue" stroke-width="0.1" /> </svg><svg xmlns="http://www.w3.org/2000/svg">
	<polygon points=" 255 460  254.941 461.884  254.763 463.76  254.469 465.621  254.057 467.461  253.532 469.271  252.893 471.044  252.145 472.773  251.289 474.453  250.33 476.075  249.271 477.634  248.115 479.123  246.869 480.536  245.536 481.869  244.123 483.115  242.634 484.271  241.075 485.33  239.453 486.289  237.773 487.145  236.044 487.893  234.271 488.532  232.461 489.057  230.621 489.469  228.76 489.763  226.884 489.941  225 490  223.116 489.941  221.24 489.763  219.379 489.469  217.539 489.057  215.729 488.532  213.956 487.893  212.227 487.145  210.547 486.289  208.925 485.33  207.366 484.271  205.877 483.115  204.464 481.869  203.131 480.536  201.885 479.123  200.729 477.634  199.67 476.075  198.711 474.453  197.855 472.773  197.107 471.044  196.468 469.271  195.943 467.461  195.531 465.621  195.237 463.76  195.059 461.884  195 460  195.059 458.116  195.237 456.24  195.531 454.379  195.943 452.539  196.468 450.729  197.107 448.956  197.855 447.227  198.711 445.547  199.67 443.925  200.729 442.366  201.885 440.877  203.131 439.464  204.464 438.131  205.877 436.885  207.366 435.729  208.925 434.67  210.547 433.711  212.227 432.855  213.956 432.107  215.729 431.468  217.539 430.943  219.379 430.531  221.24 430.237  223.116 430.059  225 430  226.884 430.059  228.76 430.237  230.621 430.531  232.461 430.943  234.271 431.468  236.044 432.107  237.773 432.855  239.453 433.711  241.075 434.67  242.634 435.729  244.123 436.885  245.536 438.131  246.869 439.464  248.115 440.877  249.271 442.366  250.33 443.925  251.289 445.547  252.145 447.227  252.893 448.956  253.532 450.729  254.057 452.539  254.469 454.379  254.763 456.24  254.941 458.116 " fill="green" stroke="blue" stroke-width="0.1" /> </svg><svg xmlns="http://www.w3.org/2000/svg">
	<polygon points=" 315 460  314.941 461.884  314.763 463.76  314.469 465.621  314.057 467.461  313.532 469.271  312.893 471.044  312.145 472.773  311.289 474.453  310.33 476.075  309.271 477.634  308.115 479.123  306.869 480.536  305.536 481.869  304.123 483.115  302.634 484.271  301.075 485.33  299.453 486.289  297.773 487.145  296.044 487.893  294.271 488.532  292.461 489.057  290.621 489.469  288.76 489.763  286.884 489.941  285 490  283.116 489.941  281.24 489.763  279.379 489.469  277.539 489.057  275.729 488.532  273.956 487.893  272.227 487.145  270.547 486.289  268.925 485.33  267.366 484.271  265.877 483.115  264.464 481.869  263.131 480.536  261.885 479.123  260.729 477.634  259.67 476.075  258.711 474.453  257.855 472.773  257.107 471.044  256.468 469.271  255.943 467.461  255.531 465.621  255.237 463.76  255.059 461.884  255 460  255.059 458.116  255.237 456.24  255.531 454.379  255.943 452.539  256.468 450.729  257.107 448.956  257.855 447.227  258.711 445.547  259.67 443.925  260.729 442.366  261.885 440.877  263.131 439.464  264.464 438.131  265.877 436.885  267.366 435.729  268.925 434.67  270.547 433.711  272.227 432.855  273.956 432.107  275.729 431.468  277.539 430.943  279.379 430.531  281.24 430.237  283.116 430.059  285 430  286.884 430.059  288.76 430.237  290.621 430.531  292.461 430.943  294.271 431.468  296.044 432.107  297.773 432.855  299.453 433.711  301.075 434.67  302.634 435.729  304.123 436.885  305.536 438.131  306.869 439.464  308.115 440.877  309.271 442.366  310.33 443.925  311.289 445.547  312.145 447.227  312.893 448.956  313.532 450.729  314.057 452.539  314.469 454.379  314.763 456.24  314.941 458.116 " fill="green" stroke="blue" stroke-width="0.1" /> </svg><svg xmlns="http://www.w3.org/2000/svg">
	<polygon points=" 375 460  374.941 461.884  374.763 463.76  374.469 465.621  374.057 467.461  373.532 469.271  372.893 471.044  372.145 472.773  371.289 474.453  370.33 476.075  369.271 477.634  368.115 479.123  366.869 480.536  365.536 481.869  364.123 483.115  362.634 484.271  361.075 485.33  359.453 486.289  357.773 487.145  356.044 487.893  354.271 488.532  352.461 489.057  350.621 489.469  348.76 489.763  346.884 489.941  345 490  343.116 489.941  341.24 489.763  339.379 489.469  337.539 489.057  335.729 488.532  333.956 487.893  332.227 487.145  330.547 486.289  328.925 485.33  327.366 484.271  325.877 483.115  324.464 481.869  323.131 480.536  321.885 479.123  320.729 477.634  319.67 476.075  318.711 474.453  317.855 472.773  317.107 471.044  316.468 469.271  315.943 467.461  315.531 465.621  315.237 463.76  315.059 461.884  315 460  315.059 458.116  315.237 456.24  315.531 454.379  315.943 452.539  316.468 450.729  317.107 448.956  317.855 447.227  318.711 445.547  319.67 443.925  320.729 442.366  321.885 440.877  323.131 439.464  324.464 438.131  325.877 436.885  327.366 435.729  328.925 434.67  330.547 433.711  332.227 432.855  333.956 432.107  335.729 431.468  337.539 430.943  339.379 430.531  341.24 430.237  343.116 430.059  345 430  346.884 430.059  348.76 430.237  350.621 430.531  352.461 430.943  354.271 431.468  356.044 432.107  357.773 432.855  359.453 433.711  361.075 434.67  362.634 435.729  364.123 436.885  365.536 438.131  366.869 439.464  368.115 440.877  369.271 442.366  370.33 443.925  371.289 445.547  372.145 447.227  372.893 448.956  373.532 450.729  374.057 452.539  374.469 454.379  374.763 456.24  374.941 458.116 " fill="green" stroke="blue" stroke-width="0.1" /> </svg><svg xmlns="http://www.w3.org/2000/svg">
	<polygon points=" 435 460  434.941 461.884  434.763 463.76  434.469 465.621  434.057 467.461  433.532 469.271  432.893 471.044  432.145 472.773  431.289 474.453  430.33 476.075  429.271 477.634  428.115 479.123  426.869 480.536  425.536 481.869  424.123 483.115  422.634 484.271  421.075 485.33  419.453 486.289  417.773 487.145  416.044 487.893  414.271 488.532  412.461 489.057  410.621 489.469  408.76 489.763  406.884 489.941  405 490  403.116 489.941  401.24 489.763  399.379 489.469  397.539 489.057  395.729 488.532  393.956 487.893  392.227 487.145  390.547 486.289  388.925 485.33  387.366 484.271  385.877 483.115  384.464 481.869  383.131 480.536  381.885 479.123  380.729 477.634  379.67 476.075  378.711 474.453  377.855 472.773  377.107 471.044  376.468 469.271  375.943 467.461  375.531 465.621  375.237 463.76  375.059 461.884  375 460  375.059 458.116  375.237 456.24  375.531 454.379  375.943 452.539  376.468 450.729  377.107 448.956  377.855 447.227  378.711 445.547  379.67 443.925  380.729 442.366  381.885 440.877  383.131 439.464  384.464 438.131  385.877 436.885  387.366 435.729  388.925 434.67  390.547 433.711  392.227 432.855  393.956 432.107  395.729 431.468  397.539 430.943  399.379 430.531  401.24 430.237  403.116 430.059  405 430  406.884 430.059  408.76 430.237  410.621 430.531  412.461 430.943  414.271 431.468  416.044 432.107  417.773 432.855  419.453 433.711  421.075 434.67  422.634 435.729  424.123 436.885  425.536 438.131  426.869 439.464  428.115 440.877  429.271 442.366  430.33 443.925  431.289 445.547  432.145 447.227  432.893 448.956  433.532 450.729  434.057 452.539  434.469 454.379  434.763 456.24  434.941 458.116 " fill="green" stroke="blue" stroke-width="0.1" /> </svg></svg>