<svg xmlns="http://www.w3.org/2000/svg">
<polyline points=" 690 345  689.319 366.663  687.28 388.24  683.889 409.647  679.161 430.798  673.114 451.611  665.773 472.003  657.165 491.894  647.326 511.205  636.293 529.86  624.111 547.786  610.827 564.911  596.494 581.169  581.169 596.494  564.911 610.827  547.786 624.111  529.86 636.293  511.205 647.326  491.894 657.165  472.003 665.773  451.611 673.114  430.798 679.161  409.647 683.889  388.24 687.28  366.663 689.319  345 690  323.337 689.319  301.76 687.28  280.353 683.889  259.202 679.161  238.389 673.114  217.997 665.773  198.106 657.165  178.795 647.326  160.14 636.293  142.214 624.111  125.089 610.827  108.831 596.494  93.5058 581.169  79.1729 564.911  65.8891 547.786  53.7069 529.86  42.6742 511.205  32.8347 491.894  24.2271 472.003  16.8855 451.611  10.8388 430.798  6.1109 409.647  2.72043 388.24  0.680779 366.663  0 345  0.680779 323.337  2.72043 301.76  6.1109 280.353  10.8388 259.202  16.8855 238.389  24.2271 217.997  32.8347 198.106  42.6742 178.795  53.7069 160.14  65.8891 142.214  79.1729 125.089  93.5058 108.831  108.831 93.5058  125.089 79.1729  142.214 65.8891  160.14 53.7069  178.795 42.6742  198.106 32.8347  217.997 24.2271  238.389 16.8855  259.202 10.8388  280.353 6.1109  301.76 2.72043  323.337 0.680779  345 0  366.663 0.680779  388.24 2.72043  409.647 6.1109  430.798 10.8388  451.611 16.8855  472.003 24.2271  491.894 32.8347  511.205 42.6742  529.86 53.7069  547.786 65.8891  564.911 79.1729  581.169 93.5058  596.494 108.831  610.827 125.089  624.111 142.214  636.293 160.14  647.326 178.795  657.165 198.106  665.773 217.997  673.114 238.389  679.161 259.202  683.889 280.353  687.28 301.76  689.319 323.337 " fill="yellow" stroke="red" stroke-width="4" /> </svg>