<svg xmlns="http://www.w3.org/2000/svg"> <circle cx="350" cy="350" r="350" fill="red"/>
<svg xmlns="http://www.w3.org/2000/svg">
	<polygon points=" 325 1.5  355 1.5  355 41.5  325 41.5 " fill="green" stroke="blue" stroke-width="0.1" /> </svg><svg xmlns="http://www.w3.org/2000/svg">
	<polygon points=" 186 42  216 42  216 82  186 82 " fill="green" stroke="blue" stroke-width="0.1" /> </svg><svg xmlns="http://www.w3.org/2000/svg">
	<polygon points=" 216.5 42  246.5 42  246.5 82  216.5 82 " fill="green" stroke="blue" stroke-width="0.1" /> </svg><svg xmlns="http://www.w3.org/2000/svg">
	<polygon points=" 247 42  277 42  277 82  247 82 " fill="green" stroke="blue" stroke-width="0.1" /> </svg><svg xmlns="http://www.w3.org/2000/svg">
	<polygon points=" 277.5 42  307.5 42  307.5 82  277.5 82 " fill="green" stroke="blue" stroke-width="0.1" /> </svg><svg xmlns="http://www.w3.org/2000/svg">
	<polygon points=" 308 42  338 42  338 82  308 82 " fill="green" stroke="blue" stroke-width="0.1" /> </svg><svg xmlns="http://www.w3.org/2000/svg">
	<polygon points=" 338.5 42  368.5 42  368.5 82  338.5 82 " fill="green" stroke="blue" stroke-width="0.1" /> </svg><svg xmlns="http://www.w3.org/2000/svg">
	<polygon points=" 369 42  399 42  399 82  369 82 " fill="green" stroke="blue" stroke-width="0.1" /> </svg><svg xmlns="http://www.w3.org/2000/svg">
	<polygon points=" 399.5 42  429.5 42  429.5 82  399.5 82 " fill="green" stroke="blue" stroke-width="0.1" /> </svg><svg xmlns="http://www.w3.org/2000/svg">
	<polygon points=" 430 42  460 42  460 82  430 82 " fill="green" stroke="blue" stroke-width="0.1" /> </svg><svg xmlns="http://www.w3.org/2000/svg">
	<polygon points=" 460.5 42  490.5 42  490.5 82  460.5 82 " fill="green" stroke="blue" stroke-width="0.1" /> </svg><svg xmlns="http://www.w3.org/2000/svg">
	<polygon points=" 126 82.5  156 82.5  156 122.5  126 122.5 " fill="green" stroke="blue" stroke-width="0.1" /> </svg><svg xmlns="http://www.w3.org/2000/svg">
	<polygon points=" 156.5 82.5  186.5 82.5  186.5 122.5  156.5 122.5 " fill="green" stroke="blue" stroke-width="0.1" /> </svg><svg xmlns="http://www.w3.org/2000/svg">
	<polygon points=" 187 82.5  217 82.5  217 122.5  187 122.5 " fill="green" stroke="blue" stroke-width="0.1" /> </svg><svg xmlns="http://www.w3.org/2000/svg">
	<polygon points=" 217.5 82.5  247.5 82.5  247.5 122.5  217.5 122.5 " fill="green" stroke="blue" stroke-width="0.1" /> </svg><svg xmlns="http://www.w3.org/2000/svg">
	<polygon points=" 248 82.5  278 82.5  278 122.5  248 122.5 " fill="green" stroke="blue" stroke-width="0.1" /> </svg><svg xmlns="http://www.w3.org/2000/svg">
	<polygon points=" 278.5 82.5  308.5 82.5  308.5 122.5  278.5 122.5 " fill="green" stroke="blue" stroke-width="0.1" /> </svg><svg xmlns="http://www.w3.org/2000/svg">
	<polygon points=" 309 82.5  339 82.5  339 122.5  309 122.5 " fill="green" stroke="blue" stroke-width="0.1" /> </svg><svg xmlns="http://www.w3.org/2000/svg">
	<polygon points=" 339.5 82.5  369.5 82.5  369.5 122.5  339.5 122.5 " fill="green" stroke="blue" stroke-width="0.1" /> </svg><svg xmlns="http://www.w3.org/2000/svg">
	<polygon points=" 370 82.5  400 82.5  400 122.5  370 122.5 " fill="green" stroke="blue" stroke-width="0.1" /> </svg><svg xmlns="http://www.w3.org/2000/svg">
	<polygon points=" 400.5 82.5  430.5 82.5  430.5 122.5  400.5 122.5 " fill="green" stroke="blue" stroke-width="0.1" /> </svg><svg xmlns="http://www.w3.org/2000/svg">
	<polygon points=" 431 82.5  461 82.5  461 122.5  431 122.5 " fill="green" stroke="blue" stroke-width="0.1" /> </svg><svg xmlns="http://www.w3.org/2000/svg">
	<polygon points=" 461.5 82.5  491.5 82.5  491.5 122.5  461.5 122.5 " fill="green" stroke="blue" stroke-width="0.1" /> </svg><svg xmlns="http://www.w3.org/2000/svg">
	<polygon points=" 492 82.5  522 82.5  522 122.5  492 122.5 " fill="green" stroke="blue" stroke-width="0.1" /> </svg><svg xmlns="http://www.w3.org/2000/svg">
	<polygon points=" 522.5 82.5  552.5 82.5  552.5 122.5  522.5 122.5 " fill="green" stroke="blue" stroke-width="0.1" /> </svg><svg xmlns="http://www.w3.org/2000/svg">
	<polygon points=" 85 123  115 123  115 163  85 163 " fill="green" stroke="blue" stroke-width="0.1" /> </svg><svg xmlns="http://www.w3.org/2000/svg">
	<polygon points=" 115.5 123  145.5 123  145.5 163  115.5 163 " fill="green" stroke="blue" stroke-width="0.1" /> </svg><svg xmlns="http://www.w3.org/2000/svg">
	<polygon points=" 146 123  176 123  176 163  146 163 " fill="green" stroke="blue" stroke-width="0.1" /> </svg><svg xmlns="http://www.w3.org/2000/svg">
	<polygon points=" 176.5 123  206.5 123  206.5 163  176.5 163 " fill="green" stroke="blue" stroke-width="0.1" /> </svg><svg xmlns="http://www.w3.org/2000/svg">
	<polygon points=" 207 123  237 123  237 163  207 163 " fill="green" stroke="blue" stroke-width="0.1" /> </svg><svg xmlns="http://www.w3.org/2000/svg">
	<polygon points=" 237.5 123  267.5 123  267.5 163  237.5 163 " fill="green" stroke="blue" stroke-width="0.1" /> </svg><svg xmlns="http://www.w3.org/2000/svg">
	<polygon points=" 268 123  298 123  298 163  268 163 " fill="green" stroke="blue" stroke-width="0.1" /> </svg><svg xmlns="http://www.w3.org/2000/svg">
	<polygon points=" 298.5 123  328.5 123  328.5 163  298.5 163 " fill="green" stroke="blue" stroke-width="0.1" /> </svg><svg xmlns="http://www.w3.org/2000/svg">
	<polygon points=" 329 123  359 123  359 163  329 163 " fill="green" stroke="blue" stroke-width="0.1" /> </svg><svg xmlns="http://www.w3.org/2000/svg">
	<polygon points=" 359.5 123  389.5 123  389.5 163  359.5 163 " fill="green" stroke="blue" stroke-width="0.1" /> </svg><svg xmlns="http://www.w3.org/2000/svg">
	<polygon points=" 390 123  420 123  420 163  390 163 " fill="green" stroke="blue" stroke-width="0.1" /> </svg><svg xmlns="http://www.w3.org/2000/svg">
	<polygon points=" 420.5 123  450.5 123  450.5 163  420.5 163 " fill="green" stroke="blue" stroke-width="0.1" /> </svg><svg xmlns="http://www.w3.org/2000/svg">
	<polygon points=" 451 123  481 123  481 163  451 163 " fill="green" stroke="blue" stroke-width="0.1" /> </svg><svg xmlns="http://www.w3.org/2000/svg">
	<polygon points=" 481.5 123  511.5 123  511.5 163  481.5 163 " fill="green" stroke="blue" stroke-width="0.1" /> </svg><svg xmlns="http://www.w3.org/2000/svg">
	<polygon points=" 512 123  542 123  542 163  512 163 " fill="green" stroke="blue" stroke-width="0.1" /> </svg><svg xmlns="http://www.w3.org/2000/svg">
	<polygon points=" 542.5 123  572.5 123  572.5 163  542.5 163 " fill="green" stroke="blue" stroke-width="0.1" /> </svg><svg xmlns="http://www.w3.org/2000/svg">
	<polygon points=" 573 123  603 123  603 163  573 163 " fill="green" stroke="blue" stroke-width="0.1" /> </svg><svg xmlns="http://www.w3.org/2000/svg">
	<polygon points=" 55 163.5  85 163.5  85 203.5  55 203.5 " fill="green" stroke="blue" stroke-width="0.1" /> </svg><svg xmlns="http://www.w3.org/2000/svg">
	<polygon points=" 85.5 163.5  115.5 163.5  115.5 203.5  85.5 203.5 " fill="green" stroke="blue" stroke-width="0.1" /> </svg><svg xmlns="http://www.w3.org/2000/svg">
	<polygon points=" 116 163.5  146 163.5  146 203.5  116 203.5 " fill="green" stroke="blue" stroke-width="0.1" /> </svg><svg xmlns="http://www.w3.org/2000/svg">
	<polygon points=" 146.5 163.5  176.5 163.5  176.5 203.5  146.5 203.5 " fill="green" stroke="blue" stroke-width="0.1" /> </svg><svg xmlns="http://www.w3.org/2000/svg">
	<polygon points=" 177 163.5  207 163.5  207 203.5  177 203.5 " fill="green" stroke="blue" stroke-width="0.1" /> </svg><svg xmlns="http://www.w3.org/2000/svg">
	<polygon points=" 207.5 163.5  237.5 163.5  237.5 203.5  207.5 203.5 " fill="green" stroke="blue" stroke-width="0.1" /> </svg><svg xmlns="http://www.w3.org/2000/svg">
	<polygon points=" 238 163.5  268 163.5  268 203.5  238 203.5 " fill="green" stroke="blue" stroke-width="0.1" /> </svg><svg xmlns="http://www.w3.org/2000/svg">
	<polygon points=" 268.5 163.5  298.5 163.5  298.5 203.5  268.5 203.5 " fill="green" stroke="blue" stroke-width="0.1" /> </svg><svg xmlns="http://www.w3.org/2000/svg">
	<polygon points=" 299 163.5  329 163.5  329 203.5  299 203.5 " fill="green" stroke="blue" stroke-width="0.1" /> </svg><svg xmlns="http://www.w3.org/2000/svg">
	<polygon points=" 329.5 163.5  359.5 163.5  359.5 203.5  329.5 203.5 " fill="green" stroke="blue" stroke-width="0.1" /> </svg><svg xmlns="http://www.w3.org/2000/svg">
	<polygon points=" 360 163.5  390 163.5  390 203.5  360 203.5 " fill="green" stroke="blue" stroke-width="0.1" /> </svg><svg xmlns="http://www.w3.org/2000/svg">
	<polygon points=" 390.5 163.5  420.5 163.5  420.5 203.5  390.5 203.5 " fill="green" stroke="blue" stroke-width="0.1" /> </svg><svg xmlns="http://www.w3.org/2000/svg">
	<polygon points=" 421 163.5  451 163.5  451 203.5  421 203.5 " fill="green" stroke="blue" stroke-width="0.1" /> </svg><svg xmlns="http://www.w3.org/2000/svg">
	<polygon points=" 451.5 163.5  481.5 163.5  481.5 203.5  451.5 203.5 " fill="green" stroke="blue" stroke-width="0.1" /> </svg><svg xmlns="http://www.w3.org/2000/svg">
	<polygon points=" 482 163.5  512 163.5  512 203.5  482 203.5 " fill="green" stroke="blue" stroke-width="0.1" /> </svg><svg xmlns="http://www.w3.org/2000/svg">
	<polygon points=" 512.5 163.5  542.5 163.5  542.5 203.5  512.5 203.5 " fill="green" stroke="blue" stroke-width="0.1" /> </svg><svg xmlns="http://www.w3.org/2000/svg">
	<polygon points=" 543 163.5  573 163.5  573 203.5  543 203.5 " fill="green" stroke="blue" stroke-width="0.1" /> </svg><svg xmlns="http://www.w3.org/2000/svg">
	<polygon points=" 573.5 163.5  603.5 163.5  603.5 203.5  573.5 203.5 " fill="green" stroke="blue" stroke-width="0.1" /> </svg><svg xmlns="http://www.w3.org/2000/svg">
	<polygon points=" 604 163.5  634 163.5  634 203.5  604 203.5 " fill="green" stroke="blue" stroke-width="0.1" /> </svg><svg xmlns="http://www.w3.org/2000/svg">
	<polygon points=" 33 204  63 204  63 244  33 244 " fill="green" stroke="blue" stroke-width="0.1" /> </svg><svg xmlns="http://www.w3.org/2000/svg">
	<polygon points=" 63.5 204  93.5 204  93.5 244  63.5 244 " fill="green" stroke="blue" stroke-width="0.1" /> </svg><svg xmlns="http://www.w3.org/2000/svg">
	<polygon points=" 94 204  124 204  124 244  94 244 " fill="green" stroke="blue" stroke-width="0.1" /> </svg><svg xmlns="http://www.w3.org/2000/svg">
	<polygon points=" 124.5 204  154.5 204  154.5 244  124.5 244 " fill="green" stroke="blue" stroke-width="0.1" /> </svg><svg xmlns="http://www.w3.org/2000/svg">
	<polygon points=" 155 204  185 204  185 244  155 244 " fill="green" stroke="blue" stroke-width="0.1" /> </svg><svg xmlns="http://www.w3.org/2000/svg">
	<polygon points=" 185.5 204  215.5 204  215.5 244  185.5 244 " fill="green" stroke="blue" stroke-width="0.1" /> </svg><svg xmlns="http://www.w3.org/2000/svg">
	<polygon points=" 216 204  246 204  246 244  216 244 " fill="green" stroke="blue" stroke-width="0.1" /> </svg><svg xmlns="http://www.w3.org/2000/svg">
	<polygon points=" 246.5 204  276.5 204  276.5 244  246.5 244 " fill="green" stroke="blue" stroke-width="0.1" /> </svg><svg xmlns="http://www.w3.org/2000/svg">
	<polygon points=" 277 204  307 204  307 244  277 244 " fill="green" stroke="blue" stroke-width="0.1" /> </svg><svg xmlns="http://www.w3.org/2000/svg">
	<polygon points=" 307.5 204  337.5 204  337.5 244  307.5 244 " fill="green" stroke="blue" stroke-width="0.1" /> </svg><svg xmlns="http://www.w3.org/2000/svg">
	<polygon points=" 338 204  368 204  368 244  338 244 " fill="green" stroke="blue" stroke-width="0.1" /> </svg><svg xmlns="http://www.w3.org/2000/svg">
	<polygon points=" 368.5 204  398.5 204  398.5 244  368.5 244 " fill="green" stroke="blue" stroke-width="0.1" /> </svg><svg xmlns="http://www.w3.org/2000/svg">
	<polygon points=" 399 204  429 204  429 244  399 244 " fill="green" stroke="blue" stroke-width="0.1" /> </svg><svg xmlns="http://www.w3.org/2000/svg">
	<polygon points=" 429.5 204  459.5 204  459.5 244  429.5 244 " fill="green" stroke="blue" stroke-width="0.1" /> </svg><svg xmlns="http://www.w3.org/2000/svg">
	<polygon points=" 460 204  490 204  490 244  460 244 " fill="green" stroke="blue" stroke-width="0.1" /> </svg><svg xmlns="http://www.w3.org/2000/svg">
	<polygon points=" 490.5 204  520.5 204  520.5 244  490.5 244 " fill="green" stroke="blue" stroke-width="0.1" /> </svg><svg xmlns="http://www.w3.org/2000/svg">
	<polygon points=" 521 204  551 204  551 244  521 244 " fill="green" stroke="blue" stroke-width="0.1" /> </svg><svg xmlns="http://www.w3.org/2000/svg">
	<polygon points=" 551.5 204  581.5 204  581.5 244  551.5 244 " fill="green" stroke="blue" stroke-width="0.1" /> </svg><svg xmlns="http://www.w3.org/2000/svg">
	<polygon points=" 582 204  612 204  612 244  582 244 " fill="green" stroke="blue" stroke-width="0.1" /> </svg><svg xmlns="http://www.w3.org/2000/svg">
	<polygon points=" 612.5 204  642.5 204  642.5 244  612.5 244 " fill="green" stroke="blue" stroke-width="0.1" /> </svg><svg xmlns="http://www.w3.org/2000/svg">
	<polygon points=" 17 244.5  47 244.5  47 284.5  17 284.5 " fill="green" stroke="blue" stroke-width="0.1" /> </svg><svg xmlns="http://www.w3.org/2000/svg">
	<polygon points=" 47.5 244.5  77.5 244.5  77.5 284.5  47.5 284.5 " fill="green" stroke="blue" stroke-width="0.1" /> </svg><svg xmlns="http://www.w3.org/2000/svg">
	<polygon points=" 78 244.5  108 244.5  108 284.5  78 284.5 " fill="green" stroke="blue" stroke-width="0.1" /> </svg><svg xmlns="http://www.w3.org/2000/svg">
	<polygon points=" 108.5 244.5  138.5 244.5  138.5 284.5  108.5 284.5 " fill="green" stroke="blue" stroke-width="0.1" /> </svg><svg xmlns="http://www.w3.org/2000/svg">
	<polygon points=" 139 244.5  169 244.5  169 284.5  139 284.5 " fill="green" stroke="blue" stroke-width="0.1" /> </svg><svg xmlns="http://www.w3.org/2000/svg">
	<polygon points=" 169.5 244.5  199.5 244.5  199.5 284.5  169.5 284.5 " fill="green" stroke="blue" stroke-width="0.1" /> </svg><svg xmlns="http://www.w3.org/2000/svg">
	<polygon points=" 200 244.5  230 244.5  230 284.5  200 284.5 " fill="green" stroke="blue" stroke-width="0.1" /> </svg><svg xmlns="http://www.w3.org/2000/svg">
	<polygon points=" 230.5 244.5  260.5 244.5  260.5 284.5  230.5 284.5 " fill="green" stroke="blue" stroke-width="0.1" /> </svg><svg xmlns="http://www.w3.org/2000/svg">
	<polygon points=" 261 244.5  291 244.5  291 284.5  261 284.5 " fill="green" stroke="blue" stroke-width="0.1" /> </svg><svg xmlns="http://www.w3.org/2000/svg">
	<polygon points=" 291.5 244.5  321.5 244.5  321.5 284.5  291.5 284.5 " fill="green" stroke="blue" stroke-width="0.1" /> </svg><svg xmlns="http://www.w3.org/2000/svg">
	<polygon points=" 322 244.5  352 244.5  352 284.5  322 284.5 " fill="green" stroke="blue" stroke-width="0.1" /> </svg><svg xmlns="http://www.w3.org/2000/svg">
	<polygon points=" 352.5 244.5  382.5 244.5  382.5 284.5  352.5 284.5 " fill="green" stroke="blue" stroke-width="0.1" /> </svg><svg xmlns="http://www.w3.org/2000/svg">
	<polygon points=" 383 244.5  413 244.5  413 284.5  383 284.5 " fill="green" stroke="blue" stroke-width="0.1" /> </svg><svg xmlns="http://www.w3.org/2000/svg">
	<polygon points=" 413.5 244.5  443.5 244.5  443.5 284.5  413.5 284.5 " fill="green" stroke="blue" stroke-width="0.1" /> </svg><svg xmlns="http://www.w3.org/2000/svg">
	<polygon points=" 444 244.5  474 244.5  474 284.5  444 284.5 " fill="green" stroke="blue" stroke-width="0.1" /> </svg><svg xmlns="http://www.w3.org/2000/svg">
	<polygon points=" 474.5 244.5  504.5 244.5  504.5 284.5  474.5 284.5 " fill="green" stroke="blue" stroke-width="0.1" /> </svg><svg xmlns="http://www.w3.org/2000/svg">
	<polygon points=" 505 244.5  535 244.5  535 284.5  505 284.5 " fill="green" stroke="blue" stroke-width="0.1" /> </svg><svg xmlns="http://www.w3.org/2000/svg">
	<polygon points=" 535.5 244.5  565.5 244.5  565.5 284.5  535.5 284.5 " fill="green" stroke="blue" stroke-width="0.1" /> </svg><svg xmlns="http://www.w3.org/2000/svg">
	<polygon points=" 566 244.5  596 244.5  596 284.5  566 284.5 " fill="green" stroke="blue" stroke-width="0.1" /> </svg><svg xmlns="http://www.w3.org/2000/svg">
	<polygon points=" 596.5 244.5  626.5 244.5  626.5 284.5  596.5 284.5 " fill="green" stroke="blue" stroke-width="0.1" /> </svg><svg xmlns="http://www.w3.org/2000/svg">
	<polygon points=" 627 244.5  657 244.5  657 284.5  627 284.5 " fill="green" stroke="blue" stroke-width="0.1" /> </svg><svg xmlns="http://www.w3.org/2000/svg">
	<polygon points=" 7 285  37 285  37 325  7 325 " fill="green" stroke="blue" stroke-width="0.1" /> </svg><svg xmlns="http://www.w3.org/2000/svg">
	<polygon points=" 37.5 285  67.5 285  67.5 325  37.5 325 " fill="green" stroke="blue" stroke-width="0.1" /> </svg><svg xmlns="http://www.w3.org/2000/svg">
	<polygon points=" 68 285  98 285  98 325  68 325 " fill="green" stroke="blue" stroke-width="0.1" /> </svg><svg xmlns="http://www.w3.org/2000/svg">
	<polygon points=" 98.5 285  128.5 285  128.5 325  98.5 325 " fill="green" stroke="blue" stroke-width="0.1" /> </svg><svg xmlns="http://www.w3.org/2000/svg">
	<polygon points=" 129 285  159 285  159 325  129 325 " fill="green" stroke="blue" stroke-width="0.1" /> </svg><svg xmlns="http://www.w3.org/2000/svg">
	<polygon points=" 159.5 285  189.5 285  189.5 325  159.5 325 " fill="green" stroke="blue" stroke-width="0.1" /> </svg><svg xmlns="http://www.w3.org/2000/svg">
	<polygon points=" 190 285  220 285  220 325  190 325 " fill="green" stroke="blue" stroke-width="0.1" /> </svg><svg xmlns="http://www.w3.org/2000/svg">
	<polygon points=" 220.5 285  250.5 285  250.5 325  220.5 325 " fill="green" stroke="blue" stroke-width="0.1" /> </svg><svg xmlns="http://www.w3.org/2000/svg">
	<polygon points=" 251 285  281 285  281 325  251 325 " fill="green" stroke="blue" stroke-width="0.1" /> </svg><svg xmlns="http://www.w3.org/2000/svg">
	<polygon points=" 281.5 285  311.5 285  311.5 325  281.5 325 " fill="green" stroke="blue" stroke-width="0.1" /> </svg><svg xmlns="http://www.w3.org/2000/svg">
	<polygon points=" 312 285  342 285  342 325  312 325 " fill="green" stroke="blue" stroke-width="0.1" /> </svg><svg xmlns="http://www.w3.org/2000/svg">
	<polygon points=" 342.5 285  372.5 285  372.5 325  342.5 325 " fill="green" stroke="blue" stroke-width="0.1" /> </svg><svg xmlns="http://www.w3.org/2000/svg">
	<polygon points=" 373 285  403 285  403 325  373 325 " fill="green" stroke="blue" stroke-width="0.1" /> </svg><svg xmlns="http://www.w3.org/2000/svg">
	<polygon points=" 403.5 285  433.5 285  433.5 325  403.5 325 " fill="green" stroke="blue" stroke-width="0.1" /> </svg><svg xmlns="http://www.w3.org/2000/svg">
	<polygon points=" 434 285  464 285  464 325  434 325 " fill="green" stroke="blue" stroke-width="0.1" /> </svg><svg xmlns="http://www.w3.org/2000/svg">
	<polygon points=" 464.5 285  494.5 285  494.5 325  464.5 325 " fill="green" stroke="blue" stroke-width="0.1" /> </svg><svg xmlns="http://www.w3.org/2000/svg">
	<polygon points=" 495 285  525 285  525 325  495 325 " fill="green" stroke="blue" stroke-width="0.1" /> </svg><svg xmlns="http://www.w3.org/2000/svg">
	<polygon points=" 525.5 285  555.5 285  555.5 325  525.5 325 " fill="green" stroke="blue" stroke-width="0.1" /> </svg><svg xmlns="http://www.w3.org/2000/svg">
	<polygon points=" 556 285  586 285  586 325  556 325 " fill="green" stroke="blue" stroke-width="0.1" /> </svg><svg xmlns="http://www.w3.org/2000/svg">
	<polygon points=" 586.5 285  616.5 285  616.5 325  586.5 325 " fill="green" stroke="blue" stroke-width="0.1" /> </svg><svg xmlns="http://www.w3.org/2000/svg">
	<polygon points=" 617 285  647 285  647 325  617 325 " fill="green" stroke="blue" stroke-width="0.1" /> </svg><svg xmlns="http://www.w3.org/2000/svg">
	<polygon points=" 647.5 285  677.5 285  677.5 325  647.5 325 " fill="green" stroke="blue" stroke-width="0.1" /> </svg><svg xmlns="http://www.w3.org/2000/svg">
	<polygon points=" 2 325.5  32 325.5  32 365.5  2 365.5 " fill="green" stroke="blue" stroke-width="0.1" /> </svg><svg xmlns="http://www.w3.org/2000/svg">
	<polygon points=" 32.5 325.5  62.5 325.5  62.5 365.5  32.5 365.5 " fill="green" stroke="blue" stroke-width="0.1" /> </svg><svg xmlns="http://www.w3.org/2000/svg">
	<polygon points=" 63 325.5  93 325.5  93 365.5  63 365.5 " fill="green" stroke="blue" stroke-width="0.1" /> </svg><svg xmlns="http://www.w3.org/2000/svg">
	<polygon points=" 93.5 325.5  123.5 325.5  123.5 365.5  93.5 365.5 " fill="green" stroke="blue" stroke-width="0.1" /> </svg><svg xmlns="http://www.w3.org/2000/svg">
	<polygon points=" 124 325.5  154 325.5  154 365.5  124 365.5 " fill="green" stroke="blue" stroke-width="0.1" /> </svg><svg xmlns="http://www.w3.org/2000/svg">
	<polygon points=" 154.5 325.5  184.5 325.5  184.5 365.5  154.5 365.5 " fill="green" stroke="blue" stroke-width="0.1" /> </svg><svg xmlns="http://www.w3.org/2000/svg">
	<polygon points=" 185 325.5  215 325.5  215 365.5  185 365.5 " fill="green" stroke="blue" stroke-width="0.1" /> </svg><svg xmlns="http://www.w3.org/2000/svg">
	<polygon points=" 215.5 325.5  245.5 325.5  245.5 365.5  215.5 365.5 " fill="green" stroke="blue" stroke-width="0.1" /> </svg><svg xmlns="http://www.w3.org/2000/svg">
	<polygon points=" 246 325.5  276 325.5  276 365.5  246 365.5 " fill="green" stroke="blue" stroke-width="0.1" /> </svg><svg xmlns="http://www.w3.org/2000/svg">
	<polygon points=" 276.5 325.5  306.5 325.5  306.5 365.5  276.5 365.5 " fill="green" stroke="blue" stroke-width="0.1" /> </svg><svg xmlns="http://www.w3.org/2000/svg">
	<polygon points=" 307 325.5  337 325.5  337 365.5  307 365.5 " fill="green" stroke="blue" stroke-width="0.1" /> </svg><svg xmlns="http://www.w3.org/2000/svg">
	<polygon points=" 337.5 325.5  367.5 325.5  367.5 365.5  337.5 365.5 " fill="green" stroke="blue" stroke-width="0.1" /> </svg><svg xmlns="http://www.w3.org/2000/svg">
	<polygon points=" 368 325.5  398 325.5  398 365.5  368 365.5 " fill="green" stroke="blue" stroke-width="0.1" /> </svg><svg xmlns="http://www.w3.org/2000/svg">
	<polygon points=" 398.5 325.5  428.5 325.5  428.5 365.5  398.5 365.5 " fill="green" stroke="blue" stroke-width="0.1" /> </svg><svg xmlns="http://www.w3.org/2000/svg">
	<polygon points=" 429 325.5  459 325.5  459 365.5  429 365.5 " fill="green" stroke="blue" stroke-width="0.1" /> </svg><svg xmlns="http://www.w3.org/2000/svg">
	<polygon points=" 459.5 325.5  489.5 325.5  489.5 365.5  459.5 365.5 " fill="green" stroke="blue" stroke-width="0.1" /> </svg><svg xmlns="http://www.w3.org/2000/svg">
	<polygon points=" 490 325.5  520 325.5  520 365.5  490 365.5 " fill="green" stroke="blue" stroke-width="0.1" /> </svg><svg xmlns="http://www.w3.org/2000/svg">
	<polygon points=" 520.5 325.5  550.5 325.5  550.5 365.5  520.5 365.5 " fill="green" stroke="blue" stroke-width="0.1" /> </svg><svg xmlns="http://www.w3.org/2000/svg">
	<polygon points=" 551 325.5  581 325.5  581 365.5  551 365.5 " fill="green" stroke="blue" stroke-width="0.1" /> </svg><svg xmlns="http://www.w3.org/2000/svg">
	<polygon points=" 581.5 325.5  611.5 325.5  611.5 365.5  581.5 365.5 " fill="green" stroke="blue" stroke-width="0.1" /> </svg><svg xmlns="http://www.w3.org/2000/svg">
	<polygon points=" 612 325.5  642 325.5  642 365.5  612 365.5 " fill="green" stroke="blue" stroke-width="0.1" /> </svg><svg xmlns="http://www.w3.org/2000/svg">
	<polygon points=" 642.5 325.5  672.5 325.5  672.5 365.5  642.5 365.5 " fill="green" stroke="blue" stroke-width="0.1" /> </svg><svg xmlns="http://www.w3.org/2000/svg">
	<polygon points=" 5 366  35 366  35 406  5 406 " fill="green" stroke="blue" stroke-width="0.1" /> </svg><svg xmlns="http://www.w3.org/2000/svg">
	<polygon points=" 35.5 366  65.5 366  65.5 406  35.5 406 " fill="green" stroke="blue" stroke-width="0.1" /> </svg><svg xmlns="http://www.w3.org/2000/svg">
	<polygon points=" 66 366  96 366  96 406  66 406 " fill="green" stroke="blue" stroke-width="0.1" /> </svg><svg xmlns="http://www.w3.org/2000/svg">
	<polygon points=" 96.5 366  126.5 366  126.5 406  96.5 406 " fill="green" stroke="blue" stroke-width="0.1" /> </svg><svg xmlns="http://www.w3.org/2000/svg">
	<polygon points=" 127 366  157 366  157 406  127 406 " fill="green" stroke="blue" stroke-width="0.1" /> </svg><svg xmlns="http://www.w3.org/2000/svg">
	<polygon points=" 157.5 366  187.5 366  187.5 406  157.5 406 " fill="green" stroke="blue" stroke-width="0.1" /> </svg><svg xmlns="http://www.w3.org/2000/svg">
	<polygon points=" 188 366  218 366  218 406  188 406 " fill="green" stroke="blue" stroke-width="0.1" /> </svg><svg xmlns="http://www.w3.org/2000/svg">
	<polygon points=" 218.5 366  248.5 366  248.5 406  218.5 406 " fill="green" stroke="blue" stroke-width="0.1" /> </svg><svg xmlns="http://www.w3.org/2000/svg">
	<polygon points=" 249 366  279 366  279 406  249 406 " fill="green" stroke="blue" stroke-width="0.1" /> </svg><svg xmlns="http://www.w3.org/2000/svg">
	<polygon points=" 279.5 366  309.5 366  309.5 406  279.5 406 " fill="green" stroke="blue" stroke-width="0.1" /> </svg><svg xmlns="http://www.w3.org/2000/svg">
	<polygon points=" 310 366  340 366  340 406  310 406 " fill="green" stroke="blue" stroke-width="0.1" /> </svg><svg xmlns="http://www.w3.org/2000/svg">
	<polygon points=" 340.5 366  370.5 366  370.5 406  340.5 406 " fill="green" stroke="blue" stroke-width="0.1" /> </svg><svg xmlns="http://www.w3.org/2000/svg">
	<polygon points=" 371 366  401 366  401 406  371 406 " fill="green" stroke="blue" stroke-width="0.1" /> </svg><svg xmlns="http://www.w3.org/2000/svg">
	<polygon points=" 401.5 366  431.5 366  431.5 406  401.5 406 " fill="green" stroke="blue" stroke-width="0.1" /> </svg><svg xmlns="http://www.w3.org/2000/svg">
	<polygon points=" 432 366  462 366  462 406  432 406 " fill="green" stroke="blue" stroke-width="0.1" /> </svg><svg xmlns="http://www.w3.org/2000/svg">
	<polygon points=" 462.5 366  492.5 366  492.5 406  462.5 406 " fill="green" stroke="blue" stroke-width="0.1" /> </svg><svg xmlns="http://www.w3.org/2000/svg">
	<polygon points=" 493 366  523 366  523 406  493 406 " fill="green" stroke="blue" stroke-width="0.1" /> </svg><svg xmlns="http://www.w3.org/2000/svg">
	<polygon points=" 523.5 366  553.5 366  553.5 406  523.5 406 " fill="green" stroke="blue" stroke-width="0.1" /> </svg><svg xmlns="http://www.w3.org/2000/svg">
	<polygon points=" 554 366  584 366  584 406  554 406 " fill="green" stroke="blue" stroke-width="0.1" /> </svg><svg xmlns="http://www.w3.org/2000/svg">
	<polygon points=" 584.5 366  614.5 366  614.5 406  584.5 406 " fill="green" stroke="blue" stroke-width="0.1" /> </svg><svg xmlns="http://www.w3.org/2000/svg">
	<polygon points=" 615 366  645 366  645 406  615 406 " fill="green" stroke="blue" stroke-width="0.1" /> </svg><svg xmlns="http://www.w3.org/2000/svg">
	<polygon points=" 645.5 366  675.5 366  675.5 406  645.5 406 " fill="green" stroke="blue" stroke-width="0.1" /> </svg><svg xmlns="http://www.w3.org/2000/svg">
	<polygon points=" 14 406.5  44 406.5  44 446.5  14 446.5 " fill="green" stroke="blue" stroke-width="0.1" /> </svg><svg xmlns="http://www.w3.org/2000/svg">
	<polygon points=" 44.5 406.5  74.5 406.5  74.5 446.5  44.5 446.5 " fill="green" stroke="blue" stroke-width="0.1" /> </svg><svg xmlns="http://www.w3.org/2000/svg">
	<polygon points=" 75 406.5  105 406.5  105 446.5  75 446.5 " fill="green" stroke="blue" stroke-width="0.1" /> </svg><svg xmlns="http://www.w3.org/2000/svg">
	<polygon points=" 105.5 406.5  135.5 406.5  135.5 446.5  105.5 446.5 " fill="green" stroke="blue" stroke-width="0.1" /> </svg><svg xmlns="http://www.w3.org/2000/svg">
	<polygon points=" 136 406.5  166 406.5  166 446.5  136 446.5 " fill="green" stroke="blue" stroke-width="0.1" /> </svg><svg xmlns="http://www.w3.org/2000/svg">
	<polygon points=" 166.5 406.5  196.5 406.5  196.5 446.5  166.5 446.5 " fill="green" stroke="blue" stroke-width="0.1" /> </svg><svg xmlns="http://www.w3.org/2000/svg">
	<polygon points=" 197 406.5  227 406.5  227 446.5  197 446.5 " fill="green" stroke="blue" stroke-width="0.1" /> </svg><svg xmlns="http://www.w3.org/2000/svg">
	<polygon points=" 227.5 406.5  257.5 406.5  257.5 446.5  227.5 446.5 " fill="green" stroke="blue" stroke-width="0.1" /> </svg><svg xmlns="http://www.w3.org/2000/svg">
	<polygon points=" 258 406.5  288 406.5  288 446.5  258 446.5 " fill="green" stroke="blue" stroke-width="0.1" /> </svg><svg xmlns="http://www.w3.org/2000/svg">
	<polygon points=" 288.5 406.5  318.5 406.5  318.5 446.5  288.5 446.5 " fill="green" stroke="blue" stroke-width="0.1" /> </svg><svg xmlns="http://www.w3.org/2000/svg">
	<polygon points=" 319 406.5  349 406.5  349 446.5  319 446.5 " fill="green" stroke="blue" stroke-width="0.1" /> </svg><svg xmlns="http://www.w3.org/2000/svg">
	<polygon points=" 349.5 406.5  379.5 406.5  379.5 446.5  349.5 446.5 " fill="green" stroke="blue" stroke-width="0.1" /> </svg><svg xmlns="http://www.w3.org/2000/svg">
	<polygon points=" 380 406.5  410 406.5  410 446.5  380 446.5 " fill="green" stroke="blue" stroke-width="0.1" /> </svg><svg xmlns="http://www.w3.org/2000/svg">
	<polygon points=" 410.5 406.5  440.5 406.5  440.5 446.5  410.5 446.5 " fill="green" stroke="blue" stroke-width="0.1" /> </svg><svg xmlns="http://www.w3.org/2000/svg">
	<polygon points=" 441 406.5  471 406.5  471 446.5  441 446.5 " fill="green" stroke="blue" stroke-width="0.1" /> </svg><svg xmlns="http://www.w3.org/2000/svg">
	<polygon points=" 471.5 406.5  501.5 406.5  501.5 446.5  471.5 446.5 " fill="green" stroke="blue" stroke-width="0.1" /> </svg><svg xmlns="http://www.w3.org/2000/svg">
	<polygon points=" 502 406.5  532 406.5  532 446.5  502 446.5 " fill="green" stroke="blue" stroke-width="0.1" /> </svg><svg xmlns="http://www.w3.org/2000/svg">
	<polygon points=" 532.5 406.5  562.5 406.5  562.5 446.5  532.5 446.5 " fill="green" stroke="blue" stroke-width="0.1" /> </svg><svg xmlns="http://www.w3.org/2000/svg">
	<polygon points=" 563 406.5  593 406.5  593 446.5  563 446.5 " fill="green" stroke="blue" stroke-width="0.1" /> </svg><svg xmlns="http://www.w3.org/2000/svg">
	<polygon points=" 593.5 406.5  623.5 406.5  623.5 446.5  593.5 446.5 " fill="green" stroke="blue" stroke-width="0.1" /> </svg><svg xmlns="http://www.w3.org/2000/svg">
	<polygon points=" 624 406.5  654 406.5  654 446.5  624 446.5 " fill="green" stroke="blue" stroke-width="0.1" /> </svg><svg xmlns="http://www.w3.org/2000/svg">
	<polygon points=" 654.5 406.5  684.5 406.5  684.5 446.5  654.5 446.5 " fill="green" stroke="blue" stroke-width="0.1" /> </svg><svg xmlns="http://www.w3.org/2000/svg">
	<polygon points=" 29 447  59 447  59 487  29 487 " fill="green" stroke="blue" stroke-width="0.1" /> </svg><svg xmlns="http://www.w3.org/2000/svg">
	<polygon points=" 59.5 447  89.5 447  89.5 487  59.5 487 " fill="green" stroke="blue" stroke-width="0.1" /> </svg><svg xmlns="http://www.w3.org/2000/svg">
	<polygon points=" 90 447  120 447  120 487  90 487 " fill="green" stroke="blue" stroke-width="0.1" /> </svg><svg xmlns="http://www.w3.org/2000/svg">
	<polygon points=" 120.5 447  150.5 447  150.5 487  120.5 487 " fill="green" stroke="blue" stroke-width="0.1" /> </svg><svg xmlns="http://www.w3.org/2000/svg">
	<polygon points=" 151 447  181 447  181 487  151 487 " fill="green" stroke="blue" stroke-width="0.1" /> </svg><svg xmlns="http://www.w3.org/2000/svg">
	<polygon points=" 181.5 447  211.5 447  211.5 487  181.5 487 " fill="green" stroke="blue" stroke-width="0.1" /> </svg><svg xmlns="http://www.w3.org/2000/svg">
	<polygon points=" 212 447  242 447  242 487  212 487 " fill="green" stroke="blue" stroke-width="0.1" /> </svg><svg xmlns="http://www.w3.org/2000/svg">
	<polygon points=" 242.5 447  272.5 447  272.5 487  242.5 487 " fill="green" stroke="blue" stroke-width="0.1" /> </svg><svg xmlns="http://www.w3.org/2000/svg">
	<polygon points=" 273 447  303 447  303 487  273 487 " fill="green" stroke="blue" stroke-width="0.1" /> </svg><svg xmlns="http://www.w3.org/2000/svg">
	<polygon points=" 303.5 447  333.5 447  333.5 487  303.5 487 " fill="green" stroke="blue" stroke-width="0.1" /> </svg><svg xmlns="http://www.w3.org/2000/svg">
	<polygon points=" 334 447  364 447  364 487  334 487 " fill="green" stroke="blue" stroke-width="0.1" /> </svg><svg xmlns="http://www.w3.org/2000/svg">
	<polygon points=" 364.5 447  394.5 447  394.5 487  364.5 487 " fill="green" stroke="blue" stroke-width="0.1" /> </svg><svg xmlns="http://www.w3.org/2000/svg">
	<polygon points=" 395 447  425 447  425 487  395 487 " fill="green" stroke="blue" stroke-width="0.1" /> </svg><svg xmlns="http://www.w3.org/2000/svg">
	<polygon points=" 425.5 447  455.5 447  455.5 487  425.5 487 " fill="green" stroke="blue" stroke-width="0.1" /> </svg><svg xmlns="http://www.w3.org/2000/svg">
	<polygon points=" 456 447  486 447  486 487  456 487 " fill="green" stroke="blue" stroke-width="0.1" /> </svg><svg xmlns="http://www.w3.org/2000/svg">
	<polygon points=" 486.5 447  516.5 447  516.5 487  486.5 487 " fill="green" stroke="blue" stroke-width="0.1" /> </svg><svg xmlns="http://www.w3.org/2000/svg">
	<polygon points=" 517 447  547 447  547 487  517 487 " fill="green" stroke="blue" stroke-width="0.1" /> </svg><svg xmlns="http://www.w3.org/2000/svg">
	<polygon points=" 547.5 447  577.5 447  577.5 487  547.5 487 " fill="green" stroke="blue" stroke-width="0.1" /> </svg><svg xmlns="http://www.w3.org/2000/svg">
	<polygon points=" 578 447  608 447  608 487  578 487 " fill="green" stroke="blue" stroke-width="0.1" /> </svg><svg xmlns="http://www.w3.org/2000/svg">
	<polygon points=" 608.5 447  638.5 447  638.5 487  608.5 487 " fill="green" stroke="blue" stroke-width="0.1" /> </svg><svg xmlns="http://www.w3.org/2000/svg">
	<polygon points=" 639 447  669 447  669 487  639 487 " fill="green" stroke="blue" stroke-width="0.1" /> </svg><svg xmlns="http://www.w3.org/2000/svg">
	<polygon points=" 49 487.5  79 487.5  79 527.5  49 527.5 " fill="green" stroke="blue" stroke-width="0.1" /> </svg><svg xmlns="http://www.w3.org/2000/svg">
	<polygon points=" 79.5 487.5  109.5 487.5  109.5 527.5  79.5 527.5 " fill="green" stroke="blue" stroke-width="0.1" /> </svg><svg xmlns="http://www.w3.org/2000/svg">
	<polygon points=" 110 487.5  140 487.5  140 527.5  110 527.5 " fill="green" stroke="blue" stroke-width="0.1" /> </svg><svg xmlns="http://www.w3.org/2000/svg">
	<polygon points=" 140.5 487.5  170.5 487.5  170.5 527.5  140.5 527.5 " fill="green" stroke="blue" stroke-width="0.1" /> </svg><svg xmlns="http://www.w3.org/2000/svg">
	<polygon points=" 171 487.5  201 487.5  201 527.5  171 527.5 " fill="green" stroke="blue" stroke-width="0.1" /> </svg><svg xmlns="http://www.w3.org/2000/svg">
	<polygon points=" 201.5 487.5  231.5 487.5  231.5 527.5  201.5 527.5 " fill="green" stroke="blue" stroke-width="0.1" /> </svg><svg xmlns="http://www.w3.org/2000/svg">
	<polygon points=" 232 487.5  262 487.5  262 527.5  232 527.5 " fill="green" stroke="blue" stroke-width="0.1" /> </svg><svg xmlns="http://www.w3.org/2000/svg">
	<polygon points=" 262.5 487.5  292.5 487.5  292.5 527.5  262.5 527.5 " fill="green" stroke="blue" stroke-width="0.1" /> </svg><svg xmlns="http://www.w3.org/2000/svg">
	<polygon points=" 293 487.5  323 487.5  323 527.5  293 527.5 " fill="green" stroke="blue" stroke-width="0.1" /> </svg><svg xmlns="http://www.w3.org/2000/svg">
	<polygon points=" 323.5 487.5  353.5 487.5  353.5 527.5  323.5 527.5 " fill="green" stroke="blue" stroke-width="0.1" /> </svg><svg xmlns="http://www.w3.org/2000/svg">
	<polygon points=" 354 487.5  384 487.5  384 527.5  354 527.5 " fill="green" stroke="blue" stroke-width="0.1" /> </svg><svg xmlns="http://www.w3.org/2000/svg">
	<polygon points=" 384.5 487.5  414.5 487.5  414.5 527.5  384.5 527.5 " fill="green" stroke="blue" stroke-width="0.1" /> </svg><svg xmlns="http://www.w3.org/2000/svg">
	<polygon points=" 415 487.5  445 487.5  445 527.5  415 527.5 " fill="green" stroke="blue" stroke-width="0.1" /> </svg><svg xmlns="http://www.w3.org/2000/svg">
	<polygon points=" 445.5 487.5  475.5 487.5  475.5 527.5  445.5 527.5 " fill="green" stroke="blue" stroke-width="0.1" /> </svg><svg xmlns="http://www.w3.org/2000/svg">
	<polygon points=" 476 487.5  506 487.5  506 527.5  476 527.5 " fill="green" stroke="blue" stroke-width="0.1" /> </svg><svg xmlns="http://www.w3.org/2000/svg">
	<polygon points=" 506.5 487.5  536.5 487.5  536.5 527.5  506.5 527.5 " fill="green" stroke="blue" stroke-width="0.1" /> </svg><svg xmlns="http://www.w3.org/2000/svg">
	<polygon points=" 537 487.5  567 487.5  567 527.5  537 527.5 " fill="green" stroke="blue" stroke-width="0.1" /> </svg><svg xmlns="http://www.w3.org/2000/svg">
	<polygon points=" 567.5 487.5  597.5 487.5  597.5 527.5  567.5 527.5 " fill="green" stroke="blue" stroke-width="0.1" /> </svg><svg xmlns="http://www.w3.org/2000/svg">
	<polygon points=" 598 487.5  628 487.5  628 527.5  598 527.5 " fill="green" stroke="blue" stroke-width="0.1" /> </svg><svg xmlns="http://www.w3.org/2000/svg">
	<polygon points=" 77 528  107 528  107 568  77 568 " fill="green" stroke="blue" stroke-width="0.1" /> </svg><svg xmlns="http://www.w3.org/2000/svg">
	<polygon points=" 107.5 528  137.5 528  137.5 568  107.5 568 " fill="green" stroke="blue" stroke-width="0.1" /> </svg><svg xmlns="http://www.w3.org/2000/svg">
	<polygon points=" 138 528  168 528  168 568  138 568 " fill="green" stroke="blue" stroke-width="0.1" /> </svg><svg xmlns="http://www.w3.org/2000/svg">
	<polygon points=" 168.5 528  198.5 528  198.5 568  168.5 568 " fill="green" stroke="blue" stroke-width="0.1" /> </svg><svg xmlns="http://www.w3.org/2000/svg">
	<polygon points=" 199 528  229 528  229 568  199 568 " fill="green" stroke="blue" stroke-width="0.1" /> </svg><svg xmlns="http://www.w3.org/2000/svg">
	<polygon points=" 229.5 528  259.5 528  259.5 568  229.5 568 " fill="green" stroke="blue" stroke-width="0.1" /> </svg><svg xmlns="http://www.w3.org/2000/svg">
	<polygon points=" 260 528  290 528  290 568  260 568 " fill="green" stroke="blue" stroke-width="0.1" /> </svg><svg xmlns="http://www.w3.org/2000/svg">
	<polygon points=" 290.5 528  320.5 528  320.5 568  290.5 568 " fill="green" stroke="blue" stroke-width="0.1" /> </svg><svg xmlns="http://www.w3.org/2000/svg">
	<polygon points=" 321 528  351 528  351 568  321 568 " fill="green" stroke="blue" stroke-width="0.1" /> </svg><svg xmlns="http://www.w3.org/2000/svg">
	<polygon points=" 351.5 528  381.5 528  381.5 568  351.5 568 " fill="green" stroke="blue" stroke-width="0.1" /> </svg><svg xmlns="http://www.w3.org/2000/svg">
	<polygon points=" 382 528  412 528  412 568  382 568 " fill="green" stroke="blue" stroke-width="0.1" /> </svg><svg xmlns="http://www.w3.org/2000/svg">
	<polygon points=" 412.5 528  442.5 528  442.5 568  412.5 568 " fill="green" stroke="blue" stroke-width="0.1" /> </svg><svg xmlns="http://www.w3.org/2000/svg">
	<polygon points=" 443 528  473 528  473 568  443 568 " fill="green" stroke="blue" stroke-width="0.1" /> </svg><svg xmlns="http://www.w3.org/2000/svg">
	<polygon points=" 473.5 528  503.5 528  503.5 568  473.5 568 " fill="green" stroke="blue" stroke-width="0.1" /> </svg><svg xmlns="http://www.w3.org/2000/svg">
	<polygon points=" 504 528  534 528  534 568  504 568 " fill="green" stroke="blue" stroke-width="0.1" /> </svg><svg xmlns="http://www.w3.org/2000/svg">
	<polygon points=" 534.5 528  564.5 528  564.5 568  534.5 568 " fill="green" stroke="blue" stroke-width="0.1" /> </svg><svg xmlns="http://www.w3.org/2000/svg">
	<polygon points=" 565 528  595 528  595 568  565 568 " fill="green" stroke="blue" stroke-width="0.1" /> </svg><svg xmlns="http://www.w3.org/2000/svg">
	<polygon points=" 114 568.5  144 568.5  144 608.5  114 608.5 " fill="green" stroke="blue" stroke-width="0.1" /> </svg><svg xmlns="http://www.w3.org/2000/svg">
	<polygon points=" 144.5 568.5  174.5 568.5  174.5 608.5  144.5 608.5 " fill="green" stroke="blue" stroke-width="0.1" /> </svg><svg xmlns="http://www.w3.org/2000/svg">
	<polygon points=" 175 568.5  205 568.5  205 608.5  175 608.5 " fill="green" stroke="blue" stroke-width="0.1" /> </svg><svg xmlns="http://www.w3.org/2000/svg">
	<polygon points=" 205.5 568.5  235.5 568.5  235.5 608.5  205.5 608.5 " fill="green" stroke="blue" stroke-width="0.1" /> </svg><svg xmlns="http://www.w3.org/2000/svg">
	<polygon points=" 236 568.5  266 568.5  266 608.5  236 608.5 " fill="green" stroke="blue" stroke-width="0.1" /> </svg><svg xmlns="http://www.w3.org/2000/svg">
	<polygon points=" 266.5 568.5  296.5 568.5  296.5 608.5  266.5 608.5 " fill="green" stroke="blue" stroke-width="0.1" /> </svg><svg xmlns="http://www.w3.org/2000/svg">
	<polygon points=" 297 568.5  327 568.5  327 608.5  297 608.5 " fill="green" stroke="blue" stroke-width="0.1" /> </svg><svg xmlns="http://www.w3.org/2000/svg">
	<polygon points=" 327.5 568.5  357.5 568.5  357.5 608.5  327.5 608.5 " fill="green" stroke="blue" stroke-width="0.1" /> </svg><svg xmlns="http://www.w3.org/2000/svg">
	<polygon points=" 358 568.5  388 568.5  388 608.5  358 608.5 " fill="green" stroke="blue" stroke-width="0.1" /> </svg><svg xmlns="http://www.w3.org/2000/svg">
	<polygon points=" 388.5 568.5  418.5 568.5  418.5 608.5  388.5 608.5 " fill="green" stroke="blue" stroke-width="0.1" /> </svg><svg xmlns="http://www.w3.org/2000/svg">
	<polygon points=" 419 568.5  449 568.5  449 608.5  419 608.5 " fill="green" stroke="blue" stroke-width="0.1" /> </svg><svg xmlns="http://www.w3.org/2000/svg">
	<polygon points=" 449.5 568.5  479.5 568.5  479.5 608.5  449.5 608.5 " fill="green" stroke="blue" stroke-width="0.1" /> </svg><svg xmlns="http://www.w3.org/2000/svg">
	<polygon points=" 480 568.5  510 568.5  510 608.5  480 608.5 " fill="green" stroke="blue" stroke-width="0.1" /> </svg><svg xmlns="http://www.w3.org/2000/svg">
	<polygon points=" 510.5 568.5  540.5 568.5  540.5 608.5  510.5 608.5 " fill="green" stroke="blue" stroke-width="0.1" /> </svg><svg xmlns="http://www.w3.org/2000/svg">
	<polygon points=" 541 568.5  571 568.5  571 608.5  541 608.5 " fill="green" stroke="blue" stroke-width="0.1" /> </svg><svg xmlns="http://www.w3.org/2000/svg">
	<polygon points=" 168 609  198 609  198 649  168 649 " fill="green" stroke="blue" stroke-width="0.1" /> </svg><svg xmlns="http://www.w3.org/2000/svg">
	<polygon points=" 198.5 609  228.5 609  228.5 649  198.5 649 " fill="green" stroke="blue" stroke-width="0.1" /> </svg><svg xmlns="http://www.w3.org/2000/svg">
	<polygon points=" 229 609  259 609  259 649  229 649 " fill="green" stroke="blue" stroke-width="0.1" /> </svg><svg xmlns="http://www.w3.org/2000/svg">
	<polygon points=" 259.5 609  289.5 609  289.5 649  259.5 649 " fill="green" stroke="blue" stroke-width="0.1" /> </svg><svg xmlns="http://www.w3.org/2000/svg">
	<polygon points=" 290 609  320 609  320 649  290 649 " fill="green" stroke="blue" stroke-width="0.1" /> </svg><svg xmlns="http://www.w3.org/2000/svg">
	<polygon points=" 320.5 609  350.5 609  350.5 649  320.5 649 " fill="green" stroke="blue" stroke-width="0.1" /> </svg><svg xmlns="http://www.w3.org/2000/svg">
	<polygon points=" 351 609  381 609  381 649  351 649 " fill="green" stroke="blue" stroke-width="0.1" /> </svg><svg xmlns="http://www.w3.org/2000/svg">
	<polygon points=" 381.5 609  411.5 609  411.5 649  381.5 649 " fill="green" stroke="blue" stroke-width="0.1" /> </svg><svg xmlns="http://www.w3.org/2000/svg">
	<polygon points=" 412 609  442 609  442 649  412 649 " fill="green" stroke="blue" stroke-width="0.1" /> </svg><svg xmlns="http://www.w3.org/2000/svg">
	<polygon points=" 442.5 609  472.5 609  472.5 649  442.5 649 " fill="green" stroke="blue" stroke-width="0.1" /> </svg><svg xmlns="http://www.w3.org/2000/svg">
	<polygon points=" 473 609  503 609  503 649  473 649 " fill="green" stroke="blue" stroke-width="0.1" /> </svg><svg xmlns="http://www.w3.org/2000/svg">
	<polygon points=" 264 649.5  294 649.5  294 689.5  264 689.5 " fill="green" stroke="blue" stroke-width="0.1" /> </svg><svg xmlns="http://www.w3.org/2000/svg">
	<polygon points=" 294.5 649.5  324.5 649.5  324.5 689.5  294.5 689.5 " fill="green" stroke="blue" stroke-width="0.1" /> </svg><svg xmlns="http://www.w3.org/2000/svg">
	<polygon points=" 325 649.5  355 649.5  355 689.5  325 689.5 " fill="green" stroke="blue" stroke-width="0.1" /> </svg><svg xmlns="http://www.w3.org/2000/svg">
	<polygon points=" 355.5 649.5  385.5 649.5  385.5 689.5  355.5 689.5 " fill="green" stroke="blue" stroke-width="0.1" /> </svg><svg xmlns="http://www.w3.org/2000/svg">
	<polygon points=" 386 649.5  416 649.5  416 689.5  386 689.5 " fill="green" stroke="blue" stroke-width="0.1" /> </svg></svg>