<svg version="1.1" baseProfile="full" width="500" height="400" xmlns="http://www.w3.org/2000/svg"> <rect width="100%" height="100%" fill="red" />
<svg xmlns="http://www.w3.org/2000/svg">
	<polygon points=" 0 0  30 0  30 40  0 40 " fill="green" stroke="blue" stroke-width="0.1" /> </svg><svg xmlns="http://www.w3.org/2000/svg">
	<polygon points=" 30 0  60 0  60 40  30 40 " fill="green" stroke="blue" stroke-width="0.1" /> </svg><svg xmlns="http://www.w3.org/2000/svg">
	<polygon points=" 60 0  90 0  90 40  60 40 " fill="green" stroke="blue" stroke-width="0.1" /> </svg><svg xmlns="http://www.w3.org/2000/svg">
	<polygon points=" 90 0  120 0  120 40  90 40 " fill="green" stroke="blue" stroke-width="0.1" /> </svg><svg xmlns="http://www.w3.org/2000/svg">
	<polygon points=" 120 0  150 0  150 40  120 40 " fill="green" stroke="blue" stroke-width="0.1" /> </svg><svg xmlns="http://www.w3.org/2000/svg">
	<polygon points=" 150 0  180 0  180 40  150 40 " fill="green" stroke="blue" stroke-width="0.1" /> </svg><svg xmlns="http://www.w3.org/2000/svg">
	<polygon points=" 180 0  210 0  210 40  180 40 " fill="green" stroke="blue" stroke-width="0.1" /> </svg><svg xmlns="http://www.w3.org/2000/svg">
	<polygon points=" 210 0  240 0  240 40  210 40 " fill="green" stroke="blue" stroke-width="0.1" /> </svg><svg xmlns="http://www.w3.org/2000/svg">
	<polygon points=" 240 0  270 0  270 40  240 40 " fill="green" stroke="blue" stroke-width="0.1" /> </svg><svg xmlns="http://www.w3.org/2000/svg">
	<polygon points=" 270 0  300 0  300 40  270 40 " fill="green" stroke="blue" stroke-width="0.1" /> </svg><svg xmlns="http://www.w3.org/2000/svg">
	<polygon points=" 300 0  330 0  330 40  300 40 " fill="green" stroke="blue" stroke-width="0.1" /> </svg><svg xmlns="http://www.w3.org/2000/svg">
	<polygon points=" 330 0  360 0  360 40  330 40 " fill="green" stroke="blue" stroke-width="0.1" /> </svg><svg xmlns="http://www.w3.org/2000/svg">
	<polygon points=" 360 0  390 0  390 40  360 40 " fill="green" stroke="blue" stroke-width="0.1" /> </svg><svg xmlns="http://www.w3.org/2000/svg">
	<polygon points=" 390 0  420 0  420 40  390 40 " fill="green" stroke="blue" stroke-width="0.1" /> </svg><svg xmlns="http://www.w3.org/2000/svg">
	<polygon points=" 420 0  450 0  450 40  420 40 " fill="green" stroke="blue" stroke-width="0.1" /> </svg><svg xmlns="http://www.w3.org/2000/svg">
	<polygon points=" 450 0  480 0  480 40  450 40 " fill="green" stroke="blue" stroke-width="0.1" /> </svg><svg xmlns="http://www.w3.org/2000/svg">
	<polygon points=" 0 40  30 40  30 80  0 80 " fill="green" stroke="blue" stroke-width="0.1" /> </svg><svg xmlns="http://www.w3.org/2000/svg">
	<polygon points=" 30 40  60 40  60 80  30 80 " fill="green" stroke="blue" stroke-width="0.1" /> </svg><svg xmlns="http://www.w3.org/2000/svg">
	<polygon points=" 60 40  90 40  90 80  60 80 " fill="green" stroke="blue" stroke-width="0.1" /> </svg><svg xmlns="http://www.w3.org/2000/svg">
	<polygon points=" 90 40  120 40  120 80  90 80 " fill="green" stroke="blue" stroke-width="0.1" /> </svg><svg xmlns="http://www.w3.org/2000/svg">
	<polygon points=" 120 40  150 40  150 80  120 80 " fill="green" stroke="blue" stroke-width="0.1" /> </svg><svg xmlns="http://www.w3.org/2000/svg">
	<polygon points=" 150 40  180 40  180 80  150 80 " fill="green" stroke="blue" stroke-width="0.1" /> </svg><svg xmlns="http://www.w3.org/2000/svg">
	<polygon points=" 180 40  210 40  210 80  180 80 " fill="green" stroke="blue" stroke-width="0.1" /> </svg><svg xmlns="http://www.w3.org/2000/svg">
	<polygon points=" 210 40  240 40  240 80  210 80 " fill="green" stroke="blue" stroke-width="0.1" /> </svg><svg xmlns="http://www.w3.org/2000/svg">
	<polygon points=" 240 40  270 40  270 80  240 80 " fill="green" stroke="blue" stroke-width="0.1" /> </svg><svg xmlns="http://www.w3.org/2000/svg">
	<polygon points=" 270 40  300 40  300 80  270 80 " fill="green" stroke="blue" stroke-width="0.1" /> </svg><svg xmlns="http://www.w3.org/2000/svg">
	<polygon points=" 300 40  330 40  330 80  300 80 " fill="green" stroke="blue" stroke-width="0.1" /> </svg><svg xmlns="http://www.w3.org/2000/svg">
	<polygon points=" 330 40  360 40  360 80  330 80 " fill="green" stroke="blue" stroke-width="0.1" /> </svg><svg xmlns="http://www.w3.org/2000/svg">
	<polygon points=" 360 40  390 40  390 80  360 80 " fill="green" stroke="blue" stroke-width="0.1" /> </svg><svg xmlns="http://www.w3.org/2000/svg">
	<polygon points=" 390 40  420 40  420 80  390 80 " fill="green" stroke="blue" stroke-width="0.1" /> </svg><svg xmlns="http://www.w3.org/2000/svg">
	<polygon points=" 420 40  450 40  450 80  420 80 " fill="green" stroke="blue" stroke-width="0.1" /> </svg><svg xmlns="http://www.w3.org/2000/svg">
	<polygon points=" 450 40  480 40  480 80  450 80 " fill="green" stroke="blue" stroke-width="0.1" /> </svg><svg xmlns="http://www.w3.org/2000/svg">
	<polygon points=" 0 80  30 80  30 120  0 120 " fill="green" stroke="blue" stroke-width="0.1" /> </svg><svg xmlns="http://www.w3.org/2000/svg">
	<polygon points=" 30 80  60 80  60 120  30 120 " fill="green" stroke="blue" stroke-width="0.1" /> </svg><svg xmlns="http://www.w3.org/2000/svg">
	<polygon points=" 60 80  90 80  90 120  60 120 " fill="green" stroke="blue" stroke-width="0.1" /> </svg><svg xmlns="http://www.w3.org/2000/svg">
	<polygon points=" 90 80  120 80  120 120  90 120 " fill="green" stroke="blue" stroke-width="0.1" /> </svg><svg xmlns="http://www.w3.org/2000/svg">
	<polygon points=" 120 80  150 80  150 120  120 120 " fill="green" stroke="blue" stroke-width="0.1" /> </svg><svg xmlns="http://www.w3.org/2000/svg">
	<polygon points=" 150 80  180 80  180 120  150 120 " fill="green" stroke="blue" stroke-width="0.1" /> </svg><svg xmlns="http://www.w3.org/2000/svg">
	<polygon points=" 180 80  210 80  210 120  180 120 " fill="green" stroke="blue" stroke-width="0.1" /> </svg><svg xmlns="http://www.w3.org/2000/svg">
	<polygon points=" 210 80  240 80  240 120  210 120 " fill="green" stroke="blue" stroke-width="0.1" /> </svg><svg xmlns="http://www.w3.org/2000/svg">
	<polygon points=" 240 80  270 80  270 120  240 120 " fill="green" stroke="blue" stroke-width="0.1" /> </svg><svg xmlns="http://www.w3.org/2000/svg">
	<polygon points=" 270 80  300 80  300 120  270 120 " fill="green" stroke="blue" stroke-width="0.1" /> </svg><svg xmlns="http://www.w3.org/2000/svg">
	<polygon points=" 300 80  330 80  330 120  300 120 " fill="green" stroke="blue" stroke-width="0.1" /> </svg><svg xmlns="http://www.w3.org/2000/svg">
	<polygon points=" 330 80  360 80  360 120  330 120 " fill="green" stroke="blue" stroke-width="0.1" /> </svg><svg xmlns="http://www.w3.org/2000/svg">
	<polygon points=" 360 80  390 80  390 120  360 120 " fill="green" stroke="blue" stroke-width="0.1" /> </svg><svg xmlns="http://www.w3.org/2000/svg">
	<polygon points=" 390 80  420 80  420 120  390 120 " fill="green" stroke="blue" stroke-width="0.1" /> </svg><svg xmlns="http://www.w3.org/2000/svg">
	<polygon points=" 420 80  450 80  450 120  420 120 " fill="green" stroke="blue" stroke-width="0.1" /> </svg><svg xmlns="http://www.w3.org/2000/svg">
	<polygon points=" 450 80  480 80  480 120  450 120 " fill="green" stroke="blue" stroke-width="0.1" /> </svg><svg xmlns="http://www.w3.org/2000/svg">
	<polygon points=" 0 120  30 120  30 160  0 160 " fill="green" stroke="blue" stroke-width="0.1" /> </svg><svg xmlns="http://www.w3.org/2000/svg">
	<polygon points=" 30 120  60 120  60 160  30 160 " fill="green" stroke="blue" stroke-width="0.1" /> </svg><svg xmlns="http://www.w3.org/2000/svg">
	<polygon points=" 60 120  90 120  90 160  60 160 " fill="green" stroke="blue" stroke-width="0.1" /> </svg><svg xmlns="http://www.w3.org/2000/svg">
	<polygon points=" 90 120  120 120  120 160  90 160 " fill="green" stroke="blue" stroke-width="0.1" /> </svg><svg xmlns="http://www.w3.org/2000/svg">
	<polygon points=" 120 120  150 120  150 160  120 160 " fill="green" stroke="blue" stroke-width="0.1" /> </svg><svg xmlns="http://www.w3.org/2000/svg">
	<polygon points=" 150 120  180 120  180 160  150 160 " fill="green" stroke="blue" stroke-width="0.1" /> </svg><svg xmlns="http://www.w3.org/2000/svg">
	<polygon points=" 180 120  210 120  210 160  180 160 " fill="green" stroke="blue" stroke-width="0.1" /> </svg><svg xmlns="http://www.w3.org/2000/svg">
	<polygon points=" 210 120  240 120  240 160  210 160 " fill="green" stroke="blue" stroke-width="0.1" /> </svg><svg xmlns="http://www.w3.org/2000/svg">
	<polygon points=" 240 120  270 120  270 160  240 160 " fill="green" stroke="blue" stroke-width="0.1" /> </svg><svg xmlns="http://www.w3.org/2000/svg">
	<polygon points=" 270 120  300 120  300 160  270 160 " fill="green" stroke="blue" stroke-width="0.1" /> </svg><svg xmlns="http://www.w3.org/2000/svg">
	<polygon points=" 300 120  330 120  330 160  300 160 " fill="green" stroke="blue" stroke-width="0.1" /> </svg><svg xmlns="http://www.w3.org/2000/svg">
	<polygon points=" 330 120  360 120  360 160  330 160 " fill="green" stroke="blue" stroke-width="0.1" /> </svg><svg xmlns="http://www.w3.org/2000/svg">
	<polygon points=" 360 120  390 120  390 160  360 160 " fill="green" stroke="blue" stroke-width="0.1" /> </svg><svg xmlns="http://www.w3.org/2000/svg">
	<polygon points=" 390 120  420 120  420 160  390 160 " fill="green" stroke="blue" stroke-width="0.1" /> </svg><svg xmlns="http://www.w3.org/2000/svg">
	<polygon points=" 420 120  450 120  450 160  420 160 " fill="green" stroke="blue" stroke-width="0.1" /> </svg><svg xmlns="http://www.w3.org/2000/svg">
	<polygon points=" 450 120  480 120  480 160  450 160 " fill="green" stroke="blue" stroke-width="0.1" /> </svg><svg xmlns="http://www.w3.org/2000/svg">
	<polygon points=" 0 160  30 160  30 200  0 200 " fill="green" stroke="blue" stroke-width="0.1" /> </svg><svg xmlns="http://www.w3.org/2000/svg">
	<polygon points=" 30 160  60 160  60 200  30 200 " fill="green" stroke="blue" stroke-width="0.1" /> </svg><svg xmlns="http://www.w3.org/2000/svg">
	<polygon points=" 60 160  90 160  90 200  60 200 " fill="green" stroke="blue" stroke-width="0.1" /> </svg><svg xmlns="http://www.w3.org/2000/svg">
	<polygon points=" 90 160  120 160  120 200  90 200 " fill="green" stroke="blue" stroke-width="0.1" /> </svg><svg xmlns="http://www.w3.org/2000/svg">
	<polygon points=" 120 160  150 160  150 200  120 200 " fill="green" stroke="blue" stroke-width="0.1" /> </svg><svg xmlns="http://www.w3.org/2000/svg">
	<polygon points=" 150 160  180 160  180 200  150 200 " fill="green" stroke="blue" stroke-width="0.1" /> </svg><svg xmlns="http://www.w3.org/2000/svg">
	<polygon points=" 180 160  210 160  210 200  180 200 " fill="green" stroke="blue" stroke-width="0.1" /> </svg><svg xmlns="http://www.w3.org/2000/svg">
	<polygon points=" 210 160  240 160  240 200  210 200 " fill="green" stroke="blue" stroke-width="0.1" /> </svg><svg xmlns="http://www.w3.org/2000/svg">
	<polygon points=" 240 160  270 160  270 200  240 200 " fill="green" stroke="blue" stroke-width="0.1" /> </svg><svg xmlns="http://www.w3.org/2000/svg">
	<polygon points=" 270 160  300 160  300 200  270 200 " fill="green" stroke="blue" stroke-width="0.1" /> </svg><svg xmlns="http://www.w3.org/2000/svg">
	<polygon points=" 300 160  330 160  330 200  300 200 " fill="green" stroke="blue" stroke-width="0.1" /> </svg><svg xmlns="http://www.w3.org/2000/svg">
	<polygon points=" 330 160  360 160  360 200  330 200 " fill="green" stroke="blue" stroke-width="0.1" /> </svg><svg xmlns="http://www.w3.org/2000/svg">
	<polygon points=" 360 160  390 160  390 200  360 200 " fill="green" stroke="blue" stroke-width="0.1" /> </svg><svg xmlns="http://www.w3.org/2000/svg">
	<polygon points=" 390 160  420 160  420 200  390 200 " fill="green" stroke="blue" stroke-width="0.1" /> </svg><svg xmlns="http://www.w3.org/2000/svg">
	<polygon points=" 420 160  450 160  450 200  420 200 " fill="green" stroke="blue" stroke-width="0.1" /> </svg><svg xmlns="http://www.w3.org/2000/svg">
	<polygon points=" 450 160  480 160  480 200  450 200 " fill="green" stroke="blue" stroke-width="0.1" /> </svg><svg xmlns="http://www.w3.org/2000/svg">
	<polygon points=" 0 200  30 200  30 240  0 240 " fill="green" stroke="blue" stroke-width="0.1" /> </svg><svg xmlns="http://www.w3.org/2000/svg">
	<polygon points=" 30 200  60 200  60 240  30 240 " fill="green" stroke="blue" stroke-width="0.1" /> </svg><svg xmlns="http://www.w3.org/2000/svg">
	<polygon points=" 60 200  90 200  90 240  60 240 " fill="green" stroke="blue" stroke-width="0.1" /> </svg><svg xmlns="http://www.w3.org/2000/svg">
	<polygon points=" 90 200  120 200  120 240  90 240 " fill="green" stroke="blue" stroke-width="0.1" /> </svg><svg xmlns="http://www.w3.org/2000/svg">
	<polygon points=" 120 200  150 200  150 240  120 240 " fill="green" stroke="blue" stroke-width="0.1" /> </svg><svg xmlns="http://www.w3.org/2000/svg">
	<polygon points=" 150 200  180 200  180 240  150 240 " fill="green" stroke="blue" stroke-width="0.1" /> </svg><svg xmlns="http://www.w3.org/2000/svg">
	<polygon points=" 180 200  210 200  210 240  180 240 " fill="green" stroke="blue" stroke-width="0.1" /> </svg><svg xmlns="http://www.w3.org/2000/svg">
	<polygon points=" 210 200  240 200  240 240  210 240 " fill="green" stroke="blue" stroke-width="0.1" /> </svg><svg xmlns="http://www.w3.org/2000/svg">
	<polygon points=" 240 200  270 200  270 240  240 240 " fill="green" stroke="blue" stroke-width="0.1" /> </svg><svg xmlns="http://www.w3.org/2000/svg">
	<polygon points=" 270 200  300 200  300 240  270 240 " fill="green" stroke="blue" stroke-width="0.1" /> </svg><svg xmlns="http://www.w3.org/2000/svg">
	<polygon points=" 300 200  330 200  330 240  300 240 " fill="green" stroke="blue" stroke-width="0.1" /> </svg><svg xmlns="http://www.w3.org/2000/svg">
	<polygon points=" 330 200  360 200  360 240  330 240 " fill="green" stroke="blue" stroke-width="0.1" /> </svg><svg xmlns="http://www.w3.org/2000/svg">
	<polygon points=" 360 200  390 200  390 240  360 240 " fill="green" stroke="blue" stroke-width="0.1" /> </svg><svg xmlns="http://www.w3.org/2000/svg">
	<polygon points=" 390 200  420 200  420 240  390 240 " fill="green" stroke="blue" stroke-width="0.1" /> </svg><svg xmlns="http://www.w3.org/2000/svg">
	<polygon points=" 420 200  450 200  450 240  420 240 " fill="green" stroke="blue" stroke-width="0.1" /> </svg><svg xmlns="http://www.w3.org/2000/svg">
	<polygon points=" 450 200  480 200  480 240  450 240 " fill="green" stroke="blue" stroke-width="0.1" /> </svg><svg xmlns="http://www.w3.org/2000/svg">
	<polygon points=" 0 240  30 240  30 280  0 280 " fill="green" stroke="blue" stroke-width="0.1" /> </svg><svg xmlns="http://www.w3.org/2000/svg">
	<polygon points=" 30 240  60 240  60 280  30 280 " fill="green" stroke="blue" stroke-width="0.1" /> </svg><svg xmlns="http://www.w3.org/2000/svg">
	<polygon points=" 60 240  90 240  90 280  60 280 " fill="green" stroke="blue" stroke-width="0.1" /> </svg><svg xmlns="http://www.w3.org/2000/svg">
	<polygon points=" 90 240  120 240  120 280  90 280 " fill="green" stroke="blue" stroke-width="0.1" /> </svg><svg xmlns="http://www.w3.org/2000/svg">
	<polygon points=" 120 240  150 240  150 280  120 280 " fill="green" stroke="blue" stroke-width="0.1" /> </svg><svg xmlns="http://www.w3.org/2000/svg">
	<polygon points=" 150 240  180 240  180 280  150 280 " fill="green" stroke="blue" stroke-width="0.1" /> </svg><svg xmlns="http://www.w3.org/2000/svg">
	<polygon points=" 180 240  210 240  210 280  180 280 " fill="green" stroke="blue" stroke-width="0.1" /> </svg><svg xmlns="http://www.w3.org/2000/svg">
	<polygon points=" 210 240  240 240  240 280  210 280 " fill="green" stroke="blue" stroke-width="0.1" /> </svg><svg xmlns="http://www.w3.org/2000/svg">
	<polygon points=" 240 240  270 240  270 280  240 280 " fill="green" stroke="blue" stroke-width="0.1" /> </svg><svg xmlns="http://www.w3.org/2000/svg">
	<polygon points=" 270 240  300 240  300 280  270 280 " fill="green" stroke="blue" stroke-width="0.1" /> </svg><svg xmlns="http://www.w3.org/2000/svg">
	<polygon points=" 300 240  330 240  330 280  300 280 " fill="green" stroke="blue" stroke-width="0.1" /> </svg><svg xmlns="http://www.w3.org/2000/svg">
	<polygon points=" 330 240  360 240  360 280  330 280 " fill="green" stroke="blue" stroke-width="0.1" /> </svg><svg xmlns="http://www.w3.org/2000/svg">
	<polygon points=" 360 240  390 240  390 280  360 280 " fill="green" stroke="blue" stroke-width="0.1" /> </svg><svg xmlns="http://www.w3.org/2000/svg">
	<polygon points=" 390 240  420 240  420 280  390 280 " fill="green" stroke="blue" stroke-width="0.1" /> </svg><svg xmlns="http://www.w3.org/2000/svg">
	<polygon points=" 420 240  450 240  450 280  420 280 " fill="green" stroke="blue" stroke-width="0.1" /> </svg><svg xmlns="http://www.w3.org/2000/svg">
	<polygon points=" 450 240  480 240  480 280  450 280 " fill="green" stroke="blue" stroke-width="0.1" /> </svg><svg xmlns="http://www.w3.org/2000/svg">
	<polygon points=" 0 280  30 280  30 320  0 320 " fill="green" stroke="blue" stroke-width="0.1" /> </svg><svg xmlns="http://www.w3.org/2000/svg">
	<polygon points=" 30 280  60 280  60 320  30 320 " fill="green" stroke="blue" stroke-width="0.1" /> </svg><svg xmlns="http://www.w3.org/2000/svg">
	<polygon points=" 60 280  90 280  90 320  60 320 " fill="green" stroke="blue" stroke-width="0.1" /> </svg><svg xmlns="http://www.w3.org/2000/svg">
	<polygon points=" 90 280  120 280  120 320  90 320 " fill="green" stroke="blue" stroke-width="0.1" /> </svg><svg xmlns="http://www.w3.org/2000/svg">
	<polygon points=" 120 280  150 280  150 320  120 320 " fill="green" stroke="blue" stroke-width="0.1" /> </svg><svg xmlns="http://www.w3.org/2000/svg">
	<polygon points=" 150 280  180 280  180 320  150 320 " fill="green" stroke="blue" stroke-width="0.1" /> </svg><svg xmlns="http://www.w3.org/2000/svg">
	<polygon points=" 180 280  210 280  210 320  180 320 " fill="green" stroke="blue" stroke-width="0.1" /> </svg><svg xmlns="http://www.w3.org/2000/svg">
	<polygon points=" 210 280  240 280  240 320  210 320 " fill="green" stroke="blue" stroke-width="0.1" /> </svg><svg xmlns="http://www.w3.org/2000/svg">
	<polygon points=" 240 280  270 280  270 320  240 320 " fill="green" stroke="blue" stroke-width="0.1" /> </svg><svg xmlns="http://www.w3.org/2000/svg">
	<polygon points=" 270 280  300 280  300 320  270 320 " fill="green" stroke="blue" stroke-width="0.1" /> </svg><svg xmlns="http://www.w3.org/2000/svg">
	<polygon points=" 300 280  330 280  330 320  300 320 " fill="green" stroke="blue" stroke-width="0.1" /> </svg><svg xmlns="http://www.w3.org/2000/svg">
	<polygon points=" 330 280  360 280  360 320  330 320 " fill="green" stroke="blue" stroke-width="0.1" /> </svg><svg xmlns="http://www.w3.org/2000/svg">
	<polygon points=" 360 280  390 280  390 320  360 320 " fill="green" stroke="blue" stroke-width="0.1" /> </svg><svg xmlns="http://www.w3.org/2000/svg">
	<polygon points=" 390 280  420 280  420 320  390 320 " fill="green" stroke="blue" stroke-width="0.1" /> </svg><svg xmlns="http://www.w3.org/2000/svg">
	<polygon points=" 420 280  450 280  450 320  420 320 " fill="green" stroke="blue" stroke-width="0.1" /> </svg><svg xmlns="http://www.w3.org/2000/svg">
	<polygon points=" 450 280  480 280  480 320  450 320 " fill="green" stroke="blue" stroke-width="0.1" /> </svg><svg xmlns="http://www.w3.org/2000/svg">
	<polygon points=" 0 320  30 320  30 360  0 360 " fill="green" stroke="blue" stroke-width="0.1" /> </svg><svg xmlns="http://www.w3.org/2000/svg">
	<polygon points=" 30 320  60 320  60 360  30 360 " fill="green" stroke="blue" stroke-width="0.1" /> </svg><svg xmlns="http://www.w3.org/2000/svg">
	<polygon points=" 60 320  90 320  90 360  60 360 " fill="green" stroke="blue" stroke-width="0.1" /> </svg><svg xmlns="http://www.w3.org/2000/svg">
	<polygon points=" 90 320  120 320  120 360  90 360 " fill="green" stroke="blue" stroke-width="0.1" /> </svg><svg xmlns="http://www.w3.org/2000/svg">
	<polygon points=" 120 320  150 320  150 360  120 360 " fill="green" stroke="blue" stroke-width="0.1" /> </svg><svg xmlns="http://www.w3.org/2000/svg">
	<polygon points=" 150 320  180 320  180 360  150 360 " fill="green" stroke="blue" stroke-width="0.1" /> </svg><svg xmlns="http://www.w3.org/2000/svg">
	<polygon points=" 180 320  210 320  210 360  180 360 " fill="green" stroke="blue" stroke-width="0.1" /> </svg><svg xmlns="http://www.w3.org/2000/svg">
	<polygon points=" 210 320  240 320  240 360  210 360 " fill="green" stroke="blue" stroke-width="0.1" /> </svg><svg xmlns="http://www.w3.org/2000/svg">
	<polygon points=" 240 320  270 320  270 360  240 360 " fill="green" stroke="blue" stroke-width="0.1" /> </svg><svg xmlns="http://www.w3.org/2000/svg">
	<polygon points=" 270 320  300 320  300 360  270 360 " fill="green" stroke="blue" stroke-width="0.1" /> </svg><svg xmlns="http://www.w3.org/2000/svg">
	<polygon points=" 300 320  330 320  330 360  300 360 " fill="green" stroke="blue" stroke-width="0.1" /> </svg><svg xmlns="http://www.w3.org/2000/svg">
	<polygon points=" 330 320  360 320  360 360  330 360 " fill="green" stroke="blue" stroke-width="0.1" /> </svg><svg xmlns="http://www.w3.org/2000/svg">
	<polygon points=" 360 320  390 320  390 360  360 360 " fill="green" stroke="blue" stroke-width="0.1" /> </svg><svg xmlns="http://www.w3.org/2000/svg">
	<polygon points=" 390 320  420 320  420 360  390 360 " fill="green" stroke="blue" stroke-width="0.1" /> </svg><svg xmlns="http://www.w3.org/2000/svg">
	<polygon points=" 420 320  450 320  450 360  420 360 " fill="green" stroke="blue" stroke-width="0.1" /> </svg><svg xmlns="http://www.w3.org/2000/svg">
	<polygon points=" 450 320  480 320  480 360  450 360 " fill="green" stroke="blue" stroke-width="0.1" /> </svg><svg xmlns="http://www.w3.org/2000/svg">
	<polygon points=" 0 360  30 360  30 400  0 400 " fill="green" stroke="blue" stroke-width="0.1" /> </svg><svg xmlns="http://www.w3.org/2000/svg">
	<polygon points=" 30 360  60 360  60 400  30 400 " fill="green" stroke="blue" stroke-width="0.1" /> </svg><svg xmlns="http://www.w3.org/2000/svg">
	<polygon points=" 60 360  90 360  90 400  60 400 " fill="green" stroke="blue" stroke-width="0.1" /> </svg><svg xmlns="http://www.w3.org/2000/svg">
	<polygon points=" 90 360  120 360  120 400  90 400 " fill="green" stroke="blue" stroke-width="0.1" /> </svg><svg xmlns="http://www.w3.org/2000/svg">
	<polygon points=" 120 360  150 360  150 400  120 400 " fill="green" stroke="blue" stroke-width="0.1" /> </svg><svg xmlns="http://www.w3.org/2000/svg">
	<polygon points=" 150 360  180 360  180 400  150 400 " fill="green" stroke="blue" stroke-width="0.1" /> </svg><svg xmlns="http://www.w3.org/2000/svg">
	<polygon points=" 180 360  210 360  210 400  180 400 " fill="green" stroke="blue" stroke-width="0.1" /> </svg><svg xmlns="http://www.w3.org/2000/svg">
	<polygon points=" 210 360  240 360  240 400  210 400 " fill="green" stroke="blue" stroke-width="0.1" /> </svg><svg xmlns="http://www.w3.org/2000/svg">
	<polygon points=" 240 360  270 360  270 400  240 400 " fill="green" stroke="blue" stroke-width="0.1" /> </svg><svg xmlns="http://www.w3.org/2000/svg">
	<polygon points=" 270 360  300 360  300 400  270 400 " fill="green" stroke="blue" stroke-width="0.1" /> </svg><svg xmlns="http://www.w3.org/2000/svg">
	<polygon points=" 300 360  330 360  330 400  300 400 " fill="green" stroke="blue" stroke-width="0.1" /> </svg><svg xmlns="http://www.w3.org/2000/svg">
	<polygon points=" 330 360  360 360  360 400  330 400 " fill="green" stroke="blue" stroke-width="0.1" /> </svg><svg xmlns="http://www.w3.org/2000/svg">
	<polygon points=" 360 360  390 360  390 400  360 400 " fill="green" stroke="blue" stroke-width="0.1" /> </svg><svg xmlns="http://www.w3.org/2000/svg">
	<polygon points=" 390 360  420 360  420 400  390 400 " fill="green" stroke="blue" stroke-width="0.1" /> </svg><svg xmlns="http://www.w3.org/2000/svg">
	<polygon points=" 420 360  450 360  450 400  420 400 " fill="green" stroke="blue" stroke-width="0.1" /> </svg><svg xmlns="http://www.w3.org/2000/svg">
	<polygon points=" 450 360  480 360  480 400  450 400 " fill="green" stroke="blue" stroke-width="0.1" /> </svg></svg>